<mxfile host="drawio-plugin" modified="2024-10-07T16:26:10.893Z" agent="Mozilla/5.0 (Macintosh; Intel Mac OS X 10_15_7) AppleWebKit/537.36 (KHTML, like Gecko) Chrome/122.0.0.0 Safari/537.36" etag="bAm3L_A8L9JyOF-jD-Rp" version="22.1.22" type="embed" pages="3">
  <diagram id="23iRSUPoRavnBvh4doch" name="NAP Project Template">
    <mxGraphModel dx="1026" dy="-641" grid="1" gridSize="10" guides="1" tooltips="1" connect="1" arrows="1" fold="1" page="1" pageScale="1" pageWidth="1654" pageHeight="1169" math="0" shadow="0">
      <root>
        <mxCell id="0" />
        <mxCell id="1" parent="0" />
        <mxCell id="3" value="" style="rounded=0;whiteSpace=wrap;html=1;fillColor=none;movable=0;resizable=0;rotatable=0;deletable=0;editable=0;connectable=0;" parent="1" vertex="1">
          <mxGeometry x="10" y="1180" width="1635" height="1148" as="geometry" />
        </mxCell>
        <mxCell id="9" value="" style="rounded=0;whiteSpace=wrap;html=1;movable=0;resizable=0;rotatable=0;deletable=0;editable=0;connectable=0;" parent="1" vertex="1">
          <mxGeometry x="553.8324147785262" y="2260" width="545.5006123698714" height="68" as="geometry" />
        </mxCell>
        <mxCell id="23" value="" style="rounded=0;whiteSpace=wrap;html=1;movable=0;resizable=0;rotatable=0;deletable=0;editable=0;connectable=0;" parent="1" vertex="1">
          <mxGeometry x="281.75" y="2294" width="272.25" height="34" as="geometry" />
        </mxCell>
        <mxCell id="14" value="" style="rounded=0;whiteSpace=wrap;html=1;movable=0;resizable=0;rotatable=0;deletable=0;editable=0;connectable=0;" parent="1" vertex="1">
          <mxGeometry x="1370.75" y="2294" width="274.25" height="34" as="geometry" />
        </mxCell>
        <mxCell id="20" value="" style="rounded=0;whiteSpace=wrap;html=1;movable=0;resizable=0;rotatable=0;deletable=0;editable=0;connectable=0;" parent="1" vertex="1">
          <mxGeometry x="10" y="2294" width="271.7493876301286" height="34" as="geometry" />
        </mxCell>
        <mxCell id="21" value="" style="rounded=0;whiteSpace=wrap;html=1;movable=0;resizable=0;rotatable=0;deletable=0;editable=0;connectable=0;" parent="1" vertex="1">
          <mxGeometry x="10" y="2260" width="544" height="34" as="geometry" />
        </mxCell>
        <mxCell id="6" value="" style="rounded=0;whiteSpace=wrap;html=1;movable=0;resizable=0;rotatable=0;deletable=0;editable=0;connectable=0;" parent="1" vertex="1">
          <mxGeometry x="1098.9993876301285" y="2294" width="271.7493876301286" height="34" as="geometry" />
        </mxCell>
        <mxCell id="11" value="" style="rounded=0;whiteSpace=wrap;html=1;movable=0;resizable=0;rotatable=0;deletable=0;editable=0;connectable=0;" parent="1" vertex="1">
          <mxGeometry x="1099" y="2260" width="546" height="34" as="geometry" />
        </mxCell>
        <mxCell id="28" value="&lt;b&gt;Product: &lt;/b&gt;Rank Protocol (internal library, rank-prelude)" style="text;html=1;strokeColor=none;fillColor=none;align=left;verticalAlign=middle;whiteSpace=wrap;rounded=0;fontSize=17;" parent="1" vertex="1">
          <mxGeometry x="13" y="2262" width="537" height="30" as="geometry" />
        </mxCell>
        <mxCell id="29" value="&lt;b&gt;Date: &lt;/b&gt;January 22nd, 2024" style="text;html=1;strokeColor=none;fillColor=none;align=left;verticalAlign=middle;whiteSpace=wrap;rounded=0;fontSize=17;" parent="1" vertex="1">
          <mxGeometry x="13" y="2296" width="264" height="30" as="geometry" />
        </mxCell>
        <mxCell id="30" value="&lt;b&gt;Scale: &lt;/b&gt;N/A" style="text;html=1;strokeColor=none;fillColor=none;align=left;verticalAlign=middle;whiteSpace=wrap;rounded=0;fontSize=17;" parent="1" vertex="1">
          <mxGeometry x="285" y="2296" width="264" height="30" as="geometry" />
        </mxCell>
        <mxCell id="31" value="&lt;b&gt;&lt;font style=&quot;font-size: 24px;&quot;&gt;Rank Protocol Data Model&lt;/font&gt;&lt;/b&gt;" style="text;html=1;strokeColor=none;fillColor=none;align=center;verticalAlign=middle;whiteSpace=wrap;rounded=0;fontSize=17;" parent="1" vertex="1">
          <mxGeometry x="560" y="2266" width="533" height="56" as="geometry" />
        </mxCell>
        <mxCell id="33" value="&lt;b&gt;Authors: &lt;/b&gt;Rui Eduardo Lopes" style="text;html=1;strokeColor=none;fillColor=none;align=left;verticalAlign=middle;whiteSpace=wrap;rounded=0;fontSize=17;" parent="1" vertex="1">
          <mxGeometry x="1103" y="2262" width="537" height="30" as="geometry" />
        </mxCell>
        <mxCell id="34" value="&lt;b&gt;Rev: &lt;/b&gt;revision D, version 0.1.0" style="text;html=1;strokeColor=none;fillColor=none;align=left;verticalAlign=middle;whiteSpace=wrap;rounded=0;fontSize=17;" parent="1" vertex="1">
          <mxGeometry x="1103" y="2296" width="264" height="30" as="geometry" />
        </mxCell>
        <mxCell id="35" value="&lt;b&gt;Page: &lt;/b&gt;1 / 1" style="text;html=1;strokeColor=none;fillColor=none;align=left;verticalAlign=middle;whiteSpace=wrap;rounded=0;fontSize=17;" parent="1" vertex="1">
          <mxGeometry x="1375" y="2296" width="264" height="30" as="geometry" />
        </mxCell>
      </root>
    </mxGraphModel>
  </diagram>
  <diagram name="Rank Data Model" id="bG8RxQauxDObzXuG4XsC">
    <mxGraphModel dx="1026" dy="-641" grid="1" gridSize="10" guides="1" tooltips="1" connect="1" arrows="1" fold="1" page="1" pageScale="1" pageWidth="1654" pageHeight="1169" math="0" shadow="0">
      <root>
        <mxCell id="h1eI_nPeraRx3KmiK-lf-0" />
        <mxCell id="h1eI_nPeraRx3KmiK-lf-1" parent="h1eI_nPeraRx3KmiK-lf-0" />
        <mxCell id="h1eI_nPeraRx3KmiK-lf-2" value="" style="rounded=0;whiteSpace=wrap;html=1;fillColor=none;movable=0;resizable=0;rotatable=0;deletable=0;editable=0;connectable=0;" parent="h1eI_nPeraRx3KmiK-lf-1" vertex="1">
          <mxGeometry x="10" y="1180" width="1635" height="1148" as="geometry" />
        </mxCell>
        <mxCell id="h1eI_nPeraRx3KmiK-lf-3" value="" style="rounded=0;whiteSpace=wrap;html=1;movable=0;resizable=0;rotatable=0;deletable=0;editable=0;connectable=0;" parent="h1eI_nPeraRx3KmiK-lf-1" vertex="1">
          <mxGeometry x="553.8324147785262" y="2260" width="545.5006123698714" height="68" as="geometry" />
        </mxCell>
        <mxCell id="h1eI_nPeraRx3KmiK-lf-4" value="" style="rounded=0;whiteSpace=wrap;html=1;movable=0;resizable=0;rotatable=0;deletable=0;editable=0;connectable=0;" parent="h1eI_nPeraRx3KmiK-lf-1" vertex="1">
          <mxGeometry x="281.75" y="2294" width="272.25" height="34" as="geometry" />
        </mxCell>
        <mxCell id="h1eI_nPeraRx3KmiK-lf-5" value="" style="rounded=0;whiteSpace=wrap;html=1;movable=0;resizable=0;rotatable=0;deletable=0;editable=0;connectable=0;" parent="h1eI_nPeraRx3KmiK-lf-1" vertex="1">
          <mxGeometry x="1370.75" y="2294" width="274.25" height="34" as="geometry" />
        </mxCell>
        <mxCell id="h1eI_nPeraRx3KmiK-lf-6" value="" style="rounded=0;whiteSpace=wrap;html=1;movable=0;resizable=0;rotatable=0;deletable=0;editable=0;connectable=0;" parent="h1eI_nPeraRx3KmiK-lf-1" vertex="1">
          <mxGeometry x="10" y="2294" width="271.7493876301286" height="34" as="geometry" />
        </mxCell>
        <mxCell id="h1eI_nPeraRx3KmiK-lf-7" value="" style="rounded=0;whiteSpace=wrap;html=1;movable=0;resizable=0;rotatable=0;deletable=0;editable=0;connectable=0;" parent="h1eI_nPeraRx3KmiK-lf-1" vertex="1">
          <mxGeometry x="10" y="2260" width="544" height="34" as="geometry" />
        </mxCell>
        <mxCell id="h1eI_nPeraRx3KmiK-lf-8" value="" style="rounded=0;whiteSpace=wrap;html=1;movable=0;resizable=0;rotatable=0;deletable=0;editable=0;connectable=0;" parent="h1eI_nPeraRx3KmiK-lf-1" vertex="1">
          <mxGeometry x="1098.9993876301285" y="2294" width="271.7493876301286" height="34" as="geometry" />
        </mxCell>
        <mxCell id="h1eI_nPeraRx3KmiK-lf-9" value="" style="rounded=0;whiteSpace=wrap;html=1;movable=0;resizable=0;rotatable=0;deletable=0;editable=0;connectable=0;" parent="h1eI_nPeraRx3KmiK-lf-1" vertex="1">
          <mxGeometry x="1099" y="2260" width="546" height="34" as="geometry" />
        </mxCell>
        <mxCell id="h1eI_nPeraRx3KmiK-lf-10" value="&lt;b&gt;Product: &lt;/b&gt;Rank Protocol (internal library, rank-prelude)" style="text;html=1;strokeColor=none;fillColor=none;align=left;verticalAlign=middle;whiteSpace=wrap;rounded=0;fontSize=17;" parent="h1eI_nPeraRx3KmiK-lf-1" vertex="1">
          <mxGeometry x="13" y="2262" width="537" height="30" as="geometry" />
        </mxCell>
        <mxCell id="h1eI_nPeraRx3KmiK-lf-11" value="&lt;b&gt;Date: &lt;/b&gt;January 22nd, 2024" style="text;html=1;strokeColor=none;fillColor=none;align=left;verticalAlign=middle;whiteSpace=wrap;rounded=0;fontSize=17;" parent="h1eI_nPeraRx3KmiK-lf-1" vertex="1">
          <mxGeometry x="13" y="2296" width="264" height="30" as="geometry" />
        </mxCell>
        <mxCell id="h1eI_nPeraRx3KmiK-lf-12" value="&lt;b&gt;Scale: &lt;/b&gt;N/A" style="text;html=1;strokeColor=none;fillColor=none;align=left;verticalAlign=middle;whiteSpace=wrap;rounded=0;fontSize=17;" parent="h1eI_nPeraRx3KmiK-lf-1" vertex="1">
          <mxGeometry x="285" y="2296" width="264" height="30" as="geometry" />
        </mxCell>
        <mxCell id="h1eI_nPeraRx3KmiK-lf-13" value="&lt;b&gt;&lt;font style=&quot;font-size: 24px;&quot;&gt;Rank Protocol Data Model&lt;/font&gt;&lt;/b&gt;" style="text;html=1;strokeColor=none;fillColor=none;align=center;verticalAlign=middle;whiteSpace=wrap;rounded=0;fontSize=17;" parent="h1eI_nPeraRx3KmiK-lf-1" vertex="1">
          <mxGeometry x="560" y="2266" width="533" height="56" as="geometry" />
        </mxCell>
        <mxCell id="h1eI_nPeraRx3KmiK-lf-14" value="&lt;b&gt;Authors: &lt;/b&gt;Rui Eduardo Lopes" style="text;html=1;strokeColor=none;fillColor=none;align=left;verticalAlign=middle;whiteSpace=wrap;rounded=0;fontSize=17;" parent="h1eI_nPeraRx3KmiK-lf-1" vertex="1">
          <mxGeometry x="1103" y="2262" width="537" height="30" as="geometry" />
        </mxCell>
        <mxCell id="h1eI_nPeraRx3KmiK-lf-15" value="&lt;b&gt;Rev: &lt;/b&gt;revision D, version 0.1.0" style="text;html=1;strokeColor=none;fillColor=none;align=left;verticalAlign=middle;whiteSpace=wrap;rounded=0;fontSize=17;" parent="h1eI_nPeraRx3KmiK-lf-1" vertex="1">
          <mxGeometry x="1103" y="2296" width="264" height="30" as="geometry" />
        </mxCell>
        <mxCell id="h1eI_nPeraRx3KmiK-lf-16" value="&lt;b&gt;Page: &lt;/b&gt;1 / 1" style="text;html=1;strokeColor=none;fillColor=none;align=left;verticalAlign=middle;whiteSpace=wrap;rounded=0;fontSize=17;" parent="h1eI_nPeraRx3KmiK-lf-1" vertex="1">
          <mxGeometry x="1375" y="2296" width="264" height="30" as="geometry" />
        </mxCell>
        <mxCell id="4Dr7qYJyZsWA0C1EVG_1-55" value="«singleton»&lt;br&gt;&lt;b&gt;Process&lt;/b&gt;" style="html=1;fontSize=12;fillColor=none;" parent="h1eI_nPeraRx3KmiK-lf-1" vertex="1">
          <mxGeometry x="296" y="1450" width="110" height="50" as="geometry" />
        </mxCell>
        <mxCell id="4Dr7qYJyZsWA0C1EVG_1-56" value="«map»&lt;br&gt;&lt;b&gt;TranslationTable&lt;/b&gt;" style="html=1;fontSize=12;fillColor=none;" parent="h1eI_nPeraRx3KmiK-lf-1" vertex="1">
          <mxGeometry x="576" y="1440" width="110" height="50" as="geometry" />
        </mxCell>
        <mxCell id="4Dr7qYJyZsWA0C1EVG_1-57" value="«singleton»&lt;br&gt;&lt;b&gt;Resources&lt;/b&gt;" style="html=1;fontSize=12;fillColor=none;" parent="h1eI_nPeraRx3KmiK-lf-1" vertex="1">
          <mxGeometry x="206" y="1650" width="110" height="50" as="geometry" />
        </mxCell>
        <mxCell id="4Dr7qYJyZsWA0C1EVG_1-58" value="«singleton»&lt;br&gt;&lt;b&gt;TimeoutHandler&lt;/b&gt;" style="html=1;fontSize=12;fillColor=none;" parent="h1eI_nPeraRx3KmiK-lf-1" vertex="1">
          <mxGeometry x="646" y="1550" width="110" height="50" as="geometry" />
        </mxCell>
        <mxCell id="4Dr7qYJyZsWA0C1EVG_1-59" value="«map»&lt;br&gt;&lt;b&gt;Store&lt;/b&gt;" style="html=1;fontSize=12;fillColor=none;" parent="h1eI_nPeraRx3KmiK-lf-1" vertex="1">
          <mxGeometry x="426" y="1650" width="110" height="50" as="geometry" />
        </mxCell>
        <mxCell id="4Dr7qYJyZsWA0C1EVG_1-60" value="" style="endArrow=diamondThin;endFill=1;endSize=12;html=1;rounded=0;fontSize=12;" parent="h1eI_nPeraRx3KmiK-lf-1" source="4Dr7qYJyZsWA0C1EVG_1-56" target="4Dr7qYJyZsWA0C1EVG_1-55" edge="1">
          <mxGeometry width="160" relative="1" as="geometry">
            <mxPoint x="406" y="1580" as="sourcePoint" />
            <mxPoint x="566" y="1580" as="targetPoint" />
          </mxGeometry>
        </mxCell>
        <mxCell id="4Dr7qYJyZsWA0C1EVG_1-61" value="1" style="edgeLabel;html=1;align=center;verticalAlign=middle;resizable=0;points=[];fontSize=12;" parent="4Dr7qYJyZsWA0C1EVG_1-60" vertex="1" connectable="0">
          <mxGeometry x="-0.8195" y="-2" relative="1" as="geometry">
            <mxPoint x="-11" y="-5" as="offset" />
          </mxGeometry>
        </mxCell>
        <mxCell id="4Dr7qYJyZsWA0C1EVG_1-62" value="1" style="edgeLabel;html=1;align=center;verticalAlign=middle;resizable=0;points=[];fontSize=12;" parent="4Dr7qYJyZsWA0C1EVG_1-60" vertex="1" connectable="0">
          <mxGeometry x="0.6723" y="-1" relative="1" as="geometry">
            <mxPoint x="6" y="6" as="offset" />
          </mxGeometry>
        </mxCell>
        <mxCell id="4Dr7qYJyZsWA0C1EVG_1-63" value="" style="endArrow=diamondThin;endFill=1;endSize=12;html=1;rounded=0;fontSize=12;" parent="h1eI_nPeraRx3KmiK-lf-1" source="4Dr7qYJyZsWA0C1EVG_1-57" target="4Dr7qYJyZsWA0C1EVG_1-55" edge="1">
          <mxGeometry width="160" relative="1" as="geometry">
            <mxPoint x="242.25" y="1580" as="sourcePoint" />
            <mxPoint x="329.75" y="1510" as="targetPoint" />
          </mxGeometry>
        </mxCell>
        <mxCell id="4Dr7qYJyZsWA0C1EVG_1-64" value="1" style="edgeLabel;html=1;align=center;verticalAlign=middle;resizable=0;points=[];fontSize=12;" parent="4Dr7qYJyZsWA0C1EVG_1-63" vertex="1" connectable="0">
          <mxGeometry x="-0.8195" y="-2" relative="1" as="geometry">
            <mxPoint x="-14" y="3" as="offset" />
          </mxGeometry>
        </mxCell>
        <mxCell id="4Dr7qYJyZsWA0C1EVG_1-65" value="1" style="edgeLabel;html=1;align=center;verticalAlign=middle;resizable=0;points=[];fontSize=12;" parent="4Dr7qYJyZsWA0C1EVG_1-63" vertex="1" connectable="0">
          <mxGeometry x="0.6723" y="-1" relative="1" as="geometry">
            <mxPoint x="6" y="-11" as="offset" />
          </mxGeometry>
        </mxCell>
        <mxCell id="4Dr7qYJyZsWA0C1EVG_1-66" value="" style="endArrow=diamondThin;endFill=1;endSize=12;html=1;rounded=0;fontSize=12;" parent="h1eI_nPeraRx3KmiK-lf-1" source="4Dr7qYJyZsWA0C1EVG_1-59" target="4Dr7qYJyZsWA0C1EVG_1-55" edge="1">
          <mxGeometry width="160" relative="1" as="geometry">
            <mxPoint x="252.25" y="1590" as="sourcePoint" />
            <mxPoint x="339.75" y="1520" as="targetPoint" />
          </mxGeometry>
        </mxCell>
        <mxCell id="4Dr7qYJyZsWA0C1EVG_1-67" value="1" style="edgeLabel;html=1;align=center;verticalAlign=middle;resizable=0;points=[];fontSize=12;" parent="4Dr7qYJyZsWA0C1EVG_1-66" vertex="1" connectable="0">
          <mxGeometry x="-0.8195" y="-2" relative="1" as="geometry">
            <mxPoint x="-14" y="1" as="offset" />
          </mxGeometry>
        </mxCell>
        <mxCell id="4Dr7qYJyZsWA0C1EVG_1-68" value="1" style="edgeLabel;html=1;align=center;verticalAlign=middle;resizable=0;points=[];fontSize=12;" parent="4Dr7qYJyZsWA0C1EVG_1-66" vertex="1" connectable="0">
          <mxGeometry x="0.6723" y="-1" relative="1" as="geometry">
            <mxPoint x="1" y="-10" as="offset" />
          </mxGeometry>
        </mxCell>
        <mxCell id="4Dr7qYJyZsWA0C1EVG_1-69" value="" style="endArrow=diamondThin;endFill=1;endSize=12;html=1;rounded=0;fontSize=12;" parent="h1eI_nPeraRx3KmiK-lf-1" source="4Dr7qYJyZsWA0C1EVG_1-58" target="4Dr7qYJyZsWA0C1EVG_1-55" edge="1">
          <mxGeometry width="160" relative="1" as="geometry">
            <mxPoint x="262.25" y="1600" as="sourcePoint" />
            <mxPoint x="349.75" y="1530" as="targetPoint" />
          </mxGeometry>
        </mxCell>
        <mxCell id="4Dr7qYJyZsWA0C1EVG_1-70" value="1" style="edgeLabel;html=1;align=center;verticalAlign=middle;resizable=0;points=[];fontSize=12;" parent="4Dr7qYJyZsWA0C1EVG_1-69" vertex="1" connectable="0">
          <mxGeometry x="-0.8195" y="-2" relative="1" as="geometry">
            <mxPoint x="11" y="-6" as="offset" />
          </mxGeometry>
        </mxCell>
        <mxCell id="4Dr7qYJyZsWA0C1EVG_1-71" value="1" style="edgeLabel;html=1;align=center;verticalAlign=middle;resizable=0;points=[];fontSize=12;" parent="4Dr7qYJyZsWA0C1EVG_1-69" vertex="1" connectable="0">
          <mxGeometry x="0.6723" y="-1" relative="1" as="geometry">
            <mxPoint x="-22" y="-16" as="offset" />
          </mxGeometry>
        </mxCell>
        <mxCell id="4Dr7qYJyZsWA0C1EVG_1-72" value="«map»&lt;br&gt;&lt;b&gt;TimeoutTable&lt;/b&gt;" style="html=1;fontSize=12;fillColor=none;" parent="h1eI_nPeraRx3KmiK-lf-1" vertex="1">
          <mxGeometry x="646" y="1650" width="110" height="50" as="geometry" />
        </mxCell>
        <mxCell id="4Dr7qYJyZsWA0C1EVG_1-73" value="&lt;b&gt;TimeoutHandlerSpec&lt;/b&gt;" style="html=1;fontSize=12;fillColor=none;" parent="h1eI_nPeraRx3KmiK-lf-1" vertex="1">
          <mxGeometry x="626" y="1750" width="150" height="50" as="geometry" />
        </mxCell>
        <mxCell id="4Dr7qYJyZsWA0C1EVG_1-74" value="" style="endArrow=diamondThin;endFill=1;endSize=12;html=1;rounded=0;fontSize=12;" parent="h1eI_nPeraRx3KmiK-lf-1" source="4Dr7qYJyZsWA0C1EVG_1-72" target="4Dr7qYJyZsWA0C1EVG_1-58" edge="1">
          <mxGeometry width="160" relative="1" as="geometry">
            <mxPoint x="272.25" y="1610" as="sourcePoint" />
            <mxPoint x="359.75" y="1540" as="targetPoint" />
          </mxGeometry>
        </mxCell>
        <mxCell id="4Dr7qYJyZsWA0C1EVG_1-75" value="1" style="edgeLabel;html=1;align=center;verticalAlign=middle;resizable=0;points=[];fontSize=12;" parent="4Dr7qYJyZsWA0C1EVG_1-74" vertex="1" connectable="0">
          <mxGeometry x="-0.8195" y="-2" relative="1" as="geometry">
            <mxPoint x="-11" y="-5" as="offset" />
          </mxGeometry>
        </mxCell>
        <mxCell id="4Dr7qYJyZsWA0C1EVG_1-76" value="1" style="edgeLabel;html=1;align=center;verticalAlign=middle;resizable=0;points=[];fontSize=12;" parent="4Dr7qYJyZsWA0C1EVG_1-74" vertex="1" connectable="0">
          <mxGeometry x="0.6723" y="-1" relative="1" as="geometry">
            <mxPoint x="6" y="6" as="offset" />
          </mxGeometry>
        </mxCell>
        <mxCell id="4Dr7qYJyZsWA0C1EVG_1-77" value="" style="endArrow=diamondThin;endFill=1;endSize=12;html=1;rounded=0;fontSize=12;" parent="h1eI_nPeraRx3KmiK-lf-1" source="4Dr7qYJyZsWA0C1EVG_1-73" target="4Dr7qYJyZsWA0C1EVG_1-72" edge="1">
          <mxGeometry width="160" relative="1" as="geometry">
            <mxPoint x="282.25" y="1620" as="sourcePoint" />
            <mxPoint x="369.75" y="1550" as="targetPoint" />
          </mxGeometry>
        </mxCell>
        <mxCell id="4Dr7qYJyZsWA0C1EVG_1-78" value="1" style="edgeLabel;html=1;align=center;verticalAlign=middle;resizable=0;points=[];fontSize=12;" parent="4Dr7qYJyZsWA0C1EVG_1-77" vertex="1" connectable="0">
          <mxGeometry x="-0.8195" y="-2" relative="1" as="geometry">
            <mxPoint x="-11" y="-5" as="offset" />
          </mxGeometry>
        </mxCell>
        <mxCell id="4Dr7qYJyZsWA0C1EVG_1-79" value="1" style="edgeLabel;html=1;align=center;verticalAlign=middle;resizable=0;points=[];fontSize=12;" parent="4Dr7qYJyZsWA0C1EVG_1-77" vertex="1" connectable="0">
          <mxGeometry x="0.6723" y="-1" relative="1" as="geometry">
            <mxPoint x="6" y="6" as="offset" />
          </mxGeometry>
        </mxCell>
        <mxCell id="4Dr7qYJyZsWA0C1EVG_1-80" value="&lt;b&gt;Handler&lt;/b&gt;" style="html=1;fontSize=12;fillColor=none;" parent="h1eI_nPeraRx3KmiK-lf-1" vertex="1">
          <mxGeometry x="426" y="1750" width="110" height="50" as="geometry" />
        </mxCell>
        <mxCell id="4Dr7qYJyZsWA0C1EVG_1-82" value="" style="endArrow=diamondThin;endFill=1;endSize=12;html=1;rounded=0;fontSize=12;" parent="h1eI_nPeraRx3KmiK-lf-1" source="4Dr7qYJyZsWA0C1EVG_1-80" target="4Dr7qYJyZsWA0C1EVG_1-59" edge="1">
          <mxGeometry width="160" relative="1" as="geometry">
            <mxPoint x="711" y="1760" as="sourcePoint" />
            <mxPoint x="711" y="1710" as="targetPoint" />
          </mxGeometry>
        </mxCell>
        <mxCell id="4Dr7qYJyZsWA0C1EVG_1-83" value="1" style="edgeLabel;html=1;align=center;verticalAlign=middle;resizable=0;points=[];fontSize=12;" parent="4Dr7qYJyZsWA0C1EVG_1-82" vertex="1" connectable="0">
          <mxGeometry x="-0.8195" y="-2" relative="1" as="geometry">
            <mxPoint x="-11" y="-5" as="offset" />
          </mxGeometry>
        </mxCell>
        <mxCell id="4Dr7qYJyZsWA0C1EVG_1-84" value="1" style="edgeLabel;html=1;align=center;verticalAlign=middle;resizable=0;points=[];fontSize=12;" parent="4Dr7qYJyZsWA0C1EVG_1-82" vertex="1" connectable="0">
          <mxGeometry x="0.6723" y="-1" relative="1" as="geometry">
            <mxPoint x="6" y="6" as="offset" />
          </mxGeometry>
        </mxCell>
        <mxCell id="4Dr7qYJyZsWA0C1EVG_1-85" value="&lt;b&gt;Reservation&lt;/b&gt;" style="html=1;fontSize=12;fillColor=none;" parent="h1eI_nPeraRx3KmiK-lf-1" vertex="1">
          <mxGeometry x="52.5" y="1750" width="110" height="50" as="geometry" />
        </mxCell>
        <mxCell id="4Dr7qYJyZsWA0C1EVG_1-86" value="«enumeration»&lt;br&gt;&lt;b&gt;HandlerState&lt;/b&gt;" style="html=1;fontSize=12;fillColor=none;" parent="h1eI_nPeraRx3KmiK-lf-1" vertex="1">
          <mxGeometry x="512.5" y="1860" width="110" height="50" as="geometry" />
        </mxCell>
        <mxCell id="4Dr7qYJyZsWA0C1EVG_1-87" value="«set»&lt;br&gt;&lt;b&gt;BidSet&lt;/b&gt;" style="html=1;fontSize=12;fillColor=none;" parent="h1eI_nPeraRx3KmiK-lf-1" vertex="1">
          <mxGeometry x="342.5" y="1860" width="110" height="50" as="geometry" />
        </mxCell>
        <mxCell id="4Dr7qYJyZsWA0C1EVG_1-88" value="«enumeration»&lt;br&gt;&lt;b&gt;ReservationState&lt;/b&gt;" style="html=1;fontSize=12;fillColor=none;" parent="h1eI_nPeraRx3KmiK-lf-1" vertex="1">
          <mxGeometry x="52.5" y="1860" width="110" height="50" as="geometry" />
        </mxCell>
        <mxCell id="4Dr7qYJyZsWA0C1EVG_1-89" value="«struct»&lt;br&gt;&lt;b&gt;CurrentCapabilities&lt;/b&gt;" style="html=1;fontSize=12;fillColor=none;" parent="h1eI_nPeraRx3KmiK-lf-1" vertex="1">
          <mxGeometry x="181" y="1967.96" width="160" height="50" as="geometry" />
        </mxCell>
        <mxCell id="4Dr7qYJyZsWA0C1EVG_1-90" value="&lt;b&gt;RequestingCapabilities&lt;/b&gt;" style="html=1;fontSize=12;fillColor=none;" parent="h1eI_nPeraRx3KmiK-lf-1" vertex="1">
          <mxGeometry x="408.76" y="1967.96" width="160" height="50" as="geometry" />
        </mxCell>
        <mxCell id="4Dr7qYJyZsWA0C1EVG_1-91" value="«interface»&lt;br&gt;&lt;b&gt;Capabilities&lt;/b&gt;" style="html=1;fontSize=12;fillColor=none;" parent="h1eI_nPeraRx3KmiK-lf-1" vertex="1">
          <mxGeometry x="325.76" y="2067.96" width="110" height="50" as="geometry" />
        </mxCell>
        <mxCell id="4Dr7qYJyZsWA0C1EVG_1-92" value="«abstract»&lt;br&gt;&lt;b&gt;Message&lt;/b&gt;" style="html=1;fontSize=12;fillColor=none;" parent="h1eI_nPeraRx3KmiK-lf-1" vertex="1">
          <mxGeometry x="1097.5" y="1940" width="110" height="50" as="geometry" />
        </mxCell>
        <mxCell id="4Dr7qYJyZsWA0C1EVG_1-93" value="&lt;b&gt;EAR&lt;/b&gt;" style="html=1;fontSize=12;fillColor=none;" parent="h1eI_nPeraRx3KmiK-lf-1" vertex="1">
          <mxGeometry x="772.5" y="2060" width="110" height="50" as="geometry" />
        </mxCell>
        <mxCell id="4Dr7qYJyZsWA0C1EVG_1-94" value="&lt;b&gt;BID&lt;/b&gt;" style="html=1;fontSize=12;fillColor=none;" parent="h1eI_nPeraRx3KmiK-lf-1" vertex="1">
          <mxGeometry x="1032.5" y="2060" width="110" height="50" as="geometry" />
        </mxCell>
        <mxCell id="4Dr7qYJyZsWA0C1EVG_1-95" value="&lt;b&gt;MAR&lt;/b&gt;" style="html=1;fontSize=12;fillColor=none;" parent="h1eI_nPeraRx3KmiK-lf-1" vertex="1">
          <mxGeometry x="902.5" y="2060" width="110" height="50" as="geometry" />
        </mxCell>
        <mxCell id="4Dr7qYJyZsWA0C1EVG_1-96" value="&lt;b&gt;ACC&lt;/b&gt;" style="html=1;fontSize=12;fillColor=none;" parent="h1eI_nPeraRx3KmiK-lf-1" vertex="1">
          <mxGeometry x="1162.5" y="2060" width="110" height="50" as="geometry" />
        </mxCell>
        <mxCell id="4Dr7qYJyZsWA0C1EVG_1-97" value="&lt;b&gt;REP&lt;/b&gt;" style="html=1;fontSize=12;fillColor=none;" parent="h1eI_nPeraRx3KmiK-lf-1" vertex="1">
          <mxGeometry x="1424.5" y="2060" width="110" height="50" as="geometry" />
        </mxCell>
        <mxCell id="4Dr7qYJyZsWA0C1EVG_1-98" value="&lt;b&gt;REF&lt;/b&gt;" style="html=1;fontSize=12;fillColor=none;" parent="h1eI_nPeraRx3KmiK-lf-1" vertex="1">
          <mxGeometry x="1292.5" y="2060" width="110" height="50" as="geometry" />
        </mxCell>
        <mxCell id="4Dr7qYJyZsWA0C1EVG_1-99" value="&lt;b&gt;Header&lt;/b&gt;" style="html=1;fontSize=12;fillColor=none;" parent="h1eI_nPeraRx3KmiK-lf-1" vertex="1">
          <mxGeometry x="1294.5" y="1940" width="110" height="50" as="geometry" />
        </mxCell>
        <mxCell id="4Dr7qYJyZsWA0C1EVG_1-100" value="«enumeration»&lt;br&gt;&lt;b&gt;MessageType&lt;/b&gt;" style="html=1;fontSize=12;fillColor=none;" parent="h1eI_nPeraRx3KmiK-lf-1" vertex="1">
          <mxGeometry x="1492.5" y="1940" width="110" height="50" as="geometry" />
        </mxCell>
        <mxCell id="4Dr7qYJyZsWA0C1EVG_1-101" value="«enumeration»&lt;br&gt;&lt;b&gt;CapabilityItemType&lt;/b&gt;" style="html=1;fontSize=12;fillColor=none;" parent="h1eI_nPeraRx3KmiK-lf-1" vertex="1">
          <mxGeometry x="525.88" y="2067.96" width="160.12" height="50" as="geometry" />
        </mxCell>
        <mxCell id="4Dr7qYJyZsWA0C1EVG_1-102" value="«file»&lt;br&gt;&lt;b&gt;identity.h&lt;/b&gt;" style="html=1;fontSize=12;fillColor=#FFCC99;" parent="h1eI_nPeraRx3KmiK-lf-1" vertex="1">
          <mxGeometry x="872.5" y="1560" width="110" height="50" as="geometry" />
        </mxCell>
        <mxCell id="4Dr7qYJyZsWA0C1EVG_1-103" value="«file»&lt;br&gt;&lt;b&gt;neighboring.h&lt;/b&gt;" style="html=1;fontSize=12;fillColor=#FFCC99;" parent="h1eI_nPeraRx3KmiK-lf-1" vertex="1">
          <mxGeometry x="872.5" y="1670" width="110" height="50" as="geometry" />
        </mxCell>
        <mxCell id="4Dr7qYJyZsWA0C1EVG_1-104" value="«file»&lt;br&gt;&lt;b&gt;messaging.h&lt;/b&gt;" style="html=1;fontSize=12;fillColor=#FFCC99;" parent="h1eI_nPeraRx3KmiK-lf-1" vertex="1">
          <mxGeometry x="1294.5" y="1810" width="110" height="50" as="geometry" />
        </mxCell>
        <mxCell id="4Dr7qYJyZsWA0C1EVG_1-105" value="«file»&lt;br&gt;&lt;b&gt;marshalling.h&lt;/b&gt;" style="html=1;fontSize=12;fillColor=#FFCC99;" parent="h1eI_nPeraRx3KmiK-lf-1" vertex="1">
          <mxGeometry x="1052.5" y="1654" width="110" height="50" as="geometry" />
        </mxCell>
        <mxCell id="4Dr7qYJyZsWA0C1EVG_1-106" value="«file»&lt;br&gt;&lt;b&gt;validation.h&lt;/b&gt;" style="html=1;fontSize=12;fillColor=#FFCC99;" parent="h1eI_nPeraRx3KmiK-lf-1" vertex="1">
          <mxGeometry x="1359.5" y="1390" width="110" height="50" as="geometry" />
        </mxCell>
        <mxCell id="4Dr7qYJyZsWA0C1EVG_1-107" value="«file»&lt;br&gt;&lt;b&gt;transformation.h&lt;/b&gt;" style="html=1;fontSize=12;fillColor=#FFCC99;" parent="h1eI_nPeraRx3KmiK-lf-1" vertex="1">
          <mxGeometry x="1359.5" y="1610" width="110" height="50" as="geometry" />
        </mxCell>
        <mxCell id="4Dr7qYJyZsWA0C1EVG_1-108" value="«file»&lt;br&gt;&lt;b&gt;serialization.h&lt;/b&gt;" style="html=1;fontSize=12;fillColor=#FFCC99;" parent="h1eI_nPeraRx3KmiK-lf-1" vertex="1">
          <mxGeometry x="1359.5" y="1500" width="110" height="50" as="geometry" />
        </mxCell>
        <mxCell id="4Dr7qYJyZsWA0C1EVG_1-109" value="«file»&lt;br&gt;&lt;b&gt;yang.h&lt;/b&gt;" style="html=1;fontSize=12;fillColor=#FFCC99;" parent="h1eI_nPeraRx3KmiK-lf-1" vertex="1">
          <mxGeometry x="1359.5" y="1310" width="110" height="50" as="geometry" />
        </mxCell>
        <mxCell id="4Dr7qYJyZsWA0C1EVG_1-110" value="" style="endArrow=diamondThin;endFill=1;endSize=12;html=1;rounded=0;fontSize=12;" parent="h1eI_nPeraRx3KmiK-lf-1" source="4Dr7qYJyZsWA0C1EVG_1-99" target="4Dr7qYJyZsWA0C1EVG_1-92" edge="1">
          <mxGeometry width="160" relative="1" as="geometry">
            <mxPoint x="1032.5" y="2070" as="sourcePoint" />
            <mxPoint x="1032.5" y="2020" as="targetPoint" />
          </mxGeometry>
        </mxCell>
        <mxCell id="4Dr7qYJyZsWA0C1EVG_1-111" value="1" style="edgeLabel;html=1;align=center;verticalAlign=middle;resizable=0;points=[];fontSize=12;" parent="4Dr7qYJyZsWA0C1EVG_1-110" vertex="1" connectable="0">
          <mxGeometry x="-0.8195" y="-2" relative="1" as="geometry">
            <mxPoint x="-11" y="-5" as="offset" />
          </mxGeometry>
        </mxCell>
        <mxCell id="4Dr7qYJyZsWA0C1EVG_1-112" value="1" style="edgeLabel;html=1;align=center;verticalAlign=middle;resizable=0;points=[];fontSize=12;" parent="4Dr7qYJyZsWA0C1EVG_1-110" vertex="1" connectable="0">
          <mxGeometry x="0.6723" y="-1" relative="1" as="geometry">
            <mxPoint x="6" y="6" as="offset" />
          </mxGeometry>
        </mxCell>
        <mxCell id="4Dr7qYJyZsWA0C1EVG_1-113" value="" style="endArrow=diamondThin;endFill=1;endSize=12;html=1;rounded=0;fontSize=12;" parent="h1eI_nPeraRx3KmiK-lf-1" source="4Dr7qYJyZsWA0C1EVG_1-100" target="4Dr7qYJyZsWA0C1EVG_1-99" edge="1">
          <mxGeometry width="160" relative="1" as="geometry">
            <mxPoint x="1304.5" y="1975" as="sourcePoint" />
            <mxPoint x="1217.5" y="1975" as="targetPoint" />
          </mxGeometry>
        </mxCell>
        <mxCell id="4Dr7qYJyZsWA0C1EVG_1-114" value="1" style="edgeLabel;html=1;align=center;verticalAlign=middle;resizable=0;points=[];fontSize=12;" parent="4Dr7qYJyZsWA0C1EVG_1-113" vertex="1" connectable="0">
          <mxGeometry x="-0.8195" y="-2" relative="1" as="geometry">
            <mxPoint x="-11" y="-5" as="offset" />
          </mxGeometry>
        </mxCell>
        <mxCell id="4Dr7qYJyZsWA0C1EVG_1-115" value="1" style="edgeLabel;html=1;align=center;verticalAlign=middle;resizable=0;points=[];fontSize=12;" parent="4Dr7qYJyZsWA0C1EVG_1-113" vertex="1" connectable="0">
          <mxGeometry x="0.6723" y="-1" relative="1" as="geometry">
            <mxPoint x="6" y="6" as="offset" />
          </mxGeometry>
        </mxCell>
        <mxCell id="4Dr7qYJyZsWA0C1EVG_1-117" value="" style="endArrow=blockThin;endFill=0;endSize=12;html=1;rounded=0;fontSize=12;" parent="h1eI_nPeraRx3KmiK-lf-1" source="4Dr7qYJyZsWA0C1EVG_1-93" target="4Dr7qYJyZsWA0C1EVG_1-92" edge="1">
          <mxGeometry width="160" relative="1" as="geometry">
            <mxPoint x="1304.5" y="1975" as="sourcePoint" />
            <mxPoint x="1217.5" y="1975" as="targetPoint" />
          </mxGeometry>
        </mxCell>
        <mxCell id="4Dr7qYJyZsWA0C1EVG_1-120" value="" style="endArrow=blockThin;endFill=0;endSize=12;html=1;rounded=0;fontSize=12;" parent="h1eI_nPeraRx3KmiK-lf-1" source="4Dr7qYJyZsWA0C1EVG_1-95" target="4Dr7qYJyZsWA0C1EVG_1-92" edge="1">
          <mxGeometry width="160" relative="1" as="geometry">
            <mxPoint x="880.2631578947369" y="2140" as="sourcePoint" />
            <mxPoint x="1119.736842105263" y="2000" as="targetPoint" />
          </mxGeometry>
        </mxCell>
        <mxCell id="4Dr7qYJyZsWA0C1EVG_1-121" value="" style="endArrow=blockThin;endFill=0;endSize=12;html=1;rounded=0;fontSize=12;" parent="h1eI_nPeraRx3KmiK-lf-1" source="4Dr7qYJyZsWA0C1EVG_1-94" target="4Dr7qYJyZsWA0C1EVG_1-92" edge="1">
          <mxGeometry width="160" relative="1" as="geometry">
            <mxPoint x="993.1578947368419" y="2140" as="sourcePoint" />
            <mxPoint x="1136.842105263158" y="2000" as="targetPoint" />
          </mxGeometry>
        </mxCell>
        <mxCell id="4Dr7qYJyZsWA0C1EVG_1-122" value="" style="endArrow=blockThin;endFill=0;endSize=12;html=1;rounded=0;fontSize=12;" parent="h1eI_nPeraRx3KmiK-lf-1" source="4Dr7qYJyZsWA0C1EVG_1-96" target="4Dr7qYJyZsWA0C1EVG_1-92" edge="1">
          <mxGeometry width="160" relative="1" as="geometry">
            <mxPoint x="1003.1578947368419" y="2150" as="sourcePoint" />
            <mxPoint x="1146.842105263158" y="2010" as="targetPoint" />
          </mxGeometry>
        </mxCell>
        <mxCell id="4Dr7qYJyZsWA0C1EVG_1-123" value="" style="endArrow=blockThin;endFill=0;endSize=12;html=1;rounded=0;fontSize=12;" parent="h1eI_nPeraRx3KmiK-lf-1" source="4Dr7qYJyZsWA0C1EVG_1-98" target="4Dr7qYJyZsWA0C1EVG_1-92" edge="1">
          <mxGeometry width="160" relative="1" as="geometry">
            <mxPoint x="1013.1578947368419" y="2160" as="sourcePoint" />
            <mxPoint x="1156.842105263158" y="2020" as="targetPoint" />
          </mxGeometry>
        </mxCell>
        <mxCell id="4Dr7qYJyZsWA0C1EVG_1-124" value="" style="endArrow=blockThin;endFill=0;endSize=12;html=1;rounded=0;fontSize=12;" parent="h1eI_nPeraRx3KmiK-lf-1" source="4Dr7qYJyZsWA0C1EVG_1-97" target="4Dr7qYJyZsWA0C1EVG_1-92" edge="1">
          <mxGeometry width="160" relative="1" as="geometry">
            <mxPoint x="1023.1578947368419" y="2170" as="sourcePoint" />
            <mxPoint x="1166.842105263158" y="2030" as="targetPoint" />
          </mxGeometry>
        </mxCell>
        <mxCell id="4Dr7qYJyZsWA0C1EVG_1-126" value="" style="endArrow=diamondThin;endFill=1;endSize=12;html=1;rounded=0;fontSize=12;" parent="h1eI_nPeraRx3KmiK-lf-1" source="4Dr7qYJyZsWA0C1EVG_1-101" target="4Dr7qYJyZsWA0C1EVG_1-91" edge="1">
          <mxGeometry width="160" relative="1" as="geometry">
            <mxPoint x="512.5" y="2100" as="sourcePoint" />
            <mxPoint x="425.5" y="2100" as="targetPoint" />
          </mxGeometry>
        </mxCell>
        <mxCell id="4Dr7qYJyZsWA0C1EVG_1-127" value="1" style="edgeLabel;html=1;align=center;verticalAlign=middle;resizable=0;points=[];fontSize=12;" parent="4Dr7qYJyZsWA0C1EVG_1-126" vertex="1" connectable="0">
          <mxGeometry x="-0.8195" y="-2" relative="1" as="geometry">
            <mxPoint x="-11" y="-5" as="offset" />
          </mxGeometry>
        </mxCell>
        <mxCell id="4Dr7qYJyZsWA0C1EVG_1-128" value="1" style="edgeLabel;html=1;align=center;verticalAlign=middle;resizable=0;points=[];fontSize=12;" parent="4Dr7qYJyZsWA0C1EVG_1-126" vertex="1" connectable="0">
          <mxGeometry x="0.6723" y="-1" relative="1" as="geometry">
            <mxPoint x="6" y="6" as="offset" />
          </mxGeometry>
        </mxCell>
        <mxCell id="4Dr7qYJyZsWA0C1EVG_1-130" value="" style="endArrow=blockThin;endFill=0;endSize=12;html=1;rounded=0;fontSize=12;" parent="h1eI_nPeraRx3KmiK-lf-1" source="4Dr7qYJyZsWA0C1EVG_1-89" target="4Dr7qYJyZsWA0C1EVG_1-91" edge="1">
          <mxGeometry width="160" relative="1" as="geometry">
            <mxPoint x="502.5031578947369" y="2140" as="sourcePoint" />
            <mxPoint x="741.9768421052629" y="2000" as="targetPoint" />
          </mxGeometry>
        </mxCell>
        <mxCell id="4Dr7qYJyZsWA0C1EVG_1-131" value="" style="endArrow=blockThin;endFill=0;endSize=12;html=1;rounded=0;fontSize=12;" parent="h1eI_nPeraRx3KmiK-lf-1" source="4Dr7qYJyZsWA0C1EVG_1-90" target="4Dr7qYJyZsWA0C1EVG_1-91" edge="1">
          <mxGeometry width="160" relative="1" as="geometry">
            <mxPoint x="327.2550000000001" y="1990" as="sourcePoint" />
            <mxPoint x="365.5050000000001" y="1960" as="targetPoint" />
          </mxGeometry>
        </mxCell>
        <mxCell id="4Dr7qYJyZsWA0C1EVG_1-132" value="" style="endArrow=diamondThin;endFill=1;endSize=12;html=1;rounded=0;fontSize=12;dashed=1;strokeColor=#808080;" parent="h1eI_nPeraRx3KmiK-lf-1" source="4Dr7qYJyZsWA0C1EVG_1-85" target="4Dr7qYJyZsWA0C1EVG_1-80" edge="1">
          <mxGeometry width="160" relative="1" as="geometry">
            <mxPoint x="636" y="1925" as="sourcePoint" />
            <mxPoint x="545.8800000000001" y="1925" as="targetPoint" />
          </mxGeometry>
        </mxCell>
        <mxCell id="4Dr7qYJyZsWA0C1EVG_1-135" value="" style="endArrow=diamondThin;endFill=1;endSize=12;html=1;rounded=0;fontSize=12;" parent="h1eI_nPeraRx3KmiK-lf-1" source="4Dr7qYJyZsWA0C1EVG_1-85" target="4Dr7qYJyZsWA0C1EVG_1-57" edge="1">
          <mxGeometry width="160" relative="1" as="geometry">
            <mxPoint x="491" y="1760" as="sourcePoint" />
            <mxPoint x="491" y="1710" as="targetPoint" />
          </mxGeometry>
        </mxCell>
        <mxCell id="4Dr7qYJyZsWA0C1EVG_1-136" value="N" style="edgeLabel;html=1;align=center;verticalAlign=middle;resizable=0;points=[];fontSize=12;" parent="4Dr7qYJyZsWA0C1EVG_1-135" vertex="1" connectable="0">
          <mxGeometry x="-0.8195" y="-2" relative="1" as="geometry">
            <mxPoint x="-11" y="-5" as="offset" />
          </mxGeometry>
        </mxCell>
        <mxCell id="4Dr7qYJyZsWA0C1EVG_1-137" value="1" style="edgeLabel;html=1;align=center;verticalAlign=middle;resizable=0;points=[];fontSize=12;" parent="4Dr7qYJyZsWA0C1EVG_1-135" vertex="1" connectable="0">
          <mxGeometry x="0.6723" y="-1" relative="1" as="geometry">
            <mxPoint x="6" y="6" as="offset" />
          </mxGeometry>
        </mxCell>
        <mxCell id="4Dr7qYJyZsWA0C1EVG_1-138" value="" style="endArrow=diamondThin;endFill=1;endSize=12;html=1;rounded=0;fontSize=12;" parent="h1eI_nPeraRx3KmiK-lf-1" source="4Dr7qYJyZsWA0C1EVG_1-88" target="4Dr7qYJyZsWA0C1EVG_1-85" edge="1">
          <mxGeometry width="160" relative="1" as="geometry">
            <mxPoint x="542.5" y="1935" as="sourcePoint" />
            <mxPoint x="452.3800000000001" y="1935" as="targetPoint" />
          </mxGeometry>
        </mxCell>
        <mxCell id="4Dr7qYJyZsWA0C1EVG_1-139" value="1" style="edgeLabel;html=1;align=center;verticalAlign=middle;resizable=0;points=[];fontSize=12;" parent="4Dr7qYJyZsWA0C1EVG_1-138" vertex="1" connectable="0">
          <mxGeometry x="-0.8195" y="-2" relative="1" as="geometry">
            <mxPoint y="-14" as="offset" />
          </mxGeometry>
        </mxCell>
        <mxCell id="4Dr7qYJyZsWA0C1EVG_1-140" value="1" style="edgeLabel;html=1;align=center;verticalAlign=middle;resizable=0;points=[];fontSize=12;" parent="4Dr7qYJyZsWA0C1EVG_1-138" vertex="1" connectable="0">
          <mxGeometry x="0.6723" y="-1" relative="1" as="geometry">
            <mxPoint x="1" y="14" as="offset" />
          </mxGeometry>
        </mxCell>
        <mxCell id="4Dr7qYJyZsWA0C1EVG_1-141" value="" style="endArrow=diamondThin;endFill=1;endSize=12;html=1;rounded=0;fontSize=12;" parent="h1eI_nPeraRx3KmiK-lf-1" source="4Dr7qYJyZsWA0C1EVG_1-87" target="4Dr7qYJyZsWA0C1EVG_1-80" edge="1">
          <mxGeometry width="160" relative="1" as="geometry">
            <mxPoint x="491" y="1760" as="sourcePoint" />
            <mxPoint x="472.5" y="1800" as="targetPoint" />
          </mxGeometry>
        </mxCell>
        <mxCell id="4Dr7qYJyZsWA0C1EVG_1-142" value="1" style="edgeLabel;html=1;align=center;verticalAlign=middle;resizable=0;points=[];fontSize=12;" parent="4Dr7qYJyZsWA0C1EVG_1-141" vertex="1" connectable="0">
          <mxGeometry x="-0.8195" y="-2" relative="1" as="geometry">
            <mxPoint x="-11" y="-5" as="offset" />
          </mxGeometry>
        </mxCell>
        <mxCell id="4Dr7qYJyZsWA0C1EVG_1-143" value="1" style="edgeLabel;html=1;align=center;verticalAlign=middle;resizable=0;points=[];fontSize=12;" parent="4Dr7qYJyZsWA0C1EVG_1-141" vertex="1" connectable="0">
          <mxGeometry x="0.6723" y="-1" relative="1" as="geometry">
            <mxPoint x="6" y="6" as="offset" />
          </mxGeometry>
        </mxCell>
        <mxCell id="4Dr7qYJyZsWA0C1EVG_1-144" value="" style="endArrow=diamondThin;endFill=1;endSize=12;html=1;rounded=0;fontSize=12;" parent="h1eI_nPeraRx3KmiK-lf-1" source="4Dr7qYJyZsWA0C1EVG_1-86" target="4Dr7qYJyZsWA0C1EVG_1-80" edge="1">
          <mxGeometry width="160" relative="1" as="geometry">
            <mxPoint x="426.47727272727275" y="1870" as="sourcePoint" />
            <mxPoint x="472.02272727272725" y="1810" as="targetPoint" />
          </mxGeometry>
        </mxCell>
        <mxCell id="4Dr7qYJyZsWA0C1EVG_1-145" value="1" style="edgeLabel;html=1;align=center;verticalAlign=middle;resizable=0;points=[];fontSize=12;" parent="4Dr7qYJyZsWA0C1EVG_1-144" vertex="1" connectable="0">
          <mxGeometry x="-0.8195" y="-2" relative="1" as="geometry">
            <mxPoint x="10" y="-2" as="offset" />
          </mxGeometry>
        </mxCell>
        <mxCell id="4Dr7qYJyZsWA0C1EVG_1-146" value="1" style="edgeLabel;html=1;align=center;verticalAlign=middle;resizable=0;points=[];fontSize=12;" parent="4Dr7qYJyZsWA0C1EVG_1-144" vertex="1" connectable="0">
          <mxGeometry x="0.6723" y="-1" relative="1" as="geometry">
            <mxPoint x="11" y="1" as="offset" />
          </mxGeometry>
        </mxCell>
        <mxCell id="4Dr7qYJyZsWA0C1EVG_1-147" value="" style="endArrow=diamondThin;endFill=1;endSize=12;html=1;rounded=0;fontSize=12;" parent="h1eI_nPeraRx3KmiK-lf-1" source="4Dr7qYJyZsWA0C1EVG_1-92" target="4Dr7qYJyZsWA0C1EVG_1-80" edge="1">
          <mxGeometry width="160" relative="1" as="geometry">
            <mxPoint x="557.840909090909" y="1870" as="sourcePoint" />
            <mxPoint x="510.659090909091" y="1810" as="targetPoint" />
          </mxGeometry>
        </mxCell>
        <mxCell id="4Dr7qYJyZsWA0C1EVG_1-148" value="1" style="edgeLabel;html=1;align=center;verticalAlign=middle;resizable=0;points=[];fontSize=12;" parent="4Dr7qYJyZsWA0C1EVG_1-147" vertex="1" connectable="0">
          <mxGeometry x="-0.8195" y="-2" relative="1" as="geometry">
            <mxPoint x="39" as="offset" />
          </mxGeometry>
        </mxCell>
        <mxCell id="4Dr7qYJyZsWA0C1EVG_1-149" value="1" style="edgeLabel;html=1;align=center;verticalAlign=middle;resizable=0;points=[];fontSize=12;" parent="4Dr7qYJyZsWA0C1EVG_1-147" vertex="1" connectable="0">
          <mxGeometry x="0.6723" y="-1" relative="1" as="geometry">
            <mxPoint x="-74" y="-10" as="offset" />
          </mxGeometry>
        </mxCell>
        <mxCell id="4Dr7qYJyZsWA0C1EVG_1-150" value="" style="endArrow=diamondThin;endFill=1;endSize=12;html=1;rounded=0;fontSize=12;dashed=1;strokeColor=#808080;" parent="h1eI_nPeraRx3KmiK-lf-1" source="4Dr7qYJyZsWA0C1EVG_1-57" target="4Dr7qYJyZsWA0C1EVG_1-80" edge="1">
          <mxGeometry width="160" relative="1" as="geometry">
            <mxPoint x="326" y="1785" as="sourcePoint" />
            <mxPoint x="436" y="1785" as="targetPoint" />
          </mxGeometry>
        </mxCell>
        <mxCell id="4Dr7qYJyZsWA0C1EVG_1-151" value="" style="endArrow=diamondThin;endFill=1;endSize=12;html=1;rounded=0;fontSize=12;" parent="h1eI_nPeraRx3KmiK-lf-1" source="4Dr7qYJyZsWA0C1EVG_1-89" target="4Dr7qYJyZsWA0C1EVG_1-57" edge="1">
          <mxGeometry width="160" relative="1" as="geometry">
            <mxPoint x="271" y="1760" as="sourcePoint" />
            <mxPoint x="271" y="1710" as="targetPoint" />
          </mxGeometry>
        </mxCell>
        <mxCell id="4Dr7qYJyZsWA0C1EVG_1-152" value="1" style="edgeLabel;html=1;align=center;verticalAlign=middle;resizable=0;points=[];fontSize=12;" parent="4Dr7qYJyZsWA0C1EVG_1-151" vertex="1" connectable="0">
          <mxGeometry x="-0.8195" y="-2" relative="1" as="geometry">
            <mxPoint x="-11" y="25" as="offset" />
          </mxGeometry>
        </mxCell>
        <mxCell id="4Dr7qYJyZsWA0C1EVG_1-153" value="1" style="edgeLabel;html=1;align=center;verticalAlign=middle;resizable=0;points=[];fontSize=12;" parent="4Dr7qYJyZsWA0C1EVG_1-151" vertex="1" connectable="0">
          <mxGeometry x="0.6723" y="-1" relative="1" as="geometry">
            <mxPoint x="6" y="-51" as="offset" />
          </mxGeometry>
        </mxCell>
        <mxCell id="4Dr7qYJyZsWA0C1EVG_1-154" value="" style="endArrow=diamondThin;endFill=1;endSize=12;html=1;rounded=0;fontSize=12;dashed=1;strokeColor=#808080;" parent="h1eI_nPeraRx3KmiK-lf-1" source="4Dr7qYJyZsWA0C1EVG_1-80" target="4Dr7qYJyZsWA0C1EVG_1-73" edge="1">
          <mxGeometry width="160" relative="1" as="geometry">
            <mxPoint x="512.5" y="1775" as="sourcePoint" />
            <mxPoint x="436" y="1785" as="targetPoint" />
          </mxGeometry>
        </mxCell>
        <mxCell id="4Dr7qYJyZsWA0C1EVG_1-155" value="" style="endArrow=diamondThin;endFill=1;endSize=12;html=1;rounded=0;fontSize=12;" parent="h1eI_nPeraRx3KmiK-lf-1" source="4Dr7qYJyZsWA0C1EVG_1-90" target="4Dr7qYJyZsWA0C1EVG_1-93" edge="1">
          <mxGeometry width="160" relative="1" as="geometry">
            <mxPoint x="426.47727272727275" y="1870" as="sourcePoint" />
            <mxPoint x="472.02272727272725" y="1810" as="targetPoint" />
            <Array as="points">
              <mxPoint x="662.5" y="2020" />
              <mxPoint x="827.5" y="2020" />
            </Array>
          </mxGeometry>
        </mxCell>
        <mxCell id="4Dr7qYJyZsWA0C1EVG_1-156" value="1" style="edgeLabel;html=1;align=center;verticalAlign=middle;resizable=0;points=[];fontSize=12;" parent="4Dr7qYJyZsWA0C1EVG_1-155" vertex="1" connectable="0">
          <mxGeometry x="-0.8195" y="-2" relative="1" as="geometry">
            <mxPoint x="-18" y="6" as="offset" />
          </mxGeometry>
        </mxCell>
        <mxCell id="4Dr7qYJyZsWA0C1EVG_1-157" value="1" style="edgeLabel;html=1;align=center;verticalAlign=middle;resizable=0;points=[];fontSize=12;" parent="4Dr7qYJyZsWA0C1EVG_1-155" vertex="1" connectable="0">
          <mxGeometry x="0.6723" y="-1" relative="1" as="geometry">
            <mxPoint x="19" y="24" as="offset" />
          </mxGeometry>
        </mxCell>
        <mxCell id="4Dr7qYJyZsWA0C1EVG_1-158" value="" style="endArrow=diamondThin;endFill=1;endSize=12;html=1;rounded=0;fontSize=12;" parent="h1eI_nPeraRx3KmiK-lf-1" source="4Dr7qYJyZsWA0C1EVG_1-90" target="4Dr7qYJyZsWA0C1EVG_1-95" edge="1">
          <mxGeometry width="160" relative="1" as="geometry">
            <mxPoint x="578.76" y="1988.7898399952767" as="sourcePoint" />
            <mxPoint x="902.5" y="1940.0001501898707" as="targetPoint" />
            <Array as="points">
              <mxPoint x="957.5" y="1993" />
            </Array>
          </mxGeometry>
        </mxCell>
        <mxCell id="4Dr7qYJyZsWA0C1EVG_1-159" value="1" style="edgeLabel;html=1;align=center;verticalAlign=middle;resizable=0;points=[];fontSize=12;" parent="4Dr7qYJyZsWA0C1EVG_1-158" vertex="1" connectable="0">
          <mxGeometry x="-0.8195" y="-2" relative="1" as="geometry">
            <mxPoint x="-4" y="6" as="offset" />
          </mxGeometry>
        </mxCell>
        <mxCell id="4Dr7qYJyZsWA0C1EVG_1-160" value="1" style="edgeLabel;html=1;align=center;verticalAlign=middle;resizable=0;points=[];fontSize=12;" parent="4Dr7qYJyZsWA0C1EVG_1-158" vertex="1" connectable="0">
          <mxGeometry x="0.6723" y="-1" relative="1" as="geometry">
            <mxPoint x="20" y="52" as="offset" />
          </mxGeometry>
        </mxCell>
        <mxCell id="4Dr7qYJyZsWA0C1EVG_1-161" value="" style="endArrow=diamondThin;endFill=1;endSize=12;html=1;rounded=0;fontSize=12;" parent="h1eI_nPeraRx3KmiK-lf-1" source="4Dr7qYJyZsWA0C1EVG_1-90" target="4Dr7qYJyZsWA0C1EVG_1-85" edge="1">
          <mxGeometry width="160" relative="1" as="geometry">
            <mxPoint x="426.47727272727275" y="1870" as="sourcePoint" />
            <mxPoint x="472.02272727272725" y="1810" as="targetPoint" />
            <Array as="points">
              <mxPoint x="292.5" y="1930" />
            </Array>
          </mxGeometry>
        </mxCell>
        <mxCell id="4Dr7qYJyZsWA0C1EVG_1-162" value="1" style="edgeLabel;html=1;align=center;verticalAlign=middle;resizable=0;points=[];fontSize=12;" parent="4Dr7qYJyZsWA0C1EVG_1-161" vertex="1" connectable="0">
          <mxGeometry x="-0.8195" y="-2" relative="1" as="geometry">
            <mxPoint x="14" y="18" as="offset" />
          </mxGeometry>
        </mxCell>
        <mxCell id="4Dr7qYJyZsWA0C1EVG_1-163" value="1" style="edgeLabel;html=1;align=center;verticalAlign=middle;resizable=0;points=[];fontSize=12;" parent="4Dr7qYJyZsWA0C1EVG_1-161" vertex="1" connectable="0">
          <mxGeometry x="0.6723" y="-1" relative="1" as="geometry">
            <mxPoint x="-13" y="-23" as="offset" />
          </mxGeometry>
        </mxCell>
        <mxCell id="4Dr7qYJyZsWA0C1EVG_1-164" value="" style="endArrow=diamondThin;endFill=1;endSize=12;html=1;rounded=0;fontSize=12;dashed=1;strokeColor=#808080;" parent="h1eI_nPeraRx3KmiK-lf-1" source="4Dr7qYJyZsWA0C1EVG_1-59" target="4Dr7qYJyZsWA0C1EVG_1-58" edge="1">
          <mxGeometry width="160" relative="1" as="geometry">
            <mxPoint x="326" y="1710" as="sourcePoint" />
            <mxPoint x="436" y="1760" as="targetPoint" />
          </mxGeometry>
        </mxCell>
        <mxCell id="4Dr7qYJyZsWA0C1EVG_1-165" value="" style="endArrow=openThin;endFill=0;endSize=12;html=1;rounded=0;fontSize=12;dashed=1;strokeColor=#994C00;" parent="h1eI_nPeraRx3KmiK-lf-1" source="4Dr7qYJyZsWA0C1EVG_1-80" target="4Dr7qYJyZsWA0C1EVG_1-103" edge="1">
          <mxGeometry width="160" relative="1" as="geometry">
            <mxPoint x="862.5" y="1700" as="sourcePoint" />
            <mxPoint x="972.5" y="1650" as="targetPoint" />
            <Array as="points">
              <mxPoint x="612.5" y="1730" />
              <mxPoint x="822.5" y="1730" />
            </Array>
          </mxGeometry>
        </mxCell>
        <mxCell id="4Dr7qYJyZsWA0C1EVG_1-166" value="" style="endArrow=openThin;endFill=0;endSize=12;html=1;rounded=0;fontSize=12;dashed=1;strokeColor=#994C00;" parent="h1eI_nPeraRx3KmiK-lf-1" source="4Dr7qYJyZsWA0C1EVG_1-80" target="4Dr7qYJyZsWA0C1EVG_1-102" edge="1">
          <mxGeometry width="160" relative="1" as="geometry">
            <mxPoint x="546" y="1766.1787072243346" as="sourcePoint" />
            <mxPoint x="882.5" y="1737.6190476190475" as="targetPoint" />
            <Array as="points">
              <mxPoint x="622.5" y="1630" />
              <mxPoint x="822.5" y="1630" />
            </Array>
          </mxGeometry>
        </mxCell>
        <mxCell id="4Dr7qYJyZsWA0C1EVG_1-168" value="" style="endArrow=openThin;endFill=0;endSize=12;html=1;rounded=0;fontSize=12;dashed=1;strokeColor=#994C00;" parent="h1eI_nPeraRx3KmiK-lf-1" source="4Dr7qYJyZsWA0C1EVG_1-105" target="4Dr7qYJyZsWA0C1EVG_1-108" edge="1">
          <mxGeometry width="160" relative="1" as="geometry">
            <mxPoint x="1072.5" y="1778.5587072243347" as="sourcePoint" />
            <mxPoint x="1409" y="1749.9990476190476" as="targetPoint" />
            <Array as="points" />
          </mxGeometry>
        </mxCell>
        <mxCell id="4Dr7qYJyZsWA0C1EVG_1-169" value="" style="endArrow=openThin;endFill=0;endSize=12;html=1;rounded=0;fontSize=12;dashed=1;strokeColor=#994C00;" parent="h1eI_nPeraRx3KmiK-lf-1" source="4Dr7qYJyZsWA0C1EVG_1-105" target="4Dr7qYJyZsWA0C1EVG_1-107" edge="1">
          <mxGeometry width="160" relative="1" as="geometry">
            <mxPoint x="1192.5" y="1642.5" as="sourcePoint" />
            <mxPoint x="1302.5" y="1637.5" as="targetPoint" />
            <Array as="points" />
          </mxGeometry>
        </mxCell>
        <mxCell id="4Dr7qYJyZsWA0C1EVG_1-170" value="" style="endArrow=openThin;endFill=0;endSize=12;html=1;rounded=0;fontSize=12;dashed=1;strokeColor=#994C00;" parent="h1eI_nPeraRx3KmiK-lf-1" source="4Dr7qYJyZsWA0C1EVG_1-105" target="4Dr7qYJyZsWA0C1EVG_1-106" edge="1">
          <mxGeometry width="160" relative="1" as="geometry">
            <mxPoint x="1202.5" y="1652.5" as="sourcePoint" />
            <mxPoint x="1312.5" y="1647.5" as="targetPoint" />
            <Array as="points" />
          </mxGeometry>
        </mxCell>
        <mxCell id="4Dr7qYJyZsWA0C1EVG_1-171" value="" style="endArrow=openThin;endFill=0;endSize=12;html=1;rounded=0;fontSize=12;dashed=1;strokeColor=#994C00;" parent="h1eI_nPeraRx3KmiK-lf-1" source="4Dr7qYJyZsWA0C1EVG_1-106" target="4Dr7qYJyZsWA0C1EVG_1-109" edge="1">
          <mxGeometry width="160" relative="1" as="geometry">
            <mxPoint x="1212.5" y="1662.5" as="sourcePoint" />
            <mxPoint x="1322.5" y="1657.5" as="targetPoint" />
            <Array as="points" />
          </mxGeometry>
        </mxCell>
        <mxCell id="4Dr7qYJyZsWA0C1EVG_1-172" value="" style="endArrow=openThin;endFill=0;endSize=12;html=1;rounded=0;fontSize=12;dashed=1;strokeColor=#994C00;" parent="h1eI_nPeraRx3KmiK-lf-1" source="4Dr7qYJyZsWA0C1EVG_1-104" target="4Dr7qYJyZsWA0C1EVG_1-90" edge="1">
          <mxGeometry width="160" relative="1" as="geometry">
            <mxPoint x="1347.5" y="1445" as="sourcePoint" />
            <mxPoint x="1082.5" y="1760" as="targetPoint" />
            <Array as="points">
              <mxPoint x="962.5" y="1840" />
              <mxPoint x="782.5" y="1950" />
            </Array>
          </mxGeometry>
        </mxCell>
        <mxCell id="4Dr7qYJyZsWA0C1EVG_1-173" value="" style="endArrow=openThin;endFill=0;endSize=12;html=1;rounded=0;fontSize=12;dashed=1;strokeColor=#994C00;" parent="h1eI_nPeraRx3KmiK-lf-1" source="4Dr7qYJyZsWA0C1EVG_1-105" target="4Dr7qYJyZsWA0C1EVG_1-90" edge="1">
          <mxGeometry width="160" relative="1" as="geometry">
            <mxPoint x="1357.5" y="1455" as="sourcePoint" />
            <mxPoint x="1412.5" y="1455" as="targetPoint" />
            <Array as="points" />
          </mxGeometry>
        </mxCell>
        <mxCell id="4Dr7qYJyZsWA0C1EVG_1-174" value="" style="endArrow=openThin;endFill=0;endSize=12;html=1;rounded=0;fontSize=12;dashed=1;strokeColor=#994C00;" parent="h1eI_nPeraRx3KmiK-lf-1" source="4Dr7qYJyZsWA0C1EVG_1-93" target="4Dr7qYJyZsWA0C1EVG_1-105" edge="1">
          <mxGeometry width="160" relative="1" as="geometry">
            <mxPoint x="1367.5" y="1465" as="sourcePoint" />
            <mxPoint x="1422.5" y="1465" as="targetPoint" />
            <Array as="points">
              <mxPoint x="992.5" y="1890" />
            </Array>
          </mxGeometry>
        </mxCell>
        <mxCell id="4Dr7qYJyZsWA0C1EVG_1-175" value="" style="endArrow=openThin;endFill=0;endSize=12;html=1;rounded=0;fontSize=12;dashed=1;strokeColor=#994C00;" parent="h1eI_nPeraRx3KmiK-lf-1" source="4Dr7qYJyZsWA0C1EVG_1-93" target="4Dr7qYJyZsWA0C1EVG_1-104" edge="1">
          <mxGeometry width="160" relative="1" as="geometry">
            <mxPoint x="857.6388888888887" y="2070" as="sourcePoint" />
            <mxPoint x="1107.3611111111113" y="1760" as="targetPoint" />
            <Array as="points">
              <mxPoint x="1082.5" y="1910" />
            </Array>
          </mxGeometry>
        </mxCell>
        <mxCell id="4Dr7qYJyZsWA0C1EVG_1-176" value="" style="endArrow=openThin;endFill=0;endSize=12;html=1;rounded=0;fontSize=12;dashed=1;strokeColor=#994C00;" parent="h1eI_nPeraRx3KmiK-lf-1" source="4Dr7qYJyZsWA0C1EVG_1-95" target="4Dr7qYJyZsWA0C1EVG_1-105" edge="1">
          <mxGeometry width="160" relative="1" as="geometry">
            <mxPoint x="863.3928571428569" y="2070" as="sourcePoint" />
            <mxPoint x="1101.6071428571431" y="1840" as="targetPoint" />
            <Array as="points">
              <mxPoint x="1002.5" y="1890" />
            </Array>
          </mxGeometry>
        </mxCell>
        <mxCell id="4Dr7qYJyZsWA0C1EVG_1-177" value="" style="endArrow=openThin;endFill=0;endSize=12;html=1;rounded=0;fontSize=12;dashed=1;strokeColor=#994C00;" parent="h1eI_nPeraRx3KmiK-lf-1" source="4Dr7qYJyZsWA0C1EVG_1-95" target="4Dr7qYJyZsWA0C1EVG_1-104" edge="1">
          <mxGeometry width="160" relative="1" as="geometry">
            <mxPoint x="972.5" y="2080" as="sourcePoint" />
            <mxPoint x="1116.3888888888891" y="1760" as="targetPoint" />
            <Array as="points">
              <mxPoint x="1092.5" y="1910" />
            </Array>
          </mxGeometry>
        </mxCell>
        <mxCell id="4Dr7qYJyZsWA0C1EVG_1-178" value="" style="endArrow=openThin;endFill=0;endSize=12;html=1;rounded=0;fontSize=12;dashed=1;strokeColor=#994C00;" parent="h1eI_nPeraRx3KmiK-lf-1" source="4Dr7qYJyZsWA0C1EVG_1-104" target="4Dr7qYJyZsWA0C1EVG_1-105" edge="1">
          <mxGeometry width="160" relative="1" as="geometry">
            <mxPoint x="988.6111111111113" y="2080" as="sourcePoint" />
            <mxPoint x="1126.3888888888891" y="1770" as="targetPoint" />
            <Array as="points" />
          </mxGeometry>
        </mxCell>
        <mxCell id="4Dr7qYJyZsWA0C1EVG_1-179" value="" style="endArrow=openThin;endFill=0;endSize=12;html=1;rounded=0;fontSize=12;dashed=1;strokeColor=#994C00;" parent="h1eI_nPeraRx3KmiK-lf-1" source="4Dr7qYJyZsWA0C1EVG_1-107" target="4Dr7qYJyZsWA0C1EVG_1-90" edge="1">
          <mxGeometry width="160" relative="1" as="geometry">
            <mxPoint x="998.6111111111113" y="2090" as="sourcePoint" />
            <mxPoint x="1136.3888888888891" y="1780" as="targetPoint" />
            <Array as="points">
              <mxPoint x="1192.5" y="1790" />
              <mxPoint x="1022.5" y="1790" />
              <mxPoint x="942.5" y="1840" />
              <mxPoint x="782.5" y="1940" />
            </Array>
          </mxGeometry>
        </mxCell>
        <mxCell id="4Dr7qYJyZsWA0C1EVG_1-180" value="" style="endArrow=openThin;endFill=0;endSize=12;html=1;rounded=0;fontSize=12;dashed=1;strokeColor=#994C00;" parent="h1eI_nPeraRx3KmiK-lf-1" source="4Dr7qYJyZsWA0C1EVG_1-80" target="4Dr7qYJyZsWA0C1EVG_1-104" edge="1">
          <mxGeometry width="160" relative="1" as="geometry">
            <mxPoint x="1008.6111111111113" y="2100" as="sourcePoint" />
            <mxPoint x="1146.3888888888891" y="1790" as="targetPoint" />
            <Array as="points">
              <mxPoint x="552.5" y="1820" />
              <mxPoint x="1212.5" y="1820" />
            </Array>
          </mxGeometry>
        </mxCell>
      </root>
    </mxGraphModel>
  </diagram>
  <diagram name="Rank Algorithm Diagram" id="pU8fCil6aVtzVU4a5NQp">
    <mxGraphModel dx="2680" dy="528" grid="1" gridSize="10" guides="1" tooltips="1" connect="1" arrows="1" fold="1" page="1" pageScale="1" pageWidth="1654" pageHeight="1169" math="0" shadow="0">
      <root>
        <mxCell id="yUSP1gVK_hTuVBHj87YH-0" />
        <mxCell id="yUSP1gVK_hTuVBHj87YH-1" parent="yUSP1gVK_hTuVBHj87YH-0" />
        <mxCell id="yUSP1gVK_hTuVBHj87YH-2" value="" style="rounded=0;whiteSpace=wrap;html=1;fillColor=none;movable=0;resizable=0;rotatable=0;deletable=0;editable=0;connectable=0;" parent="yUSP1gVK_hTuVBHj87YH-1" vertex="1">
          <mxGeometry x="-1650" y="10" width="3295" height="2318" as="geometry" />
        </mxCell>
        <mxCell id="iRaDpfIdEziGBdws9H0w-1042" value="" style="ellipse;html=1;shape=startState;fillColor=#000000;strokeColor=#000000;" parent="yUSP1gVK_hTuVBHj87YH-1" vertex="1">
          <mxGeometry x="-162.06999999999994" y="280" width="30" height="30" as="geometry" />
        </mxCell>
        <mxCell id="iRaDpfIdEziGBdws9H0w-1043" value="" style="edgeStyle=orthogonalEdgeStyle;html=1;verticalAlign=bottom;endArrow=classic;endSize=8;strokeColor=#000000;rounded=0;exitX=0.5;exitY=1;exitDx=0;exitDy=0;entryX=0.5;entryY=0;entryDx=0;entryDy=0;endFill=1;" parent="yUSP1gVK_hTuVBHj87YH-1" source="iRaDpfIdEziGBdws9H0w-1042" target="iRaDpfIdEziGBdws9H0w-1045" edge="1">
          <mxGeometry relative="1" as="geometry">
            <mxPoint x="-147.06" y="413" as="targetPoint" />
          </mxGeometry>
        </mxCell>
        <mxCell id="iRaDpfIdEziGBdws9H0w-1044" style="edgeStyle=orthogonalEdgeStyle;rounded=0;orthogonalLoop=1;jettySize=auto;html=1;exitX=0.5;exitY=1;exitDx=0;exitDy=0;entryX=0.5;entryY=0;entryDx=0;entryDy=0;" parent="yUSP1gVK_hTuVBHj87YH-1" source="iRaDpfIdEziGBdws9H0w-1045" target="iRaDpfIdEziGBdws9H0w-1047" edge="1">
          <mxGeometry relative="1" as="geometry" />
        </mxCell>
        <mxCell id="iRaDpfIdEziGBdws9H0w-1045" value="Initialization" style="rounded=1;whiteSpace=wrap;html=1;fontSize=10;" parent="yUSP1gVK_hTuVBHj87YH-1" vertex="1">
          <mxGeometry x="-197.05999999999997" y="393" width="100" height="30" as="geometry" />
        </mxCell>
        <mxCell id="iRaDpfIdEziGBdws9H0w-1046" style="edgeStyle=orthogonalEdgeStyle;rounded=0;orthogonalLoop=1;jettySize=auto;html=1;exitX=0.5;exitY=1;exitDx=0;exitDy=0;entryX=0.5;entryY=0;entryDx=0;entryDy=0;" parent="yUSP1gVK_hTuVBHj87YH-1" source="iRaDpfIdEziGBdws9H0w-1047" target="iRaDpfIdEziGBdws9H0w-1052" edge="1">
          <mxGeometry relative="1" as="geometry" />
        </mxCell>
        <mxCell id="iRaDpfIdEziGBdws9H0w-1047" value="Wait for message" style="shape=hexagon;perimeter=hexagonPerimeter2;whiteSpace=wrap;html=1;fixedSize=1;size=5;fontSize=10;" parent="yUSP1gVK_hTuVBHj87YH-1" vertex="1">
          <mxGeometry x="-199.55999999999997" y="443" width="105" height="30" as="geometry" />
        </mxCell>
        <mxCell id="iRaDpfIdEziGBdws9H0w-1048" style="edgeStyle=orthogonalEdgeStyle;rounded=0;orthogonalLoop=1;jettySize=auto;html=1;exitX=0.5;exitY=1;exitDx=0;exitDy=0;entryX=0.5;entryY=0;entryDx=0;entryDy=0;" parent="yUSP1gVK_hTuVBHj87YH-1" source="iRaDpfIdEziGBdws9H0w-1052" target="iRaDpfIdEziGBdws9H0w-1063" edge="1">
          <mxGeometry relative="1" as="geometry">
            <mxPoint x="-147.10000000000002" y="603" as="targetPoint" />
          </mxGeometry>
        </mxCell>
        <mxCell id="iRaDpfIdEziGBdws9H0w-1049" value="&lt;font style=&quot;font-size: 8px;&quot;&gt;N&lt;/font&gt;" style="edgeLabel;html=1;align=center;verticalAlign=middle;resizable=0;points=[];" parent="iRaDpfIdEziGBdws9H0w-1048" connectable="0" vertex="1">
          <mxGeometry x="-0.2759" y="-1" relative="1" as="geometry">
            <mxPoint x="1" y="-1" as="offset" />
          </mxGeometry>
        </mxCell>
        <mxCell id="iRaDpfIdEziGBdws9H0w-1050" style="edgeStyle=orthogonalEdgeStyle;rounded=0;orthogonalLoop=1;jettySize=auto;html=1;exitX=1;exitY=0.5;exitDx=0;exitDy=0;entryX=0;entryY=0.5;entryDx=0;entryDy=0;" parent="yUSP1gVK_hTuVBHj87YH-1" source="iRaDpfIdEziGBdws9H0w-1052" target="iRaDpfIdEziGBdws9H0w-1061" edge="1">
          <mxGeometry relative="1" as="geometry" />
        </mxCell>
        <mxCell id="iRaDpfIdEziGBdws9H0w-1051" value="&lt;font style=&quot;font-size: 8px;&quot;&gt;Y&lt;/font&gt;" style="edgeLabel;html=1;align=center;verticalAlign=middle;resizable=0;points=[];" parent="iRaDpfIdEziGBdws9H0w-1050" connectable="0" vertex="1">
          <mxGeometry x="-0.1013" y="-1" relative="1" as="geometry">
            <mxPoint x="-3" y="-1" as="offset" />
          </mxGeometry>
        </mxCell>
        <mxCell id="iRaDpfIdEziGBdws9H0w-1052" value="Is UUID&lt;br&gt;known?" style="rhombus;whiteSpace=wrap;html=1;" parent="yUSP1gVK_hTuVBHj87YH-1" vertex="1">
          <mxGeometry x="-187.05999999999997" y="493" width="80" height="80" as="geometry" />
        </mxCell>
        <mxCell id="iRaDpfIdEziGBdws9H0w-1053" style="edgeStyle=orthogonalEdgeStyle;rounded=0;orthogonalLoop=1;jettySize=auto;html=1;exitX=1;exitY=0.5;exitDx=0;exitDy=0;entryX=0;entryY=0.5;entryDx=0;entryDy=0;jumpStyle=arc;" parent="yUSP1gVK_hTuVBHj87YH-1" source="iRaDpfIdEziGBdws9H0w-1054" target="iRaDpfIdEziGBdws9H0w-1056" edge="1">
          <mxGeometry relative="1" as="geometry">
            <mxPoint x="237.9000000000001" y="533" as="targetPoint" />
            <Array as="points">
              <mxPoint x="201" y="533" />
              <mxPoint x="201" y="330" />
              <mxPoint x="-330" y="330" />
              <mxPoint x="-330" y="458" />
            </Array>
          </mxGeometry>
        </mxCell>
        <mxCell id="iRaDpfIdEziGBdws9H0w-1054" value="Discard message" style="rounded=1;whiteSpace=wrap;html=1;fontSize=10;" parent="yUSP1gVK_hTuVBHj87YH-1" vertex="1">
          <mxGeometry x="80.89999999999998" y="518" width="100" height="30" as="geometry" />
        </mxCell>
        <mxCell id="iRaDpfIdEziGBdws9H0w-1055" style="edgeStyle=orthogonalEdgeStyle;rounded=0;orthogonalLoop=1;jettySize=auto;html=1;exitX=1;exitY=0.5;exitDx=0;exitDy=0;entryX=0;entryY=0.5;entryDx=0;entryDy=0;" parent="yUSP1gVK_hTuVBHj87YH-1" source="iRaDpfIdEziGBdws9H0w-1056" target="iRaDpfIdEziGBdws9H0w-1047" edge="1">
          <mxGeometry relative="1" as="geometry" />
        </mxCell>
        <mxCell id="iRaDpfIdEziGBdws9H0w-1056" value="&lt;font color=&quot;#ffffff&quot;&gt;A&lt;/font&gt;" style="ellipse;html=1;shape=startState;fillColor=#000000;strokeColor=#000000;" parent="yUSP1gVK_hTuVBHj87YH-1" vertex="1">
          <mxGeometry x="-310" y="446" width="24" height="24" as="geometry" />
        </mxCell>
        <mxCell id="iRaDpfIdEziGBdws9H0w-1057" style="edgeStyle=orthogonalEdgeStyle;rounded=0;orthogonalLoop=1;jettySize=auto;html=1;exitX=1;exitY=0.5;exitDx=0;exitDy=0;entryX=0;entryY=0.5;entryDx=0;entryDy=0;" parent="yUSP1gVK_hTuVBHj87YH-1" source="iRaDpfIdEziGBdws9H0w-1061" target="iRaDpfIdEziGBdws9H0w-1054" edge="1">
          <mxGeometry relative="1" as="geometry" />
        </mxCell>
        <mxCell id="iRaDpfIdEziGBdws9H0w-1058" value="CLOSED" style="edgeLabel;html=1;align=center;verticalAlign=middle;resizable=0;points=[];fontSize=8;" parent="iRaDpfIdEziGBdws9H0w-1057" connectable="0" vertex="1">
          <mxGeometry x="-0.0267" relative="1" as="geometry">
            <mxPoint x="-5" as="offset" />
          </mxGeometry>
        </mxCell>
        <mxCell id="iRaDpfIdEziGBdws9H0w-1059" style="edgeStyle=orthogonalEdgeStyle;rounded=0;orthogonalLoop=1;jettySize=auto;html=1;exitX=0.5;exitY=1;exitDx=0;exitDy=0;entryX=0.5;entryY=0;entryDx=0;entryDy=0;" parent="yUSP1gVK_hTuVBHj87YH-1" source="iRaDpfIdEziGBdws9H0w-1061" target="iRaDpfIdEziGBdws9H0w-1069" edge="1">
          <mxGeometry relative="1" as="geometry" />
        </mxCell>
        <mxCell id="iRaDpfIdEziGBdws9H0w-1060" value="other states" style="edgeLabel;html=1;align=center;verticalAlign=middle;resizable=0;points=[];fontSize=8;" parent="iRaDpfIdEziGBdws9H0w-1059" connectable="0" vertex="1">
          <mxGeometry x="-0.1066" relative="1" as="geometry">
            <mxPoint y="-3" as="offset" />
          </mxGeometry>
        </mxCell>
        <mxCell id="iRaDpfIdEziGBdws9H0w-1061" value="How is&lt;br&gt;UUID&#39;s&lt;br&gt;state?" style="rhombus;whiteSpace=wrap;html=1;" parent="yUSP1gVK_hTuVBHj87YH-1" vertex="1">
          <mxGeometry x="-72.10000000000002" y="493" width="80" height="80" as="geometry" />
        </mxCell>
        <mxCell id="iRaDpfIdEziGBdws9H0w-1062" style="edgeStyle=orthogonalEdgeStyle;rounded=0;orthogonalLoop=1;jettySize=auto;html=1;exitX=0.5;exitY=1;exitDx=0;exitDy=0;entryX=0.5;entryY=0;entryDx=0;entryDy=0;" parent="yUSP1gVK_hTuVBHj87YH-1" source="iRaDpfIdEziGBdws9H0w-1063" target="iRaDpfIdEziGBdws9H0w-1065" edge="1">
          <mxGeometry relative="1" as="geometry" />
        </mxCell>
        <mxCell id="iRaDpfIdEziGBdws9H0w-1063" value="Create &lt;b&gt;Handler&lt;/b&gt; &lt;i&gt;h&lt;br&gt;&lt;/i&gt;with new UUID" style="rounded=1;whiteSpace=wrap;html=1;fontSize=10;" parent="yUSP1gVK_hTuVBHj87YH-1" vertex="1">
          <mxGeometry x="-197.05999999999997" y="610" width="100" height="30" as="geometry" />
        </mxCell>
        <mxCell id="iRaDpfIdEziGBdws9H0w-1064" style="edgeStyle=orthogonalEdgeStyle;rounded=0;orthogonalLoop=1;jettySize=auto;html=1;exitX=0.5;exitY=1;exitDx=0;exitDy=0;entryX=0.5;entryY=0;entryDx=0;entryDy=0;" parent="yUSP1gVK_hTuVBHj87YH-1" source="iRaDpfIdEziGBdws9H0w-1065" target="iRaDpfIdEziGBdws9H0w-1067" edge="1">
          <mxGeometry relative="1" as="geometry" />
        </mxCell>
        <mxCell id="iRaDpfIdEziGBdws9H0w-1065" value="Save &lt;i&gt;h&lt;/i&gt;&amp;nbsp;in &lt;b&gt;Store&lt;/b&gt;" style="rounded=1;whiteSpace=wrap;html=1;fontSize=10;" parent="yUSP1gVK_hTuVBHj87YH-1" vertex="1">
          <mxGeometry x="-197.05999999999997" y="690" width="100" height="30" as="geometry" />
        </mxCell>
        <mxCell id="iRaDpfIdEziGBdws9H0w-1066" style="edgeStyle=orthogonalEdgeStyle;rounded=0;orthogonalLoop=1;jettySize=auto;html=1;exitX=0.5;exitY=1;exitDx=0;exitDy=0;entryX=0;entryY=0;entryDx=0;entryDy=0;" parent="yUSP1gVK_hTuVBHj87YH-1" source="iRaDpfIdEziGBdws9H0w-1067" target="iRaDpfIdEziGBdws9H0w-1084" edge="1">
          <mxGeometry relative="1" as="geometry" />
        </mxCell>
        <mxCell id="iRaDpfIdEziGBdws9H0w-1067" value="Execute thread in &lt;i&gt;h&lt;/i&gt;" style="rounded=1;whiteSpace=wrap;html=1;fontSize=10;" parent="yUSP1gVK_hTuVBHj87YH-1" vertex="1">
          <mxGeometry x="-197.05999999999997" y="740" width="100" height="30" as="geometry" />
        </mxCell>
        <mxCell id="iRaDpfIdEziGBdws9H0w-1068" style="edgeStyle=orthogonalEdgeStyle;rounded=0;orthogonalLoop=1;jettySize=auto;html=1;exitX=0.5;exitY=1;exitDx=0;exitDy=0;entryX=0.5;entryY=0;entryDx=0;entryDy=0;" parent="yUSP1gVK_hTuVBHj87YH-1" source="iRaDpfIdEziGBdws9H0w-1069" target="iRaDpfIdEziGBdws9H0w-1071" edge="1">
          <mxGeometry relative="1" as="geometry" />
        </mxCell>
        <mxCell id="iRaDpfIdEziGBdws9H0w-1069" value="Get&amp;nbsp;&lt;b&gt;Handler&lt;/b&gt; &lt;i&gt;h&lt;br&gt;&lt;/i&gt;from &lt;b&gt;Store&lt;/b&gt;" style="rounded=1;whiteSpace=wrap;html=1;fontSize=10;" parent="yUSP1gVK_hTuVBHj87YH-1" vertex="1">
          <mxGeometry x="-82.10000000000002" y="610" width="100" height="30" as="geometry" />
        </mxCell>
        <mxCell id="iRaDpfIdEziGBdws9H0w-1070" style="edgeStyle=orthogonalEdgeStyle;rounded=0;orthogonalLoop=1;jettySize=auto;html=1;exitX=0.5;exitY=1;exitDx=0;exitDy=0;entryX=1;entryY=0;entryDx=0;entryDy=0;" parent="yUSP1gVK_hTuVBHj87YH-1" source="iRaDpfIdEziGBdws9H0w-1071" target="iRaDpfIdEziGBdws9H0w-1084" edge="1">
          <mxGeometry relative="1" as="geometry" />
        </mxCell>
        <mxCell id="iRaDpfIdEziGBdws9H0w-1071" value="Execute thread in &lt;i&gt;h&lt;/i&gt;" style="rounded=1;whiteSpace=wrap;html=1;fontSize=10;" parent="yUSP1gVK_hTuVBHj87YH-1" vertex="1">
          <mxGeometry x="-82.10000000000002" y="740" width="100" height="30" as="geometry" />
        </mxCell>
        <mxCell id="iRaDpfIdEziGBdws9H0w-1072" style="edgeStyle=orthogonalEdgeStyle;rounded=0;orthogonalLoop=1;jettySize=auto;html=1;exitX=0.5;exitY=1;exitDx=0;exitDy=0;entryX=0.5;entryY=0;entryDx=0;entryDy=0;" parent="yUSP1gVK_hTuVBHj87YH-1" source="iRaDpfIdEziGBdws9H0w-1084" target="iRaDpfIdEziGBdws9H0w-1286" edge="1">
          <mxGeometry relative="1" as="geometry">
            <mxPoint x="-399.0600000000004" y="873" as="sourcePoint" />
            <mxPoint x="-387.05999999999995" y="890" as="targetPoint" />
            <Array as="points">
              <mxPoint x="-89" y="900" />
              <mxPoint x="296" y="900" />
            </Array>
          </mxGeometry>
        </mxCell>
        <mxCell id="iRaDpfIdEziGBdws9H0w-1073" value="ACC" style="edgeLabel;html=1;align=center;verticalAlign=middle;resizable=0;points=[];" parent="iRaDpfIdEziGBdws9H0w-1072" connectable="0" vertex="1">
          <mxGeometry x="0.8763" relative="1" as="geometry">
            <mxPoint as="offset" />
          </mxGeometry>
        </mxCell>
        <mxCell id="iRaDpfIdEziGBdws9H0w-1074" style="edgeStyle=orthogonalEdgeStyle;rounded=0;orthogonalLoop=1;jettySize=auto;html=1;exitX=0.5;exitY=1;exitDx=0;exitDy=0;entryX=0.5;entryY=0;entryDx=0;entryDy=0;" parent="yUSP1gVK_hTuVBHj87YH-1" source="iRaDpfIdEziGBdws9H0w-1084" target="iRaDpfIdEziGBdws9H0w-1223" edge="1">
          <mxGeometry relative="1" as="geometry">
            <mxPoint x="-399.0600000000004" y="873" as="sourcePoint" />
            <mxPoint x="-411.05999999999995" y="890" as="targetPoint" />
            <Array as="points">
              <mxPoint x="-89" y="900" />
              <mxPoint x="-171" y="900" />
            </Array>
          </mxGeometry>
        </mxCell>
        <mxCell id="iRaDpfIdEziGBdws9H0w-1075" value="BID" style="edgeLabel;html=1;align=center;verticalAlign=middle;resizable=0;points=[];" parent="iRaDpfIdEziGBdws9H0w-1074" connectable="0" vertex="1">
          <mxGeometry x="0.649" y="1" relative="1" as="geometry">
            <mxPoint as="offset" />
          </mxGeometry>
        </mxCell>
        <mxCell id="iRaDpfIdEziGBdws9H0w-1076" style="edgeStyle=orthogonalEdgeStyle;rounded=0;orthogonalLoop=1;jettySize=auto;html=1;exitX=0.5;exitY=1;exitDx=0;exitDy=0;entryX=0.5;entryY=0;entryDx=0;entryDy=0;" parent="yUSP1gVK_hTuVBHj87YH-1" source="iRaDpfIdEziGBdws9H0w-1084" target="iRaDpfIdEziGBdws9H0w-1188" edge="1">
          <mxGeometry relative="1" as="geometry">
            <mxPoint x="-399.0600000000004" y="873" as="sourcePoint" />
            <mxPoint x="-435.05999999999995" y="890" as="targetPoint" />
            <Array as="points">
              <mxPoint x="-89" y="900" />
              <mxPoint x="-655" y="900" />
            </Array>
          </mxGeometry>
        </mxCell>
        <mxCell id="iRaDpfIdEziGBdws9H0w-1077" value="MAR" style="edgeLabel;html=1;align=center;verticalAlign=middle;resizable=0;points=[];" parent="iRaDpfIdEziGBdws9H0w-1076" connectable="0" vertex="1">
          <mxGeometry x="0.904" relative="1" as="geometry">
            <mxPoint as="offset" />
          </mxGeometry>
        </mxCell>
        <mxCell id="iRaDpfIdEziGBdws9H0w-1078" style="edgeStyle=orthogonalEdgeStyle;rounded=0;orthogonalLoop=1;jettySize=auto;html=1;exitX=0.5;exitY=1;exitDx=0;exitDy=0;entryX=0.5;entryY=0;entryDx=0;entryDy=0;" parent="yUSP1gVK_hTuVBHj87YH-1" source="iRaDpfIdEziGBdws9H0w-1084" target="iRaDpfIdEziGBdws9H0w-1098" edge="1">
          <mxGeometry relative="1" as="geometry">
            <Array as="points">
              <mxPoint x="-89" y="900" />
              <mxPoint x="-1234" y="900" />
            </Array>
            <mxPoint x="-399.0600000000004" y="873" as="sourcePoint" />
            <mxPoint x="-459.05999999999995" y="890" as="targetPoint" />
          </mxGeometry>
        </mxCell>
        <mxCell id="iRaDpfIdEziGBdws9H0w-1079" value="EAR" style="edgeLabel;html=1;align=center;verticalAlign=middle;resizable=0;points=[];" parent="iRaDpfIdEziGBdws9H0w-1078" connectable="0" vertex="1">
          <mxGeometry x="0.9537" y="-1" relative="1" as="geometry">
            <mxPoint as="offset" />
          </mxGeometry>
        </mxCell>
        <mxCell id="iRaDpfIdEziGBdws9H0w-1080" style="edgeStyle=orthogonalEdgeStyle;rounded=0;orthogonalLoop=1;jettySize=auto;html=1;exitX=0.5;exitY=1;exitDx=0;exitDy=0;entryX=0.5;entryY=0;entryDx=0;entryDy=0;" parent="yUSP1gVK_hTuVBHj87YH-1" source="iRaDpfIdEziGBdws9H0w-1084" target="iRaDpfIdEziGBdws9H0w-1311" edge="1">
          <mxGeometry relative="1" as="geometry">
            <mxPoint x="-399.0600000000004" y="873" as="sourcePoint" />
            <mxPoint x="-363.05999999999995" y="890" as="targetPoint" />
            <Array as="points">
              <mxPoint x="-89" y="900" />
              <mxPoint x="706" y="900" />
            </Array>
          </mxGeometry>
        </mxCell>
        <mxCell id="iRaDpfIdEziGBdws9H0w-1081" value="REF" style="edgeLabel;html=1;align=center;verticalAlign=middle;resizable=0;points=[];" parent="iRaDpfIdEziGBdws9H0w-1080" connectable="0" vertex="1">
          <mxGeometry x="0.9309" y="1" relative="1" as="geometry">
            <mxPoint as="offset" />
          </mxGeometry>
        </mxCell>
        <mxCell id="iRaDpfIdEziGBdws9H0w-1082" style="edgeStyle=orthogonalEdgeStyle;rounded=0;orthogonalLoop=1;jettySize=auto;html=1;exitX=0.5;exitY=1;exitDx=0;exitDy=0;entryX=0.5;entryY=0;entryDx=0;entryDy=0;" parent="yUSP1gVK_hTuVBHj87YH-1" source="iRaDpfIdEziGBdws9H0w-1084" target="iRaDpfIdEziGBdws9H0w-1338" edge="1">
          <mxGeometry relative="1" as="geometry">
            <Array as="points">
              <mxPoint x="-89" y="900" />
              <mxPoint x="1006" y="900" />
            </Array>
            <mxPoint x="-399.0600000000004" y="873" as="sourcePoint" />
            <mxPoint x="-339.0600000000004" y="890" as="targetPoint" />
          </mxGeometry>
        </mxCell>
        <mxCell id="iRaDpfIdEziGBdws9H0w-1083" value="REP" style="edgeLabel;html=1;align=center;verticalAlign=middle;resizable=0;points=[];" parent="iRaDpfIdEziGBdws9H0w-1082" connectable="0" vertex="1">
          <mxGeometry x="0.9473" relative="1" as="geometry">
            <mxPoint as="offset" />
          </mxGeometry>
        </mxCell>
        <mxCell id="iRaDpfIdEziGBdws9H0w-1084" value="Parse&lt;br&gt;type" style="rhombus;whiteSpace=wrap;html=1;" parent="yUSP1gVK_hTuVBHj87YH-1" vertex="1">
          <mxGeometry x="-129.06" y="793" width="80" height="80" as="geometry" />
        </mxCell>
        <mxCell id="iRaDpfIdEziGBdws9H0w-1085" value="A.1" style="rounded=1;whiteSpace=wrap;html=1;arcSize=50;fontSize=8;" parent="yUSP1gVK_hTuVBHj87YH-1" vertex="1">
          <mxGeometry x="-222.56" y="402.75" width="20" height="10.5" as="geometry" />
        </mxCell>
        <mxCell id="iRaDpfIdEziGBdws9H0w-1086" value="A.2" style="rounded=1;whiteSpace=wrap;html=1;arcSize=50;fontSize=8;" parent="yUSP1gVK_hTuVBHj87YH-1" vertex="1">
          <mxGeometry x="-222.56" y="435.5" width="20" height="10.5" as="geometry" />
        </mxCell>
        <mxCell id="iRaDpfIdEziGBdws9H0w-1087" value="A.3" style="rounded=1;whiteSpace=wrap;html=1;arcSize=50;fontSize=8;" parent="yUSP1gVK_hTuVBHj87YH-1" vertex="1">
          <mxGeometry x="-181.05999999999995" y="491" width="20" height="10.5" as="geometry" />
        </mxCell>
        <mxCell id="iRaDpfIdEziGBdws9H0w-1088" value="A.3.1.1" style="rounded=1;whiteSpace=wrap;html=1;arcSize=50;fontSize=8;" parent="yUSP1gVK_hTuVBHj87YH-1" vertex="1">
          <mxGeometry x="-73.10000000000002" y="491" width="29.96" height="10.5" as="geometry" />
        </mxCell>
        <mxCell id="iRaDpfIdEziGBdws9H0w-1089" value="A.3.2.1" style="rounded=1;whiteSpace=wrap;html=1;arcSize=50;fontSize=8;" parent="yUSP1gVK_hTuVBHj87YH-1" vertex="1">
          <mxGeometry x="-232.1" y="619.75" width="29.54" height="10.5" as="geometry" />
        </mxCell>
        <mxCell id="iRaDpfIdEziGBdws9H0w-1090" value="A.3.1.1.2.1" style="rounded=1;whiteSpace=wrap;html=1;arcSize=50;fontSize=8;" parent="yUSP1gVK_hTuVBHj87YH-1" vertex="1">
          <mxGeometry x="22.899999999999977" y="619.75" width="45" height="10.5" as="geometry" />
        </mxCell>
        <mxCell id="iRaDpfIdEziGBdws9H0w-1091" value="A.3.2.2" style="rounded=1;whiteSpace=wrap;html=1;arcSize=50;fontSize=8;" parent="yUSP1gVK_hTuVBHj87YH-1" vertex="1">
          <mxGeometry x="-232.1" y="699.75" width="29.54" height="10.5" as="geometry" />
        </mxCell>
        <mxCell id="iRaDpfIdEziGBdws9H0w-1092" value="A.3.1.1.2.2" style="rounded=1;whiteSpace=wrap;html=1;arcSize=50;fontSize=8;" parent="yUSP1gVK_hTuVBHj87YH-1" vertex="1">
          <mxGeometry x="22.899999999999977" y="749.75" width="45" height="10.5" as="geometry" />
        </mxCell>
        <mxCell id="iRaDpfIdEziGBdws9H0w-1093" value="A.3.2.3" style="rounded=1;whiteSpace=wrap;html=1;arcSize=50;fontSize=8;" parent="yUSP1gVK_hTuVBHj87YH-1" vertex="1">
          <mxGeometry x="-232.1" y="749.75" width="29.54" height="10.5" as="geometry" />
        </mxCell>
        <mxCell id="iRaDpfIdEziGBdws9H0w-1094" value="A.3.1.1.1.1" style="rounded=1;whiteSpace=wrap;html=1;arcSize=50;fontSize=8;" parent="yUSP1gVK_hTuVBHj87YH-1" vertex="1">
          <mxGeometry x="80.89999999999998" y="501.5" width="47" height="10.5" as="geometry" />
        </mxCell>
        <mxCell id="iRaDpfIdEziGBdws9H0w-1095" value="A.4" style="rounded=1;whiteSpace=wrap;html=1;arcSize=50;fontSize=8;" parent="yUSP1gVK_hTuVBHj87YH-1" vertex="1">
          <mxGeometry x="-166.60000000000002" y="827.75" width="29.54" height="10.5" as="geometry" />
        </mxCell>
        <mxCell id="iRaDpfIdEziGBdws9H0w-1096" value="READY" style="rounded=1;whiteSpace=wrap;html=1;arcSize=50;fontSize=8;fillColor=#999999;fontColor=#FFFFFF;" parent="yUSP1gVK_hTuVBHj87YH-1" vertex="1">
          <mxGeometry x="-172.02999999999997" y="658" width="49.93" height="10.5" as="geometry" />
        </mxCell>
        <mxCell id="iRaDpfIdEziGBdws9H0w-1097" style="edgeStyle=orthogonalEdgeStyle;rounded=0;orthogonalLoop=1;jettySize=auto;html=1;exitX=0.5;exitY=1;exitDx=0;exitDy=0;entryX=0.5;entryY=0;entryDx=0;entryDy=0;" parent="yUSP1gVK_hTuVBHj87YH-1" source="iRaDpfIdEziGBdws9H0w-1098" target="iRaDpfIdEziGBdws9H0w-1103" edge="1">
          <mxGeometry relative="1" as="geometry" />
        </mxCell>
        <mxCell id="iRaDpfIdEziGBdws9H0w-1098" value="&lt;font color=&quot;#ffffff&quot;&gt;B&lt;/font&gt;" style="ellipse;html=1;shape=startState;fillColor=#0066CC;strokeColor=#000000;" parent="yUSP1gVK_hTuVBHj87YH-1" vertex="1">
          <mxGeometry x="-1246.19" y="945" width="24" height="24" as="geometry" />
        </mxCell>
        <mxCell id="iRaDpfIdEziGBdws9H0w-1099" style="edgeStyle=orthogonalEdgeStyle;rounded=0;orthogonalLoop=1;jettySize=auto;html=1;exitX=0.5;exitY=1;exitDx=0;exitDy=0;entryX=0.5;entryY=0;entryDx=0;entryDy=0;" parent="yUSP1gVK_hTuVBHj87YH-1" source="iRaDpfIdEziGBdws9H0w-1103" target="iRaDpfIdEziGBdws9H0w-1113" edge="1">
          <mxGeometry relative="1" as="geometry" />
        </mxCell>
        <mxCell id="iRaDpfIdEziGBdws9H0w-1100" value="N" style="edgeLabel;html=1;align=center;verticalAlign=middle;resizable=0;points=[];fontSize=8;" parent="iRaDpfIdEziGBdws9H0w-1099" connectable="0" vertex="1">
          <mxGeometry x="-0.4457" y="-2" relative="1" as="geometry">
            <mxPoint x="2" y="1" as="offset" />
          </mxGeometry>
        </mxCell>
        <mxCell id="iRaDpfIdEziGBdws9H0w-1101" style="edgeStyle=orthogonalEdgeStyle;rounded=0;orthogonalLoop=1;jettySize=auto;html=1;exitX=1;exitY=0.5;exitDx=0;exitDy=0;entryX=0;entryY=0.5;entryDx=0;entryDy=0;" parent="yUSP1gVK_hTuVBHj87YH-1" source="iRaDpfIdEziGBdws9H0w-1103" target="iRaDpfIdEziGBdws9H0w-1108" edge="1">
          <mxGeometry relative="1" as="geometry" />
        </mxCell>
        <mxCell id="iRaDpfIdEziGBdws9H0w-1102" value="Y" style="edgeLabel;html=1;align=center;verticalAlign=middle;resizable=0;points=[];fontSize=8;" parent="iRaDpfIdEziGBdws9H0w-1101" connectable="0" vertex="1">
          <mxGeometry x="-0.1593" y="1" relative="1" as="geometry">
            <mxPoint as="offset" />
          </mxGeometry>
        </mxCell>
        <mxCell id="iRaDpfIdEziGBdws9H0w-1103" value="Am I the&lt;br&gt;listener?" style="rhombus;whiteSpace=wrap;html=1;" parent="yUSP1gVK_hTuVBHj87YH-1" vertex="1">
          <mxGeometry x="-1274.19" y="1028" width="80" height="80" as="geometry" />
        </mxCell>
        <mxCell id="iRaDpfIdEziGBdws9H0w-1104" style="edgeStyle=orthogonalEdgeStyle;rounded=0;orthogonalLoop=1;jettySize=auto;html=1;exitX=1;exitY=0.5;exitDx=0;exitDy=0;entryX=0;entryY=0.5;entryDx=0;entryDy=0;" parent="yUSP1gVK_hTuVBHj87YH-1" source="iRaDpfIdEziGBdws9H0w-1108" target="iRaDpfIdEziGBdws9H0w-1131" edge="1">
          <mxGeometry relative="1" as="geometry" />
        </mxCell>
        <mxCell id="iRaDpfIdEziGBdws9H0w-1105" value="Y" style="edgeLabel;html=1;align=center;verticalAlign=middle;resizable=0;points=[];fontSize=8;" parent="iRaDpfIdEziGBdws9H0w-1104" connectable="0" vertex="1">
          <mxGeometry x="-0.1271" y="2" relative="1" as="geometry">
            <mxPoint y="2" as="offset" />
          </mxGeometry>
        </mxCell>
        <mxCell id="iRaDpfIdEziGBdws9H0w-1106" style="edgeStyle=orthogonalEdgeStyle;rounded=0;orthogonalLoop=1;jettySize=auto;html=1;exitX=0.5;exitY=1;exitDx=0;exitDy=0;entryX=0.5;entryY=0;entryDx=0;entryDy=0;" parent="yUSP1gVK_hTuVBHj87YH-1" source="iRaDpfIdEziGBdws9H0w-1108" target="iRaDpfIdEziGBdws9H0w-1135" edge="1">
          <mxGeometry relative="1" as="geometry" />
        </mxCell>
        <mxCell id="iRaDpfIdEziGBdws9H0w-1107" value="N" style="edgeLabel;html=1;align=center;verticalAlign=middle;resizable=0;points=[];fontSize=8;" parent="iRaDpfIdEziGBdws9H0w-1106" connectable="0" vertex="1">
          <mxGeometry x="-0.5309" relative="1" as="geometry">
            <mxPoint x="-1" y="-32" as="offset" />
          </mxGeometry>
        </mxCell>
        <mxCell id="iRaDpfIdEziGBdws9H0w-1108" value="Can &lt;i&gt;R&lt;/i&gt;&amp;nbsp;be performed&lt;br&gt;with priority &lt;i&gt;p&lt;/i&gt;?" style="rhombus;whiteSpace=wrap;html=1;" parent="yUSP1gVK_hTuVBHj87YH-1" vertex="1">
          <mxGeometry x="-1130" y="1028" width="161" height="80" as="geometry" />
        </mxCell>
        <mxCell id="iRaDpfIdEziGBdws9H0w-1109" style="edgeStyle=orthogonalEdgeStyle;rounded=0;orthogonalLoop=1;jettySize=auto;html=1;exitX=0.5;exitY=1;exitDx=0;exitDy=0;entryX=0.5;entryY=0;entryDx=0;entryDy=0;" parent="yUSP1gVK_hTuVBHj87YH-1" source="iRaDpfIdEziGBdws9H0w-1113" target="iRaDpfIdEziGBdws9H0w-1118" edge="1">
          <mxGeometry relative="1" as="geometry" />
        </mxCell>
        <mxCell id="iRaDpfIdEziGBdws9H0w-1110" value="N" style="edgeLabel;html=1;align=center;verticalAlign=middle;resizable=0;points=[];fontSize=8;" parent="iRaDpfIdEziGBdws9H0w-1109" connectable="0" vertex="1">
          <mxGeometry x="-0.4052" y="1" relative="1" as="geometry">
            <mxPoint x="-1" as="offset" />
          </mxGeometry>
        </mxCell>
        <mxCell id="iRaDpfIdEziGBdws9H0w-1111" style="edgeStyle=orthogonalEdgeStyle;rounded=0;orthogonalLoop=1;jettySize=auto;html=1;exitX=0;exitY=0.5;exitDx=0;exitDy=0;entryX=0;entryY=0.5;entryDx=0;entryDy=0;" parent="yUSP1gVK_hTuVBHj87YH-1" source="iRaDpfIdEziGBdws9H0w-1113" target="iRaDpfIdEziGBdws9H0w-1122" edge="1">
          <mxGeometry relative="1" as="geometry">
            <Array as="points">
              <mxPoint x="-1350" y="1218" />
              <mxPoint x="-1350" y="1483" />
            </Array>
          </mxGeometry>
        </mxCell>
        <mxCell id="iRaDpfIdEziGBdws9H0w-1112" value="Y" style="edgeLabel;html=1;align=center;verticalAlign=middle;resizable=0;points=[];fontSize=8;" parent="iRaDpfIdEziGBdws9H0w-1111" connectable="0" vertex="1">
          <mxGeometry x="-0.8963" y="2" relative="1" as="geometry">
            <mxPoint x="-1" y="-2" as="offset" />
          </mxGeometry>
        </mxCell>
        <mxCell id="iRaDpfIdEziGBdws9H0w-1113" value="Is there a bid in &lt;b&gt;Store&lt;/b&gt;&lt;br&gt;for the UUID?" style="rhombus;whiteSpace=wrap;html=1;" parent="yUSP1gVK_hTuVBHj87YH-1" vertex="1">
          <mxGeometry x="-1314.69" y="1178" width="161" height="80" as="geometry" />
        </mxCell>
        <mxCell id="iRaDpfIdEziGBdws9H0w-1114" style="edgeStyle=orthogonalEdgeStyle;rounded=0;orthogonalLoop=1;jettySize=auto;html=1;exitX=0.5;exitY=1;exitDx=0;exitDy=0;entryX=0.5;entryY=0;entryDx=0;entryDy=0;" parent="yUSP1gVK_hTuVBHj87YH-1" source="iRaDpfIdEziGBdws9H0w-1118" target="iRaDpfIdEziGBdws9H0w-1120" edge="1">
          <mxGeometry relative="1" as="geometry" />
        </mxCell>
        <mxCell id="iRaDpfIdEziGBdws9H0w-1115" value="Y" style="edgeLabel;html=1;align=center;verticalAlign=middle;resizable=0;points=[];fontSize=8;" parent="iRaDpfIdEziGBdws9H0w-1114" connectable="0" vertex="1">
          <mxGeometry x="-0.3647" relative="1" as="geometry">
            <mxPoint as="offset" />
          </mxGeometry>
        </mxCell>
        <mxCell id="iRaDpfIdEziGBdws9H0w-1116" style="edgeStyle=orthogonalEdgeStyle;rounded=0;orthogonalLoop=1;jettySize=auto;html=1;exitX=1;exitY=0.5;exitDx=0;exitDy=0;entryX=0;entryY=0.5;entryDx=0;entryDy=0;" parent="yUSP1gVK_hTuVBHj87YH-1" source="iRaDpfIdEziGBdws9H0w-1118" target="iRaDpfIdEziGBdws9H0w-1135" edge="1">
          <mxGeometry relative="1" as="geometry" />
        </mxCell>
        <mxCell id="iRaDpfIdEziGBdws9H0w-1117" value="N" style="edgeLabel;html=1;align=center;verticalAlign=middle;resizable=0;points=[];fontSize=8;" parent="iRaDpfIdEziGBdws9H0w-1116" connectable="0" vertex="1">
          <mxGeometry x="-0.1402" relative="1" as="geometry">
            <mxPoint as="offset" />
          </mxGeometry>
        </mxCell>
        <mxCell id="iRaDpfIdEziGBdws9H0w-1118" value="Can &lt;i&gt;R&lt;/i&gt;&amp;nbsp;be performed&lt;br&gt;with priority &lt;i&gt;p&lt;/i&gt;?" style="rhombus;whiteSpace=wrap;html=1;" parent="yUSP1gVK_hTuVBHj87YH-1" vertex="1">
          <mxGeometry x="-1314.69" y="1298" width="161" height="80" as="geometry" />
        </mxCell>
        <mxCell id="iRaDpfIdEziGBdws9H0w-1119" style="edgeStyle=orthogonalEdgeStyle;rounded=0;orthogonalLoop=1;jettySize=auto;html=1;exitX=0.5;exitY=1;exitDx=0;exitDy=0;entryX=0.5;entryY=0;entryDx=0;entryDy=0;" parent="yUSP1gVK_hTuVBHj87YH-1" source="iRaDpfIdEziGBdws9H0w-1120" target="iRaDpfIdEziGBdws9H0w-1122" edge="1">
          <mxGeometry relative="1" as="geometry" />
        </mxCell>
        <mxCell id="iRaDpfIdEziGBdws9H0w-1120" value="Pre-reserve &lt;i&gt;R&lt;/i&gt;&amp;nbsp;with&lt;br&gt;UUID in &lt;b&gt;Store&lt;/b&gt;" style="rounded=1;whiteSpace=wrap;html=1;fontSize=10;" parent="yUSP1gVK_hTuVBHj87YH-1" vertex="1">
          <mxGeometry x="-1284.19" y="1418" width="100" height="30" as="geometry" />
        </mxCell>
        <mxCell id="iRaDpfIdEziGBdws9H0w-1121" style="edgeStyle=orthogonalEdgeStyle;rounded=0;orthogonalLoop=1;jettySize=auto;html=1;exitX=0.5;exitY=1;exitDx=0;exitDy=0;entryX=0.5;entryY=0;entryDx=0;entryDy=0;" parent="yUSP1gVK_hTuVBHj87YH-1" source="iRaDpfIdEziGBdws9H0w-1122" target="iRaDpfIdEziGBdws9H0w-1129" edge="1">
          <mxGeometry relative="1" as="geometry" />
        </mxCell>
        <mxCell id="iRaDpfIdEziGBdws9H0w-1122" value="Get connections to &lt;i&gt;L&lt;/i&gt;&lt;br&gt;(save as &lt;i&gt;N&lt;/i&gt;)" style="rounded=1;whiteSpace=wrap;html=1;fontSize=10;" parent="yUSP1gVK_hTuVBHj87YH-1" vertex="1">
          <mxGeometry x="-1284.19" y="1468" width="100" height="30" as="geometry" />
        </mxCell>
        <mxCell id="iRaDpfIdEziGBdws9H0w-1123" style="edgeStyle=orthogonalEdgeStyle;rounded=0;orthogonalLoop=1;jettySize=auto;html=1;exitX=0;exitY=0.5;exitDx=0;exitDy=0;entryX=1;entryY=0.5;entryDx=0;entryDy=0;" parent="yUSP1gVK_hTuVBHj87YH-1" source="iRaDpfIdEziGBdws9H0w-1129" target="iRaDpfIdEziGBdws9H0w-1140" edge="1">
          <mxGeometry relative="1" as="geometry" />
        </mxCell>
        <mxCell id="iRaDpfIdEziGBdws9H0w-1124" value="0" style="edgeLabel;html=1;align=center;verticalAlign=middle;resizable=0;points=[];fontSize=8;" parent="iRaDpfIdEziGBdws9H0w-1123" connectable="0" vertex="1">
          <mxGeometry x="-0.7213" relative="1" as="geometry">
            <mxPoint as="offset" />
          </mxGeometry>
        </mxCell>
        <mxCell id="iRaDpfIdEziGBdws9H0w-1125" style="edgeStyle=orthogonalEdgeStyle;rounded=0;orthogonalLoop=1;jettySize=auto;html=1;exitX=0.5;exitY=1;exitDx=0;exitDy=0;entryX=0.5;entryY=0;entryDx=0;entryDy=0;" parent="yUSP1gVK_hTuVBHj87YH-1" source="iRaDpfIdEziGBdws9H0w-1129" target="iRaDpfIdEziGBdws9H0w-1142" edge="1">
          <mxGeometry relative="1" as="geometry" />
        </mxCell>
        <mxCell id="iRaDpfIdEziGBdws9H0w-1126" value="1" style="edgeLabel;html=1;align=center;verticalAlign=middle;resizable=0;points=[];fontSize=8;" parent="iRaDpfIdEziGBdws9H0w-1125" connectable="0" vertex="1">
          <mxGeometry x="-0.3688" y="1" relative="1" as="geometry">
            <mxPoint x="-1" as="offset" />
          </mxGeometry>
        </mxCell>
        <mxCell id="iRaDpfIdEziGBdws9H0w-1127" style="edgeStyle=orthogonalEdgeStyle;rounded=0;orthogonalLoop=1;jettySize=auto;html=1;exitX=1;exitY=0.5;exitDx=0;exitDy=0;entryX=0;entryY=0.5;entryDx=0;entryDy=0;" parent="yUSP1gVK_hTuVBHj87YH-1" source="iRaDpfIdEziGBdws9H0w-1129" target="iRaDpfIdEziGBdws9H0w-1143" edge="1">
          <mxGeometry relative="1" as="geometry" />
        </mxCell>
        <mxCell id="iRaDpfIdEziGBdws9H0w-1128" value="&amp;gt;1" style="edgeLabel;html=1;align=center;verticalAlign=middle;resizable=0;points=[];fontSize=8;" parent="iRaDpfIdEziGBdws9H0w-1127" connectable="0" vertex="1">
          <mxGeometry x="-0.6877" y="1" relative="1" as="geometry">
            <mxPoint as="offset" />
          </mxGeometry>
        </mxCell>
        <mxCell id="iRaDpfIdEziGBdws9H0w-1129" value="Cardinal&lt;br&gt;of &lt;i&gt;N&lt;/i&gt;" style="rhombus;whiteSpace=wrap;html=1;" parent="yUSP1gVK_hTuVBHj87YH-1" vertex="1">
          <mxGeometry x="-1274.19" y="1518" width="80" height="80" as="geometry" />
        </mxCell>
        <mxCell id="iRaDpfIdEziGBdws9H0w-1130" style="edgeStyle=orthogonalEdgeStyle;rounded=0;orthogonalLoop=1;jettySize=auto;html=1;exitX=0.5;exitY=1;exitDx=0;exitDy=0;entryX=0.5;entryY=0;entryDx=0;entryDy=0;" parent="yUSP1gVK_hTuVBHj87YH-1" source="iRaDpfIdEziGBdws9H0w-1131" target="iRaDpfIdEziGBdws9H0w-1133" edge="1">
          <mxGeometry relative="1" as="geometry" />
        </mxCell>
        <mxCell id="iRaDpfIdEziGBdws9H0w-1131" value="Reserve&amp;nbsp;&lt;i&gt;R&lt;/i&gt;&amp;nbsp;with&lt;br&gt;UUID in &lt;b&gt;Store&lt;/b&gt;" style="rounded=1;whiteSpace=wrap;html=1;fontSize=10;" parent="yUSP1gVK_hTuVBHj87YH-1" vertex="1">
          <mxGeometry x="-900" y="1053" width="100" height="30" as="geometry" />
        </mxCell>
        <mxCell id="iRaDpfIdEziGBdws9H0w-1132" style="edgeStyle=orthogonalEdgeStyle;rounded=0;orthogonalLoop=1;jettySize=auto;html=1;exitX=0.5;exitY=1;exitDx=0;exitDy=0;entryX=0.5;entryY=0;entryDx=0;entryDy=0;" parent="yUSP1gVK_hTuVBHj87YH-1" source="iRaDpfIdEziGBdws9H0w-1133" target="iRaDpfIdEziGBdws9H0w-1136" edge="1">
          <mxGeometry relative="1" as="geometry">
            <mxPoint x="-850" y="1162.5" as="sourcePoint" />
          </mxGeometry>
        </mxCell>
        <mxCell id="iRaDpfIdEziGBdws9H0w-1133" value="ACC" style="shape=step;perimeter=stepPerimeter;whiteSpace=wrap;html=1;fixedSize=1;size=5;strokeColor=#66CC00;fontColor=#66CC00;" parent="yUSP1gVK_hTuVBHj87YH-1" vertex="1">
          <mxGeometry x="-875" y="1108" width="50" height="24.5" as="geometry" />
        </mxCell>
        <mxCell id="iRaDpfIdEziGBdws9H0w-1134" style="edgeStyle=orthogonalEdgeStyle;rounded=0;orthogonalLoop=1;jettySize=auto;html=1;exitX=0.5;exitY=1;exitDx=0;exitDy=0;entryX=0.5;entryY=0;entryDx=0;entryDy=0;" parent="yUSP1gVK_hTuVBHj87YH-1" source="iRaDpfIdEziGBdws9H0w-1135" target="iRaDpfIdEziGBdws9H0w-1138" edge="1">
          <mxGeometry relative="1" as="geometry" />
        </mxCell>
        <mxCell id="iRaDpfIdEziGBdws9H0w-1135" value="REF" style="shape=step;perimeter=stepPerimeter;whiteSpace=wrap;html=1;fixedSize=1;size=5;strokeColor=#CC0000;fontColor=#CC0000;" parent="yUSP1gVK_hTuVBHj87YH-1" vertex="1">
          <mxGeometry x="-1074.5" y="1325.75" width="50" height="24.5" as="geometry" />
        </mxCell>
        <mxCell id="iRaDpfIdEziGBdws9H0w-1136" value="Terminate thread" style="rounded=1;whiteSpace=wrap;html=1;fontSize=10;" parent="yUSP1gVK_hTuVBHj87YH-1" vertex="1">
          <mxGeometry x="-900" y="1188" width="100" height="30" as="geometry" />
        </mxCell>
        <mxCell id="iRaDpfIdEziGBdws9H0w-1137" style="edgeStyle=orthogonalEdgeStyle;rounded=0;orthogonalLoop=1;jettySize=auto;html=1;exitX=0.5;exitY=1;exitDx=0;exitDy=0;entryX=0;entryY=0.5;entryDx=0;entryDy=0;" parent="yUSP1gVK_hTuVBHj87YH-1" source="iRaDpfIdEziGBdws9H0w-1138" target="iRaDpfIdEziGBdws9H0w-1056" edge="1">
          <mxGeometry relative="1" as="geometry">
            <mxPoint x="-1049.5" y="1471" as="targetPoint" />
            <Array as="points">
              <mxPoint x="-1049" y="1480" />
              <mxPoint x="-850" y="1480" />
              <mxPoint x="-850" y="1890" />
              <mxPoint x="-1550" y="1890" />
              <mxPoint x="-1550" y="458" />
            </Array>
          </mxGeometry>
        </mxCell>
        <mxCell id="iRaDpfIdEziGBdws9H0w-1138" value="Delete UUID&lt;br&gt;from the &lt;b&gt;Store&lt;/b&gt;" style="rounded=1;whiteSpace=wrap;html=1;fontSize=10;" parent="yUSP1gVK_hTuVBHj87YH-1" vertex="1">
          <mxGeometry x="-1099.5" y="1418" width="100" height="30" as="geometry" />
        </mxCell>
        <mxCell id="iRaDpfIdEziGBdws9H0w-1139" style="edgeStyle=orthogonalEdgeStyle;rounded=0;orthogonalLoop=1;jettySize=auto;html=1;exitX=0.5;exitY=1;exitDx=0;exitDy=0;entryX=0.5;entryY=0;entryDx=0;entryDy=0;" parent="yUSP1gVK_hTuVBHj87YH-1" source="iRaDpfIdEziGBdws9H0w-1140" target="iRaDpfIdEziGBdws9H0w-1145" edge="1">
          <mxGeometry relative="1" as="geometry" />
        </mxCell>
        <mxCell id="iRaDpfIdEziGBdws9H0w-1140" value="REF" style="shape=step;perimeter=stepPerimeter;whiteSpace=wrap;html=1;fixedSize=1;size=5;strokeColor=#CC0000;fontColor=#CC0000;" parent="yUSP1gVK_hTuVBHj87YH-1" vertex="1">
          <mxGeometry x="-1440" y="1545.75" width="50" height="24.5" as="geometry" />
        </mxCell>
        <mxCell id="iRaDpfIdEziGBdws9H0w-1141" style="edgeStyle=orthogonalEdgeStyle;rounded=0;orthogonalLoop=1;jettySize=auto;html=1;exitX=0.5;exitY=1;exitDx=0;exitDy=0;" parent="yUSP1gVK_hTuVBHj87YH-1" source="iRaDpfIdEziGBdws9H0w-1142" edge="1">
          <mxGeometry relative="1" as="geometry">
            <mxPoint x="-1234.2601156069363" y="1698" as="targetPoint" />
          </mxGeometry>
        </mxCell>
        <mxCell id="iRaDpfIdEziGBdws9H0w-1142" value="&lt;font&gt;EAR&lt;/font&gt;" style="shape=step;perimeter=stepPerimeter;whiteSpace=wrap;html=1;fixedSize=1;size=5;strokeColor=#3399FF;fontColor=#3399FF;" parent="yUSP1gVK_hTuVBHj87YH-1" vertex="1">
          <mxGeometry x="-1259.19" y="1628" width="50" height="24.5" as="geometry" />
        </mxCell>
        <mxCell id="iRaDpfIdEziGBdws9H0w-1143" value="MAR" style="shape=step;perimeter=stepPerimeter;whiteSpace=wrap;html=1;fixedSize=1;size=5;strokeColor=#336600;fontColor=#336600;" parent="yUSP1gVK_hTuVBHj87YH-1" vertex="1">
          <mxGeometry x="-1074.5" y="1545.75" width="50" height="24.5" as="geometry" />
        </mxCell>
        <mxCell id="iRaDpfIdEziGBdws9H0w-1144" style="edgeStyle=orthogonalEdgeStyle;rounded=0;orthogonalLoop=1;jettySize=auto;html=1;exitX=0.5;exitY=1;exitDx=0;exitDy=0;entryX=0;entryY=0.5;entryDx=0;entryDy=0;" parent="yUSP1gVK_hTuVBHj87YH-1" source="iRaDpfIdEziGBdws9H0w-1145" target="iRaDpfIdEziGBdws9H0w-1056" edge="1">
          <mxGeometry relative="1" as="geometry">
            <mxPoint x="-1415" y="1677.9999999999995" as="targetPoint" />
            <Array as="points">
              <mxPoint x="-1415" y="1675" />
              <mxPoint x="-1550" y="1675" />
              <mxPoint x="-1550" y="458" />
            </Array>
          </mxGeometry>
        </mxCell>
        <mxCell id="iRaDpfIdEziGBdws9H0w-1145" value="Delete UUID&lt;br&gt;from the &lt;b&gt;Store&lt;/b&gt;" style="rounded=1;whiteSpace=wrap;html=1;fontSize=10;" parent="yUSP1gVK_hTuVBHj87YH-1" vertex="1">
          <mxGeometry x="-1465" y="1625.25" width="100" height="30" as="geometry" />
        </mxCell>
        <mxCell id="iRaDpfIdEziGBdws9H0w-1146" value="" style="endArrow=none;html=1;rounded=0;strokeWidth=4;" parent="yUSP1gVK_hTuVBHj87YH-1" edge="1">
          <mxGeometry width="50" height="50" relative="1" as="geometry">
            <mxPoint x="-1287.74" y="1702" as="sourcePoint" />
            <mxPoint x="-1180.65" y="1702" as="targetPoint" />
          </mxGeometry>
        </mxCell>
        <mxCell id="iRaDpfIdEziGBdws9H0w-1147" style="edgeStyle=orthogonalEdgeStyle;rounded=0;orthogonalLoop=1;jettySize=auto;html=1;exitX=0.5;exitY=0;exitDx=0;exitDy=0;endArrow=none;endFill=0;startArrow=classic;startFill=1;" parent="yUSP1gVK_hTuVBHj87YH-1" source="iRaDpfIdEziGBdws9H0w-1150" edge="1">
          <mxGeometry relative="1" as="geometry">
            <mxPoint x="-1189" y="1702" as="targetPoint" />
          </mxGeometry>
        </mxCell>
        <mxCell id="iRaDpfIdEziGBdws9H0w-1148" style="edgeStyle=orthogonalEdgeStyle;rounded=0;orthogonalLoop=1;jettySize=auto;html=1;exitX=0.5;exitY=1;exitDx=0;exitDy=0;entryX=0.5;entryY=0;entryDx=0;entryDy=0;" parent="yUSP1gVK_hTuVBHj87YH-1" source="iRaDpfIdEziGBdws9H0w-1150" target="iRaDpfIdEziGBdws9H0w-1152" edge="1">
          <mxGeometry relative="1" as="geometry" />
        </mxCell>
        <mxCell id="iRaDpfIdEziGBdws9H0w-1149" value="on EAR timeout" style="edgeLabel;html=1;align=center;verticalAlign=middle;resizable=0;points=[];fontSize=8;" parent="iRaDpfIdEziGBdws9H0w-1148" connectable="0" vertex="1">
          <mxGeometry x="-0.3611" y="-1" relative="1" as="geometry">
            <mxPoint as="offset" />
          </mxGeometry>
        </mxCell>
        <mxCell id="iRaDpfIdEziGBdws9H0w-1150" value="Begin timer for&lt;br&gt;EAR timeout" style="rounded=1;whiteSpace=wrap;html=1;fontSize=10;" parent="yUSP1gVK_hTuVBHj87YH-1" vertex="1">
          <mxGeometry x="-1239.19" y="1728" width="100" height="30" as="geometry" />
        </mxCell>
        <mxCell id="iRaDpfIdEziGBdws9H0w-1151" style="edgeStyle=orthogonalEdgeStyle;rounded=0;orthogonalLoop=1;jettySize=auto;html=1;exitX=0.5;exitY=1;exitDx=0;exitDy=0;entryX=0;entryY=0.5;entryDx=0;entryDy=0;" parent="yUSP1gVK_hTuVBHj87YH-1" target="iRaDpfIdEziGBdws9H0w-1056" edge="1">
          <mxGeometry relative="1" as="geometry">
            <mxPoint x="-1278" y="1702" as="sourcePoint" />
            <mxPoint x="-1278" y="1791" as="targetPoint" />
            <Array as="points">
              <mxPoint x="-1278" y="1810" />
              <mxPoint x="-1550" y="1810" />
              <mxPoint x="-1550" y="458" />
            </Array>
          </mxGeometry>
        </mxCell>
        <mxCell id="iRaDpfIdEziGBdws9H0w-1152" value="Delete UUID&lt;br&gt;from the &lt;b&gt;Store&lt;/b&gt;" style="rounded=1;whiteSpace=wrap;html=1;fontSize=10;" parent="yUSP1gVK_hTuVBHj87YH-1" vertex="1">
          <mxGeometry x="-1239.19" y="1788" width="100" height="30" as="geometry" />
        </mxCell>
        <mxCell id="iRaDpfIdEziGBdws9H0w-1153" style="edgeStyle=orthogonalEdgeStyle;rounded=0;orthogonalLoop=1;jettySize=auto;html=1;exitX=0.5;exitY=1;exitDx=0;exitDy=0;" parent="yUSP1gVK_hTuVBHj87YH-1" edge="1">
          <mxGeometry relative="1" as="geometry">
            <mxPoint x="-1049.2601156069363" y="1615.25" as="targetPoint" />
            <mxPoint x="-1049" y="1570.25" as="sourcePoint" />
            <Array as="points">
              <mxPoint x="-1049" y="1593" />
              <mxPoint x="-1049" y="1593" />
            </Array>
          </mxGeometry>
        </mxCell>
        <mxCell id="iRaDpfIdEziGBdws9H0w-1154" value="" style="endArrow=none;html=1;rounded=0;strokeWidth=4;" parent="yUSP1gVK_hTuVBHj87YH-1" edge="1">
          <mxGeometry width="50" height="50" relative="1" as="geometry">
            <mxPoint x="-1102.74" y="1619.25" as="sourcePoint" />
            <mxPoint x="-995.65" y="1619.25" as="targetPoint" />
          </mxGeometry>
        </mxCell>
        <mxCell id="iRaDpfIdEziGBdws9H0w-1155" style="edgeStyle=orthogonalEdgeStyle;rounded=0;orthogonalLoop=1;jettySize=auto;html=1;exitX=0.5;exitY=0;exitDx=0;exitDy=0;endArrow=none;endFill=0;startArrow=classic;startFill=1;" parent="yUSP1gVK_hTuVBHj87YH-1" source="iRaDpfIdEziGBdws9H0w-1158" edge="1">
          <mxGeometry relative="1" as="geometry">
            <mxPoint x="-1004" y="1619.25" as="targetPoint" />
          </mxGeometry>
        </mxCell>
        <mxCell id="iRaDpfIdEziGBdws9H0w-1156" style="edgeStyle=orthogonalEdgeStyle;rounded=0;orthogonalLoop=1;jettySize=auto;html=1;exitX=0.5;exitY=1;exitDx=0;exitDy=0;entryX=0.5;entryY=0;entryDx=0;entryDy=0;" parent="yUSP1gVK_hTuVBHj87YH-1" source="iRaDpfIdEziGBdws9H0w-1158" target="iRaDpfIdEziGBdws9H0w-1160" edge="1">
          <mxGeometry relative="1" as="geometry" />
        </mxCell>
        <mxCell id="iRaDpfIdEziGBdws9H0w-1157" value="on MAR timeout" style="edgeLabel;html=1;align=center;verticalAlign=middle;resizable=0;points=[];fontSize=8;" parent="iRaDpfIdEziGBdws9H0w-1156" connectable="0" vertex="1">
          <mxGeometry x="-0.3611" y="-1" relative="1" as="geometry">
            <mxPoint as="offset" />
          </mxGeometry>
        </mxCell>
        <mxCell id="iRaDpfIdEziGBdws9H0w-1158" value="Begin timer for&lt;br&gt;MAR timeout" style="rounded=1;whiteSpace=wrap;html=1;fontSize=10;" parent="yUSP1gVK_hTuVBHj87YH-1" vertex="1">
          <mxGeometry x="-1054.19" y="1645.25" width="100" height="30" as="geometry" />
        </mxCell>
        <mxCell id="iRaDpfIdEziGBdws9H0w-1159" style="edgeStyle=orthogonalEdgeStyle;rounded=0;orthogonalLoop=1;jettySize=auto;html=1;exitX=0.5;exitY=1;exitDx=0;exitDy=0;entryX=0;entryY=0.5;entryDx=0;entryDy=0;" parent="yUSP1gVK_hTuVBHj87YH-1" target="iRaDpfIdEziGBdws9H0w-1056" edge="1">
          <mxGeometry relative="1" as="geometry">
            <mxPoint x="-1093" y="1619.25" as="sourcePoint" />
            <mxPoint x="-1093" y="1708.25" as="targetPoint" />
            <Array as="points">
              <mxPoint x="-1093" y="1680" />
              <mxPoint x="-1070" y="1680" />
              <mxPoint x="-1070" y="1890" />
              <mxPoint x="-1550" y="1890" />
              <mxPoint x="-1550" y="458" />
            </Array>
          </mxGeometry>
        </mxCell>
        <mxCell id="iRaDpfIdEziGBdws9H0w-1160" value="Delete UUID&lt;br&gt;from the &lt;b&gt;Store&lt;/b&gt;" style="rounded=1;whiteSpace=wrap;html=1;fontSize=10;" parent="yUSP1gVK_hTuVBHj87YH-1" vertex="1">
          <mxGeometry x="-1054.19" y="1705.25" width="100" height="30" as="geometry" />
        </mxCell>
        <mxCell id="iRaDpfIdEziGBdws9H0w-1161" style="edgeStyle=orthogonalEdgeStyle;rounded=0;orthogonalLoop=1;jettySize=auto;html=1;exitX=0.5;exitY=1;exitDx=0;exitDy=0;entryX=0;entryY=0.5;entryDx=0;entryDy=0;" parent="yUSP1gVK_hTuVBHj87YH-1" target="iRaDpfIdEziGBdws9H0w-1056" edge="1">
          <mxGeometry relative="1" as="geometry">
            <mxPoint x="-850.5" y="1218" as="sourcePoint" />
            <mxPoint x="-850.0000000000005" y="1241" as="targetPoint" />
            <Array as="points">
              <mxPoint x="-851" y="1890" />
              <mxPoint x="-1550" y="1890" />
              <mxPoint x="-1550" y="458" />
            </Array>
          </mxGeometry>
        </mxCell>
        <mxCell id="iRaDpfIdEziGBdws9H0w-1162" value="ASSESSING / PRESENTING" style="rounded=1;whiteSpace=wrap;html=1;arcSize=50;fontSize=8;fillColor=#999999;fontColor=#FFFFFF;" parent="yUSP1gVK_hTuVBHj87YH-1" vertex="1">
          <mxGeometry x="-1295.54" y="988" width="122.69" height="10.5" as="geometry" />
        </mxCell>
        <mxCell id="iRaDpfIdEziGBdws9H0w-1163" value="CLOSED / –" style="rounded=1;whiteSpace=wrap;html=1;arcSize=50;fontSize=8;fillColor=#999999;fontColor=#FFFFFF;" parent="yUSP1gVK_hTuVBHj87YH-1" vertex="1">
          <mxGeometry x="-1081.9699999999998" y="1375" width="64.93" height="10.5" as="geometry" />
        </mxCell>
        <mxCell id="iRaDpfIdEziGBdws9H0w-1164" value="RESERVED / –" style="rounded=1;whiteSpace=wrap;html=1;arcSize=50;fontSize=8;fillColor=#999999;fontColor=#FFFFFF;" parent="yUSP1gVK_hTuVBHj87YH-1" vertex="1">
          <mxGeometry x="-888" y="1149" width="76" height="10.5" as="geometry" />
        </mxCell>
        <mxCell id="iRaDpfIdEziGBdws9H0w-1165" value="CLOSED / CLOSED" style="rounded=1;whiteSpace=wrap;html=1;arcSize=50;fontSize=8;fillColor=#999999;fontColor=#FFFFFF;" parent="yUSP1gVK_hTuVBHj87YH-1" vertex="1">
          <mxGeometry x="-1461.0700000000002" y="1589" width="91.07" height="10.5" as="geometry" />
        </mxCell>
        <mxCell id="iRaDpfIdEziGBdws9H0w-1166" value="PRE_RESERVED / PRE_RESERVED" style="rounded=1;whiteSpace=wrap;html=1;arcSize=50;fontSize=8;fillColor=#999999;fontColor=#FFFFFF;" parent="yUSP1gVK_hTuVBHj87YH-1" vertex="1">
          <mxGeometry x="-1308.85" y="1664.75" width="148.85" height="10.5" as="geometry" />
        </mxCell>
        <mxCell id="iRaDpfIdEziGBdws9H0w-1167" value="PRE_RESERVED / AUCTION_WAITING" style="rounded=1;whiteSpace=wrap;html=1;arcSize=50;fontSize=8;fillColor=#999999;fontColor=#FFFFFF;" parent="yUSP1gVK_hTuVBHj87YH-1" vertex="1">
          <mxGeometry x="-1129.01" y="1589" width="159.01" height="10.5" as="geometry" />
        </mxCell>
        <mxCell id="iRaDpfIdEziGBdws9H0w-1168" value="B.1" style="rounded=1;whiteSpace=wrap;html=1;arcSize=50;fontSize=8;" parent="yUSP1gVK_hTuVBHj87YH-1" vertex="1">
          <mxGeometry x="-1311.73" y="1062.75" width="29.54" height="10.5" as="geometry" />
        </mxCell>
        <mxCell id="iRaDpfIdEziGBdws9H0w-1169" value="B.1.1.1" style="rounded=1;whiteSpace=wrap;html=1;arcSize=50;fontSize=8;" parent="yUSP1gVK_hTuVBHj87YH-1" vertex="1">
          <mxGeometry x="-1129.01" y="1028" width="39.01" height="10.5" as="geometry" />
        </mxCell>
        <mxCell id="iRaDpfIdEziGBdws9H0w-1170" value="B.1.2.1" style="rounded=1;whiteSpace=wrap;html=1;arcSize=50;fontSize=8;" parent="yUSP1gVK_hTuVBHj87YH-1" vertex="1">
          <mxGeometry x="-1314.69" y="1177.5" width="39.01" height="10.5" as="geometry" />
        </mxCell>
        <mxCell id="iRaDpfIdEziGBdws9H0w-1171" value="B.1.1.1.1.1" style="rounded=1;whiteSpace=wrap;html=1;arcSize=50;fontSize=8;" parent="yUSP1gVK_hTuVBHj87YH-1" vertex="1">
          <mxGeometry x="-900" y="1035" width="50" height="10.5" as="geometry" />
        </mxCell>
        <mxCell id="iRaDpfIdEziGBdws9H0w-1172" value="B.1.1.1.1.2" style="rounded=1;whiteSpace=wrap;html=1;arcSize=50;fontSize=8;" parent="yUSP1gVK_hTuVBHj87YH-1" vertex="1">
          <mxGeometry x="-931" y="1115" width="50" height="10.5" as="geometry" />
        </mxCell>
        <mxCell id="iRaDpfIdEziGBdws9H0w-1173" value="B.1.1.1.1.3" style="rounded=1;whiteSpace=wrap;html=1;arcSize=50;fontSize=8;" parent="yUSP1gVK_hTuVBHj87YH-1" vertex="1">
          <mxGeometry x="-960" y="1197.75" width="50" height="10.5" as="geometry" />
        </mxCell>
        <mxCell id="iRaDpfIdEziGBdws9H0w-1174" value="B.1.1.2" style="rounded=1;whiteSpace=wrap;html=1;arcSize=50;fontSize=8;" parent="yUSP1gVK_hTuVBHj87YH-1" vertex="1">
          <mxGeometry x="-1016" y="1332.75" width="39.01" height="10.5" as="geometry" />
        </mxCell>
        <mxCell id="iRaDpfIdEziGBdws9H0w-1175" value="B.1.1.3" style="rounded=1;whiteSpace=wrap;html=1;arcSize=50;fontSize=8;" parent="yUSP1gVK_hTuVBHj87YH-1" vertex="1">
          <mxGeometry x="-990" y="1427.75" width="39.01" height="10.5" as="geometry" />
        </mxCell>
        <mxCell id="iRaDpfIdEziGBdws9H0w-1176" value="B.1.2.1.1.1" style="rounded=1;whiteSpace=wrap;html=1;arcSize=50;fontSize=8;" parent="yUSP1gVK_hTuVBHj87YH-1" vertex="1">
          <mxGeometry x="-1318.97" y="1298" width="48.97" height="10.5" as="geometry" />
        </mxCell>
        <mxCell id="iRaDpfIdEziGBdws9H0w-1177" value="B.1.2.1.2.1" style="rounded=1;whiteSpace=wrap;html=1;arcSize=50;fontSize=8;" parent="yUSP1gVK_hTuVBHj87YH-1" vertex="1">
          <mxGeometry x="-1173.97" y="1477.75" width="48.97" height="10.5" as="geometry" />
        </mxCell>
        <mxCell id="iRaDpfIdEziGBdws9H0w-1178" value="B.1.2.1.1.2" style="rounded=1;whiteSpace=wrap;html=1;arcSize=50;fontSize=8;" parent="yUSP1gVK_hTuVBHj87YH-1" vertex="1">
          <mxGeometry x="-1173.97" y="1427.75" width="48.97" height="10.5" as="geometry" />
        </mxCell>
        <mxCell id="iRaDpfIdEziGBdws9H0w-1179" value="B.1.2.2" style="rounded=1;whiteSpace=wrap;html=1;arcSize=50;fontSize=8;" parent="yUSP1gVK_hTuVBHj87YH-1" vertex="1">
          <mxGeometry x="-1289.15" y="1518" width="34.19" height="10.5" as="geometry" />
        </mxCell>
        <mxCell id="iRaDpfIdEziGBdws9H0w-1180" value="B.1.2.2.1.1" style="rounded=1;whiteSpace=wrap;html=1;arcSize=50;fontSize=8;" parent="yUSP1gVK_hTuVBHj87YH-1" vertex="1">
          <mxGeometry x="-1016" y="1552.75" width="48.97" height="10.5" as="geometry" />
        </mxCell>
        <mxCell id="iRaDpfIdEziGBdws9H0w-1181" value="B.1.2.2.2.1" style="rounded=1;whiteSpace=wrap;html=1;arcSize=50;fontSize=8;" parent="yUSP1gVK_hTuVBHj87YH-1" vertex="1">
          <mxGeometry x="-1201.44" y="1634.75" width="48.97" height="10.5" as="geometry" />
        </mxCell>
        <mxCell id="iRaDpfIdEziGBdws9H0w-1182" value="B.1.2.2.3.1" style="rounded=1;whiteSpace=wrap;html=1;arcSize=50;fontSize=8;" parent="yUSP1gVK_hTuVBHj87YH-1" vertex="1">
          <mxGeometry x="-1496" y="1552.75" width="48.97" height="10.5" as="geometry" />
        </mxCell>
        <mxCell id="iRaDpfIdEziGBdws9H0w-1183" value="B.1.2.2.3.2" style="rounded=1;whiteSpace=wrap;html=1;arcSize=50;fontSize=8;" parent="yUSP1gVK_hTuVBHj87YH-1" vertex="1">
          <mxGeometry x="-1520" y="1635" width="48.97" height="10.5" as="geometry" />
        </mxCell>
        <mxCell id="iRaDpfIdEziGBdws9H0w-1184" value="B.1.2.2.2.2" style="rounded=1;whiteSpace=wrap;html=1;arcSize=50;fontSize=8;" parent="yUSP1gVK_hTuVBHj87YH-1" vertex="1">
          <mxGeometry x="-1132" y="1737.75" width="48.97" height="10.5" as="geometry" />
        </mxCell>
        <mxCell id="iRaDpfIdEziGBdws9H0w-1185" value="B.1.2.2.2.3" style="rounded=1;whiteSpace=wrap;html=1;arcSize=50;fontSize=8;" parent="yUSP1gVK_hTuVBHj87YH-1" vertex="1">
          <mxGeometry x="-1132" y="1797.75" width="48.97" height="10.5" as="geometry" />
        </mxCell>
        <mxCell id="iRaDpfIdEziGBdws9H0w-1186" value="B.1.2.2.1.2" style="rounded=1;whiteSpace=wrap;html=1;arcSize=50;fontSize=8;" parent="yUSP1gVK_hTuVBHj87YH-1" vertex="1">
          <mxGeometry x="-946.97" y="1655" width="48.97" height="10.5" as="geometry" />
        </mxCell>
        <mxCell id="iRaDpfIdEziGBdws9H0w-1187" value="B.1.2.2.1.3" style="rounded=1;whiteSpace=wrap;html=1;arcSize=50;fontSize=8;" parent="yUSP1gVK_hTuVBHj87YH-1" vertex="1">
          <mxGeometry x="-946.97" y="1715" width="48.97" height="10.5" as="geometry" />
        </mxCell>
        <mxCell id="iRaDpfIdEziGBdws9H0w-1188" value="&lt;font color=&quot;#ffffff&quot;&gt;C&lt;/font&gt;" style="ellipse;html=1;shape=startState;fillColor=#006600;strokeColor=#000000;" parent="yUSP1gVK_hTuVBHj87YH-1" vertex="1">
          <mxGeometry x="-666.98" y="945" width="24" height="24" as="geometry" />
        </mxCell>
        <mxCell id="iRaDpfIdEziGBdws9H0w-1189" style="edgeStyle=orthogonalEdgeStyle;rounded=0;orthogonalLoop=1;jettySize=auto;html=1;exitX=0.5;exitY=1;exitDx=0;exitDy=0;entryX=0.5;entryY=0;entryDx=0;entryDy=0;" parent="yUSP1gVK_hTuVBHj87YH-1" source="iRaDpfIdEziGBdws9H0w-1188" target="iRaDpfIdEziGBdws9H0w-1195" edge="1">
          <mxGeometry relative="1" as="geometry" />
        </mxCell>
        <mxCell id="iRaDpfIdEziGBdws9H0w-1190" value="AUCTION_BIDDING" style="rounded=1;whiteSpace=wrap;html=1;arcSize=50;fontSize=8;fillColor=#999999;fontColor=#FFFFFF;" parent="yUSP1gVK_hTuVBHj87YH-1" vertex="1">
          <mxGeometry x="-698.95" y="988" width="88.39" height="10.5" as="geometry" />
        </mxCell>
        <mxCell id="iRaDpfIdEziGBdws9H0w-1191" style="edgeStyle=orthogonalEdgeStyle;rounded=0;orthogonalLoop=1;jettySize=auto;html=1;exitX=1;exitY=0.5;exitDx=0;exitDy=0;entryX=0;entryY=0.5;entryDx=0;entryDy=0;" parent="yUSP1gVK_hTuVBHj87YH-1" source="iRaDpfIdEziGBdws9H0w-1195" target="iRaDpfIdEziGBdws9H0w-1197" edge="1">
          <mxGeometry relative="1" as="geometry" />
        </mxCell>
        <mxCell id="iRaDpfIdEziGBdws9H0w-1192" value="N" style="edgeLabel;html=1;align=center;verticalAlign=middle;resizable=0;points=[];fontSize=8;" parent="iRaDpfIdEziGBdws9H0w-1191" connectable="0" vertex="1">
          <mxGeometry x="-0.1522" y="1" relative="1" as="geometry">
            <mxPoint x="-4" as="offset" />
          </mxGeometry>
        </mxCell>
        <mxCell id="iRaDpfIdEziGBdws9H0w-1193" style="edgeStyle=orthogonalEdgeStyle;rounded=0;orthogonalLoop=1;jettySize=auto;html=1;exitX=0.5;exitY=1;exitDx=0;exitDy=0;entryX=0.5;entryY=0;entryDx=0;entryDy=0;" parent="yUSP1gVK_hTuVBHj87YH-1" source="iRaDpfIdEziGBdws9H0w-1195" target="iRaDpfIdEziGBdws9H0w-1202" edge="1">
          <mxGeometry relative="1" as="geometry" />
        </mxCell>
        <mxCell id="iRaDpfIdEziGBdws9H0w-1194" value="Y" style="edgeLabel;html=1;align=center;verticalAlign=middle;resizable=0;points=[];fontSize=8;" parent="iRaDpfIdEziGBdws9H0w-1193" connectable="0" vertex="1">
          <mxGeometry x="-0.2886" y="2" relative="1" as="geometry">
            <mxPoint x="-2" y="-2" as="offset" />
          </mxGeometry>
        </mxCell>
        <mxCell id="iRaDpfIdEziGBdws9H0w-1195" value="Can &lt;i&gt;R&lt;/i&gt;&amp;nbsp;be performed&lt;br&gt;with priority &lt;i&gt;p&lt;/i&gt;?" style="rhombus;whiteSpace=wrap;html=1;" parent="yUSP1gVK_hTuVBHj87YH-1" vertex="1">
          <mxGeometry x="-735.25" y="1024" width="161" height="80" as="geometry" />
        </mxCell>
        <mxCell id="iRaDpfIdEziGBdws9H0w-1196" style="edgeStyle=orthogonalEdgeStyle;rounded=0;orthogonalLoop=1;jettySize=auto;html=1;exitX=0.5;exitY=1;exitDx=0;exitDy=0;entryX=0.5;entryY=0;entryDx=0;entryDy=0;" parent="yUSP1gVK_hTuVBHj87YH-1" source="iRaDpfIdEziGBdws9H0w-1197" target="iRaDpfIdEziGBdws9H0w-1200" edge="1">
          <mxGeometry relative="1" as="geometry" />
        </mxCell>
        <mxCell id="iRaDpfIdEziGBdws9H0w-1197" value="BID 0" style="shape=step;perimeter=stepPerimeter;whiteSpace=wrap;html=1;fixedSize=1;size=5;strokeColor=#FF8000;fontColor=#FF8000;" parent="yUSP1gVK_hTuVBHj87YH-1" vertex="1">
          <mxGeometry x="-517.56" y="1051.75" width="50" height="24.5" as="geometry" />
        </mxCell>
        <mxCell id="iRaDpfIdEziGBdws9H0w-1198" value="CLOSED" style="rounded=1;whiteSpace=wrap;html=1;arcSize=50;fontSize=8;fillColor=#999999;fontColor=#FFFFFF;" parent="yUSP1gVK_hTuVBHj87YH-1" vertex="1">
          <mxGeometry x="-524.5699999999999" y="1104" width="64.01" height="10.5" as="geometry" />
        </mxCell>
        <mxCell id="iRaDpfIdEziGBdws9H0w-1199" style="edgeStyle=orthogonalEdgeStyle;rounded=0;orthogonalLoop=1;jettySize=auto;html=1;exitX=0.5;exitY=1;exitDx=0;exitDy=0;entryX=0;entryY=0.5;entryDx=0;entryDy=0;" parent="yUSP1gVK_hTuVBHj87YH-1" source="iRaDpfIdEziGBdws9H0w-1200" target="iRaDpfIdEziGBdws9H0w-1056" edge="1">
          <mxGeometry relative="1" as="geometry">
            <mxPoint x="-492.57000000000016" y="1202" as="targetPoint" />
            <Array as="points">
              <mxPoint x="-493" y="1890" />
              <mxPoint x="-1550" y="1890" />
              <mxPoint x="-1550" y="458" />
            </Array>
          </mxGeometry>
        </mxCell>
        <mxCell id="iRaDpfIdEziGBdws9H0w-1200" value="Delete UUID&lt;br&gt;from the &lt;b&gt;Store&lt;/b&gt;" style="rounded=1;whiteSpace=wrap;html=1;fontSize=10;" parent="yUSP1gVK_hTuVBHj87YH-1" vertex="1">
          <mxGeometry x="-542.56" y="1144.5" width="100" height="30" as="geometry" />
        </mxCell>
        <mxCell id="iRaDpfIdEziGBdws9H0w-1201" style="edgeStyle=orthogonalEdgeStyle;rounded=0;orthogonalLoop=1;jettySize=auto;html=1;exitX=0.5;exitY=1;exitDx=0;exitDy=0;entryX=0.5;entryY=0;entryDx=0;entryDy=0;" parent="yUSP1gVK_hTuVBHj87YH-1" source="iRaDpfIdEziGBdws9H0w-1202" target="iRaDpfIdEziGBdws9H0w-1204" edge="1">
          <mxGeometry relative="1" as="geometry" />
        </mxCell>
        <mxCell id="iRaDpfIdEziGBdws9H0w-1202" value="Estimate bid&lt;br&gt;(save as &lt;i&gt;b&lt;/i&gt;)" style="rounded=1;whiteSpace=wrap;html=1;fontSize=10;" parent="yUSP1gVK_hTuVBHj87YH-1" vertex="1">
          <mxGeometry x="-704.98" y="1144.5" width="100" height="30" as="geometry" />
        </mxCell>
        <mxCell id="iRaDpfIdEziGBdws9H0w-1203" style="edgeStyle=orthogonalEdgeStyle;rounded=0;orthogonalLoop=1;jettySize=auto;html=1;exitX=0.5;exitY=1;exitDx=0;exitDy=0;entryX=0.5;entryY=0;entryDx=0;entryDy=0;" parent="yUSP1gVK_hTuVBHj87YH-1" source="iRaDpfIdEziGBdws9H0w-1204" target="iRaDpfIdEziGBdws9H0w-1206" edge="1">
          <mxGeometry relative="1" as="geometry" />
        </mxCell>
        <mxCell id="iRaDpfIdEziGBdws9H0w-1204" value="BID &lt;i&gt;b&lt;/i&gt;" style="shape=step;perimeter=stepPerimeter;whiteSpace=wrap;html=1;fixedSize=1;size=5;strokeColor=#FF8000;fontColor=#FF8000;" parent="yUSP1gVK_hTuVBHj87YH-1" vertex="1">
          <mxGeometry x="-679.75" y="1201.75" width="50" height="24.5" as="geometry" />
        </mxCell>
        <mxCell id="iRaDpfIdEziGBdws9H0w-1205" style="edgeStyle=orthogonalEdgeStyle;rounded=0;orthogonalLoop=1;jettySize=auto;html=1;exitX=0.5;exitY=1;exitDx=0;exitDy=0;" parent="yUSP1gVK_hTuVBHj87YH-1" source="iRaDpfIdEziGBdws9H0w-1206" edge="1">
          <mxGeometry relative="1" as="geometry">
            <mxPoint x="-654.5792307692307" y="1343" as="targetPoint" />
          </mxGeometry>
        </mxCell>
        <mxCell id="iRaDpfIdEziGBdws9H0w-1206" value="Pre-reserve &lt;i&gt;R&lt;/i&gt;&amp;nbsp;with&lt;br&gt;UUID in &lt;b&gt;Store&lt;/b&gt;" style="rounded=1;whiteSpace=wrap;html=1;fontSize=10;" parent="yUSP1gVK_hTuVBHj87YH-1" vertex="1">
          <mxGeometry x="-704.75" y="1284" width="100" height="30" as="geometry" />
        </mxCell>
        <mxCell id="iRaDpfIdEziGBdws9H0w-1207" value="" style="endArrow=none;html=1;rounded=0;strokeWidth=4;" parent="yUSP1gVK_hTuVBHj87YH-1" edge="1">
          <mxGeometry width="50" height="50" relative="1" as="geometry">
            <mxPoint x="-707.27" y="1345.5" as="sourcePoint" />
            <mxPoint x="-600.1800000000001" y="1345.5" as="targetPoint" />
          </mxGeometry>
        </mxCell>
        <mxCell id="iRaDpfIdEziGBdws9H0w-1208" style="edgeStyle=orthogonalEdgeStyle;rounded=0;orthogonalLoop=1;jettySize=auto;html=1;exitX=0.5;exitY=0;exitDx=0;exitDy=0;endArrow=none;endFill=0;startArrow=classic;startFill=1;" parent="yUSP1gVK_hTuVBHj87YH-1" source="iRaDpfIdEziGBdws9H0w-1211" edge="1">
          <mxGeometry relative="1" as="geometry">
            <mxPoint x="-608.53" y="1345.5" as="targetPoint" />
          </mxGeometry>
        </mxCell>
        <mxCell id="iRaDpfIdEziGBdws9H0w-1209" style="edgeStyle=orthogonalEdgeStyle;rounded=0;orthogonalLoop=1;jettySize=auto;html=1;exitX=0.5;exitY=1;exitDx=0;exitDy=0;entryX=0.5;entryY=0;entryDx=0;entryDy=0;" parent="yUSP1gVK_hTuVBHj87YH-1" source="iRaDpfIdEziGBdws9H0w-1211" target="iRaDpfIdEziGBdws9H0w-1213" edge="1">
          <mxGeometry relative="1" as="geometry" />
        </mxCell>
        <mxCell id="iRaDpfIdEziGBdws9H0w-1210" value="on BID timeout" style="edgeLabel;html=1;align=center;verticalAlign=middle;resizable=0;points=[];fontSize=8;" parent="iRaDpfIdEziGBdws9H0w-1209" connectable="0" vertex="1">
          <mxGeometry x="-0.3611" y="-1" relative="1" as="geometry">
            <mxPoint as="offset" />
          </mxGeometry>
        </mxCell>
        <mxCell id="iRaDpfIdEziGBdws9H0w-1211" value="Begin timer for&lt;br&gt;BID timeout" style="rounded=1;whiteSpace=wrap;html=1;fontSize=10;" parent="yUSP1gVK_hTuVBHj87YH-1" vertex="1">
          <mxGeometry x="-658.72" y="1371.5" width="100" height="30" as="geometry" />
        </mxCell>
        <mxCell id="iRaDpfIdEziGBdws9H0w-1212" style="edgeStyle=orthogonalEdgeStyle;rounded=0;orthogonalLoop=1;jettySize=auto;html=1;exitX=0.5;exitY=1;exitDx=0;exitDy=0;entryX=0;entryY=0.5;entryDx=0;entryDy=0;" parent="yUSP1gVK_hTuVBHj87YH-1" target="iRaDpfIdEziGBdws9H0w-1056" edge="1">
          <mxGeometry relative="1" as="geometry">
            <mxPoint x="-697.53" y="1345.5" as="sourcePoint" />
            <mxPoint x="-697.5300000000007" y="1434.5" as="targetPoint" />
            <Array as="points">
              <mxPoint x="-697" y="1890" />
              <mxPoint x="-1550" y="1890" />
              <mxPoint x="-1550" y="458" />
            </Array>
          </mxGeometry>
        </mxCell>
        <mxCell id="iRaDpfIdEziGBdws9H0w-1213" value="Delete UUID&lt;br&gt;from the &lt;b&gt;Store&lt;/b&gt;" style="rounded=1;whiteSpace=wrap;html=1;fontSize=10;" parent="yUSP1gVK_hTuVBHj87YH-1" vertex="1">
          <mxGeometry x="-658.72" y="1431.5" width="100" height="30" as="geometry" />
        </mxCell>
        <mxCell id="iRaDpfIdEziGBdws9H0w-1214" value="C.1.2.4" style="rounded=1;whiteSpace=wrap;html=1;arcSize=50;fontSize=8;" parent="yUSP1gVK_hTuVBHj87YH-1" vertex="1">
          <mxGeometry x="-551.53" y="1381.25" width="30.97" height="10.5" as="geometry" />
        </mxCell>
        <mxCell id="iRaDpfIdEziGBdws9H0w-1215" value="C.1.2.5" style="rounded=1;whiteSpace=wrap;html=1;arcSize=50;fontSize=8;" parent="yUSP1gVK_hTuVBHj87YH-1" vertex="1">
          <mxGeometry x="-551.53" y="1441.25" width="30.97" height="10.5" as="geometry" />
        </mxCell>
        <mxCell id="iRaDpfIdEziGBdws9H0w-1216" value="PRE_RESERVED" style="rounded=1;whiteSpace=wrap;html=1;arcSize=50;fontSize=8;fillColor=#999999;fontColor=#FFFFFF;" parent="yUSP1gVK_hTuVBHj87YH-1" vertex="1">
          <mxGeometry x="-695.39" y="1247" width="80.83" height="10.5" as="geometry" />
        </mxCell>
        <mxCell id="iRaDpfIdEziGBdws9H0w-1217" value="C.1" style="rounded=1;whiteSpace=wrap;html=1;arcSize=50;fontSize=8;" parent="yUSP1gVK_hTuVBHj87YH-1" vertex="1">
          <mxGeometry x="-735.25" y="1024" width="24.69" height="10.5" as="geometry" />
        </mxCell>
        <mxCell id="iRaDpfIdEziGBdws9H0w-1218" value="C.1.1.1" style="rounded=1;whiteSpace=wrap;html=1;arcSize=50;fontSize=8;" parent="yUSP1gVK_hTuVBHj87YH-1" vertex="1">
          <mxGeometry x="-460.56" y="1058.75" width="40" height="10.5" as="geometry" />
        </mxCell>
        <mxCell id="iRaDpfIdEziGBdws9H0w-1219" value="C.1.1.2" style="rounded=1;whiteSpace=wrap;html=1;arcSize=50;fontSize=8;" parent="yUSP1gVK_hTuVBHj87YH-1" vertex="1">
          <mxGeometry x="-432.55999999999995" y="1154.25" width="40" height="10.5" as="geometry" />
        </mxCell>
        <mxCell id="iRaDpfIdEziGBdws9H0w-1220" value="C.1.2.1" style="rounded=1;whiteSpace=wrap;html=1;arcSize=50;fontSize=8;" parent="yUSP1gVK_hTuVBHj87YH-1" vertex="1">
          <mxGeometry x="-750.56" y="1154.25" width="40" height="10.5" as="geometry" />
        </mxCell>
        <mxCell id="iRaDpfIdEziGBdws9H0w-1221" value="C.1.2.2" style="rounded=1;whiteSpace=wrap;html=1;arcSize=50;fontSize=8;" parent="yUSP1gVK_hTuVBHj87YH-1" vertex="1">
          <mxGeometry x="-725.53" y="1208.75" width="40" height="10.5" as="geometry" />
        </mxCell>
        <mxCell id="iRaDpfIdEziGBdws9H0w-1222" value="C.1.2.3" style="rounded=1;whiteSpace=wrap;html=1;arcSize=50;fontSize=8;" parent="yUSP1gVK_hTuVBHj87YH-1" vertex="1">
          <mxGeometry x="-752.56" y="1293.75" width="40" height="10.5" as="geometry" />
        </mxCell>
        <mxCell id="iRaDpfIdEziGBdws9H0w-1223" value="&lt;font color=&quot;#ffffff&quot;&gt;D&lt;/font&gt;" style="ellipse;html=1;shape=startState;fillColor=#FF8000;strokeColor=#000000;" parent="yUSP1gVK_hTuVBHj87YH-1" vertex="1">
          <mxGeometry x="-182.54999999999995" y="944.5" width="24" height="24" as="geometry" />
        </mxCell>
        <mxCell id="iRaDpfIdEziGBdws9H0w-1224" style="edgeStyle=orthogonalEdgeStyle;rounded=0;orthogonalLoop=1;jettySize=auto;html=1;entryX=0.5;entryY=0;entryDx=0;entryDy=0;exitX=0.5;exitY=1;exitDx=0;exitDy=0;" parent="yUSP1gVK_hTuVBHj87YH-1" source="iRaDpfIdEziGBdws9H0w-1223" edge="1">
          <mxGeometry relative="1" as="geometry">
            <mxPoint x="-156.14" y="1010.5" as="sourcePoint" />
            <mxPoint x="-170.33000000000004" y="1020.5" as="targetPoint" />
          </mxGeometry>
        </mxCell>
        <mxCell id="iRaDpfIdEziGBdws9H0w-1225" value="" style="endArrow=none;html=1;rounded=0;strokeWidth=4;" parent="yUSP1gVK_hTuVBHj87YH-1" edge="1">
          <mxGeometry width="50" height="50" relative="1" as="geometry">
            <mxPoint x="-275.14" y="1023.5" as="sourcePoint" />
            <mxPoint x="-65.13999999999999" y="1023.5" as="targetPoint" />
          </mxGeometry>
        </mxCell>
        <mxCell id="iRaDpfIdEziGBdws9H0w-1226" style="edgeStyle=orthogonalEdgeStyle;rounded=0;orthogonalLoop=1;jettySize=auto;html=1;exitX=0.5;exitY=0;exitDx=0;exitDy=0;endArrow=none;endFill=0;startArrow=classic;startFill=1;" parent="yUSP1gVK_hTuVBHj87YH-1" source="iRaDpfIdEziGBdws9H0w-1229" edge="1">
          <mxGeometry relative="1" as="geometry">
            <mxPoint x="-84.13999999999999" y="1023.5" as="targetPoint" />
          </mxGeometry>
        </mxCell>
        <mxCell id="iRaDpfIdEziGBdws9H0w-1227" style="edgeStyle=orthogonalEdgeStyle;rounded=0;orthogonalLoop=1;jettySize=auto;html=1;exitX=0.5;exitY=1;exitDx=0;exitDy=0;entryX=1;entryY=0.5;entryDx=0;entryDy=0;" parent="yUSP1gVK_hTuVBHj87YH-1" source="iRaDpfIdEziGBdws9H0w-1229" target="iRaDpfIdEziGBdws9H0w-1233" edge="1">
          <mxGeometry relative="1" as="geometry">
            <mxPoint x="-144.33000000000004" y="1109.5" as="targetPoint" />
          </mxGeometry>
        </mxCell>
        <mxCell id="iRaDpfIdEziGBdws9H0w-1228" value="stop on AUCT timeout" style="edgeLabel;html=1;align=center;verticalAlign=middle;resizable=0;points=[];fontSize=8;" parent="iRaDpfIdEziGBdws9H0w-1227" connectable="0" vertex="1">
          <mxGeometry x="-0.3611" y="-1" relative="1" as="geometry">
            <mxPoint x="-7" as="offset" />
          </mxGeometry>
        </mxCell>
        <mxCell id="iRaDpfIdEziGBdws9H0w-1229" value="Begin timer for&lt;br&gt;AUCT timeout" style="rounded=1;whiteSpace=wrap;html=1;fontSize=10;" parent="yUSP1gVK_hTuVBHj87YH-1" vertex="1">
          <mxGeometry x="-134.33000000000004" y="1049.5" width="100" height="30" as="geometry" />
        </mxCell>
        <mxCell id="iRaDpfIdEziGBdws9H0w-1230" style="edgeStyle=orthogonalEdgeStyle;rounded=0;orthogonalLoop=1;jettySize=auto;html=1;entryX=0.5;entryY=0;entryDx=0;entryDy=0;" parent="yUSP1gVK_hTuVBHj87YH-1" target="iRaDpfIdEziGBdws9H0w-1233" edge="1">
          <mxGeometry relative="1" as="geometry">
            <mxPoint x="-255.14" y="1023.5" as="sourcePoint" />
            <mxPoint x="-233.14" y="1112.5" as="targetPoint" />
          </mxGeometry>
        </mxCell>
        <mxCell id="iRaDpfIdEziGBdws9H0w-1231" value="D.1" style="rounded=1;whiteSpace=wrap;html=1;arcSize=50;fontSize=8;" parent="yUSP1gVK_hTuVBHj87YH-1" vertex="1">
          <mxGeometry x="-344.14" y="1059.25" width="30.97" height="10.5" as="geometry" />
        </mxCell>
        <mxCell id="iRaDpfIdEziGBdws9H0w-1232" style="edgeStyle=orthogonalEdgeStyle;rounded=0;orthogonalLoop=1;jettySize=auto;html=1;exitX=0.5;exitY=1;exitDx=0;exitDy=0;entryX=0.5;entryY=0;entryDx=0;entryDy=0;" parent="yUSP1gVK_hTuVBHj87YH-1" source="iRaDpfIdEziGBdws9H0w-1233" target="iRaDpfIdEziGBdws9H0w-1238" edge="1">
          <mxGeometry relative="1" as="geometry" />
        </mxCell>
        <mxCell id="iRaDpfIdEziGBdws9H0w-1233" value="Wait for all bids&lt;br&gt;(save as &lt;i&gt;B&lt;/i&gt;)" style="rounded=1;whiteSpace=wrap;html=1;fontSize=10;" parent="yUSP1gVK_hTuVBHj87YH-1" vertex="1">
          <mxGeometry x="-305.14" y="1049.5" width="100" height="30" as="geometry" />
        </mxCell>
        <mxCell id="iRaDpfIdEziGBdws9H0w-1234" style="edgeStyle=orthogonalEdgeStyle;rounded=0;orthogonalLoop=1;jettySize=auto;html=1;exitX=1;exitY=0.5;exitDx=0;exitDy=0;entryX=0;entryY=0.5;entryDx=0;entryDy=0;" parent="yUSP1gVK_hTuVBHj87YH-1" source="iRaDpfIdEziGBdws9H0w-1238" target="iRaDpfIdEziGBdws9H0w-1240" edge="1">
          <mxGeometry relative="1" as="geometry" />
        </mxCell>
        <mxCell id="iRaDpfIdEziGBdws9H0w-1235" value="0" style="edgeLabel;html=1;align=center;verticalAlign=middle;resizable=0;points=[];fontSize=8;" parent="iRaDpfIdEziGBdws9H0w-1234" connectable="0" vertex="1">
          <mxGeometry x="-0.8166" y="2" relative="1" as="geometry">
            <mxPoint y="2" as="offset" />
          </mxGeometry>
        </mxCell>
        <mxCell id="iRaDpfIdEziGBdws9H0w-1236" style="edgeStyle=orthogonalEdgeStyle;rounded=0;orthogonalLoop=1;jettySize=auto;html=1;exitX=0.5;exitY=1;exitDx=0;exitDy=0;entryX=0.5;entryY=0;entryDx=0;entryDy=0;" parent="yUSP1gVK_hTuVBHj87YH-1" source="iRaDpfIdEziGBdws9H0w-1238" target="iRaDpfIdEziGBdws9H0w-1246" edge="1">
          <mxGeometry relative="1" as="geometry" />
        </mxCell>
        <mxCell id="iRaDpfIdEziGBdws9H0w-1237" value="&amp;gt;0" style="edgeLabel;html=1;align=center;verticalAlign=middle;resizable=0;points=[];fontSize=8;" parent="iRaDpfIdEziGBdws9H0w-1236" connectable="0" vertex="1">
          <mxGeometry x="-0.562" y="-1" relative="1" as="geometry">
            <mxPoint x="1" y="3" as="offset" />
          </mxGeometry>
        </mxCell>
        <mxCell id="iRaDpfIdEziGBdws9H0w-1238" value="Cardinal&lt;br&gt;of &lt;i&gt;B&lt;/i&gt;" style="rhombus;whiteSpace=wrap;html=1;" parent="yUSP1gVK_hTuVBHj87YH-1" vertex="1">
          <mxGeometry x="-295.14" y="1100.5" width="80" height="80" as="geometry" />
        </mxCell>
        <mxCell id="iRaDpfIdEziGBdws9H0w-1239" style="edgeStyle=orthogonalEdgeStyle;rounded=0;orthogonalLoop=1;jettySize=auto;html=1;exitX=0.5;exitY=1;exitDx=0;exitDy=0;entryX=0.5;entryY=0;entryDx=0;entryDy=0;" parent="yUSP1gVK_hTuVBHj87YH-1" source="iRaDpfIdEziGBdws9H0w-1240" target="iRaDpfIdEziGBdws9H0w-1242" edge="1">
          <mxGeometry relative="1" as="geometry" />
        </mxCell>
        <mxCell id="iRaDpfIdEziGBdws9H0w-1240" value="REF" style="shape=step;perimeter=stepPerimeter;whiteSpace=wrap;html=1;fixedSize=1;size=5;strokeColor=#CC0000;fontColor=#CC0000;" parent="yUSP1gVK_hTuVBHj87YH-1" vertex="1">
          <mxGeometry x="-109.33000000000004" y="1128.25" width="50" height="24.5" as="geometry" />
        </mxCell>
        <mxCell id="iRaDpfIdEziGBdws9H0w-1241" style="edgeStyle=orthogonalEdgeStyle;rounded=0;orthogonalLoop=1;jettySize=auto;html=1;exitX=0.5;exitY=1;exitDx=0;exitDy=0;entryX=0;entryY=0.5;entryDx=0;entryDy=0;" parent="yUSP1gVK_hTuVBHj87YH-1" source="iRaDpfIdEziGBdws9H0w-1242" target="iRaDpfIdEziGBdws9H0w-1056" edge="1">
          <mxGeometry relative="1" as="geometry">
            <mxPoint x="63.85999999999967" y="1289.5" as="targetPoint" />
            <Array as="points">
              <mxPoint x="64" y="1320" />
              <mxPoint x="100" y="1320" />
              <mxPoint x="100" y="1890" />
              <mxPoint x="-1550" y="1890" />
              <mxPoint x="-1550" y="458" />
            </Array>
          </mxGeometry>
        </mxCell>
        <mxCell id="iRaDpfIdEziGBdws9H0w-1242" value="Delete UUID&lt;br&gt;from the &lt;b&gt;Store&lt;/b&gt;" style="rounded=1;whiteSpace=wrap;html=1;fontSize=10;" parent="yUSP1gVK_hTuVBHj87YH-1" vertex="1">
          <mxGeometry x="13.860000000000014" y="1235.5" width="100" height="30" as="geometry" />
        </mxCell>
        <mxCell id="iRaDpfIdEziGBdws9H0w-1243" style="edgeStyle=orthogonalEdgeStyle;rounded=0;orthogonalLoop=1;jettySize=auto;html=1;exitX=1;exitY=0.5;exitDx=0;exitDy=0;entryX=0;entryY=0.5;entryDx=0;entryDy=0;" parent="yUSP1gVK_hTuVBHj87YH-1" source="iRaDpfIdEziGBdws9H0w-1246" target="iRaDpfIdEziGBdws9H0w-1248" edge="1">
          <mxGeometry relative="1" as="geometry" />
        </mxCell>
        <mxCell id="iRaDpfIdEziGBdws9H0w-1244" value="Y" style="edgeLabel;html=1;align=center;verticalAlign=middle;resizable=0;points=[];fontSize=8;" parent="iRaDpfIdEziGBdws9H0w-1243" connectable="0" vertex="1">
          <mxGeometry x="-0.6151" relative="1" as="geometry">
            <mxPoint x="-7" as="offset" />
          </mxGeometry>
        </mxCell>
        <mxCell id="iRaDpfIdEziGBdws9H0w-1245" value="N" style="edgeStyle=orthogonalEdgeStyle;rounded=0;orthogonalLoop=1;jettySize=auto;html=1;exitX=0.5;exitY=1;exitDx=0;exitDy=0;entryX=0.5;entryY=0;entryDx=0;entryDy=0;fontSize=8;" parent="yUSP1gVK_hTuVBHj87YH-1" source="iRaDpfIdEziGBdws9H0w-1246" target="iRaDpfIdEziGBdws9H0w-1250" edge="1">
          <mxGeometry x="-0.4286" y="-1" relative="1" as="geometry">
            <mxPoint x="-255.14" y="1330.5" as="sourcePoint" />
            <mxPoint as="offset" />
          </mxGeometry>
        </mxCell>
        <mxCell id="iRaDpfIdEziGBdws9H0w-1246" value="Is &lt;i&gt;min&lt;/i&gt;(&lt;i&gt;B&lt;/i&gt;)&lt;br&gt;unique?" style="rhombus;whiteSpace=wrap;html=1;" parent="yUSP1gVK_hTuVBHj87YH-1" vertex="1">
          <mxGeometry x="-295.14" y="1210.5" width="80" height="80" as="geometry" />
        </mxCell>
        <mxCell id="iRaDpfIdEziGBdws9H0w-1247" style="edgeStyle=orthogonalEdgeStyle;rounded=0;orthogonalLoop=1;jettySize=auto;html=1;exitX=0.5;exitY=1;exitDx=0;exitDy=0;" parent="yUSP1gVK_hTuVBHj87YH-1" source="iRaDpfIdEziGBdws9H0w-1248" edge="1">
          <mxGeometry relative="1" as="geometry">
            <mxPoint x="-84.13999999999999" y="1330.5" as="targetPoint" />
          </mxGeometry>
        </mxCell>
        <mxCell id="iRaDpfIdEziGBdws9H0w-1248" value="&lt;font&gt;EAR to node&lt;br&gt;with &lt;i&gt;min&lt;/i&gt;(&lt;i&gt;B&lt;/i&gt;)&lt;br&gt;&lt;/font&gt;" style="shape=step;perimeter=stepPerimeter;whiteSpace=wrap;html=1;fixedSize=1;size=5;strokeColor=#3399FF;fontColor=#3399FF;" parent="yUSP1gVK_hTuVBHj87YH-1" vertex="1">
          <mxGeometry x="-132.51999999999998" y="1230.5" width="96.38" height="40" as="geometry" />
        </mxCell>
        <mxCell id="iRaDpfIdEziGBdws9H0w-1249" style="edgeStyle=orthogonalEdgeStyle;rounded=0;orthogonalLoop=1;jettySize=auto;html=1;exitX=0.5;exitY=1;exitDx=0;exitDy=0;entryX=0.5;entryY=0;entryDx=0;entryDy=0;" parent="yUSP1gVK_hTuVBHj87YH-1" source="iRaDpfIdEziGBdws9H0w-1250" target="iRaDpfIdEziGBdws9H0w-1252" edge="1">
          <mxGeometry relative="1" as="geometry" />
        </mxCell>
        <mxCell id="iRaDpfIdEziGBdws9H0w-1250" value="Generate new UUID (UUID*)&lt;br&gt;for each &lt;i&gt;min&lt;/i&gt;(&lt;i&gt;B&lt;/i&gt;) node" style="rounded=1;whiteSpace=wrap;html=1;fontSize=10;" parent="yUSP1gVK_hTuVBHj87YH-1" vertex="1">
          <mxGeometry x="-324.14" y="1360.5" width="138" height="30" as="geometry" />
        </mxCell>
        <mxCell id="iRaDpfIdEziGBdws9H0w-1251" style="edgeStyle=orthogonalEdgeStyle;rounded=0;orthogonalLoop=1;jettySize=auto;html=1;exitX=0.5;exitY=1;exitDx=0;exitDy=0;entryX=0.5;entryY=0;entryDx=0;entryDy=0;" parent="yUSP1gVK_hTuVBHj87YH-1" source="iRaDpfIdEziGBdws9H0w-1252" target="iRaDpfIdEziGBdws9H0w-1261" edge="1">
          <mxGeometry relative="1" as="geometry" />
        </mxCell>
        <mxCell id="iRaDpfIdEziGBdws9H0w-1252" value="Save translations UUID to&lt;br&gt;UUID* in &lt;b&gt;TranslationTable&lt;/b&gt;" style="rounded=1;whiteSpace=wrap;html=1;fontSize=10;" parent="yUSP1gVK_hTuVBHj87YH-1" vertex="1">
          <mxGeometry x="-324.14" y="1420.5" width="138" height="30" as="geometry" />
        </mxCell>
        <mxCell id="iRaDpfIdEziGBdws9H0w-1253" value="" style="endArrow=none;html=1;rounded=0;strokeWidth=4;" parent="yUSP1gVK_hTuVBHj87YH-1" edge="1">
          <mxGeometry width="50" height="50" relative="1" as="geometry">
            <mxPoint x="-137.7199999999999" y="1334.5" as="sourcePoint" />
            <mxPoint x="-30.629999999999995" y="1334.5" as="targetPoint" />
          </mxGeometry>
        </mxCell>
        <mxCell id="iRaDpfIdEziGBdws9H0w-1254" style="edgeStyle=orthogonalEdgeStyle;rounded=0;orthogonalLoop=1;jettySize=auto;html=1;exitX=0.5;exitY=0;exitDx=0;exitDy=0;endArrow=none;endFill=0;startArrow=classic;startFill=1;" parent="yUSP1gVK_hTuVBHj87YH-1" source="iRaDpfIdEziGBdws9H0w-1257" edge="1">
          <mxGeometry relative="1" as="geometry">
            <mxPoint x="-38.98000000000002" y="1334.5" as="targetPoint" />
          </mxGeometry>
        </mxCell>
        <mxCell id="iRaDpfIdEziGBdws9H0w-1255" style="edgeStyle=orthogonalEdgeStyle;rounded=0;orthogonalLoop=1;jettySize=auto;html=1;exitX=0.5;exitY=1;exitDx=0;exitDy=0;entryX=0.5;entryY=0;entryDx=0;entryDy=0;" parent="yUSP1gVK_hTuVBHj87YH-1" source="iRaDpfIdEziGBdws9H0w-1257" target="iRaDpfIdEziGBdws9H0w-1259" edge="1">
          <mxGeometry relative="1" as="geometry" />
        </mxCell>
        <mxCell id="iRaDpfIdEziGBdws9H0w-1256" value="on EAR timeout" style="edgeLabel;html=1;align=center;verticalAlign=middle;resizable=0;points=[];fontSize=8;" parent="iRaDpfIdEziGBdws9H0w-1255" connectable="0" vertex="1">
          <mxGeometry x="-0.3611" y="-1" relative="1" as="geometry">
            <mxPoint as="offset" />
          </mxGeometry>
        </mxCell>
        <mxCell id="iRaDpfIdEziGBdws9H0w-1257" value="Begin timer for&lt;br&gt;EAR timeout" style="rounded=1;whiteSpace=wrap;html=1;fontSize=10;" parent="yUSP1gVK_hTuVBHj87YH-1" vertex="1">
          <mxGeometry x="-89.16999999999996" y="1360.5" width="100" height="30" as="geometry" />
        </mxCell>
        <mxCell id="iRaDpfIdEziGBdws9H0w-1258" style="edgeStyle=orthogonalEdgeStyle;rounded=0;orthogonalLoop=1;jettySize=auto;html=1;exitX=0.5;exitY=1;exitDx=0;exitDy=0;entryX=0;entryY=0.5;entryDx=0;entryDy=0;" parent="yUSP1gVK_hTuVBHj87YH-1" target="iRaDpfIdEziGBdws9H0w-1056" edge="1">
          <mxGeometry relative="1" as="geometry">
            <mxPoint x="-127.98000000000002" y="1334.5" as="sourcePoint" />
            <mxPoint x="-127.97999999999956" y="1423.5" as="targetPoint" />
            <Array as="points">
              <mxPoint x="-128" y="1510" />
              <mxPoint x="-80" y="1510" />
              <mxPoint x="-80" y="1890" />
              <mxPoint x="-1550" y="1890" />
              <mxPoint x="-1550" y="458" />
            </Array>
          </mxGeometry>
        </mxCell>
        <mxCell id="iRaDpfIdEziGBdws9H0w-1259" value="Delete UUID&lt;br&gt;from the &lt;b&gt;Store&lt;/b&gt;" style="rounded=1;whiteSpace=wrap;html=1;fontSize=10;" parent="yUSP1gVK_hTuVBHj87YH-1" vertex="1">
          <mxGeometry x="-89.16999999999996" y="1420.5" width="100" height="30" as="geometry" />
        </mxCell>
        <mxCell id="iRaDpfIdEziGBdws9H0w-1260" style="edgeStyle=orthogonalEdgeStyle;rounded=0;orthogonalLoop=1;jettySize=auto;html=1;exitX=0.5;exitY=1;exitDx=0;exitDy=0;" parent="yUSP1gVK_hTuVBHj87YH-1" source="iRaDpfIdEziGBdws9H0w-1261" edge="1">
          <mxGeometry relative="1" as="geometry">
            <mxPoint x="-255.14" y="1570.5" as="targetPoint" />
          </mxGeometry>
        </mxCell>
        <mxCell id="iRaDpfIdEziGBdws9H0w-1261" value="&lt;font&gt;EAR to each node&lt;br&gt;in&amp;nbsp;&lt;i&gt;min&lt;/i&gt;(&lt;i&gt;B&lt;/i&gt;), with UUID*&lt;br&gt;&lt;/font&gt;" style="shape=step;perimeter=stepPerimeter;whiteSpace=wrap;html=1;fixedSize=1;size=5;strokeColor=#3399FF;fontColor=#3399FF;" parent="yUSP1gVK_hTuVBHj87YH-1" vertex="1">
          <mxGeometry x="-324.14" y="1480.5" width="138" height="40" as="geometry" />
        </mxCell>
        <mxCell id="iRaDpfIdEziGBdws9H0w-1262" value="" style="endArrow=none;html=1;rounded=0;strokeWidth=4;" parent="yUSP1gVK_hTuVBHj87YH-1" edge="1">
          <mxGeometry width="50" height="50" relative="1" as="geometry">
            <mxPoint x="-308.0999999999999" y="1574.5" as="sourcePoint" />
            <mxPoint x="-201.01" y="1574.5" as="targetPoint" />
          </mxGeometry>
        </mxCell>
        <mxCell id="iRaDpfIdEziGBdws9H0w-1263" style="edgeStyle=orthogonalEdgeStyle;rounded=0;orthogonalLoop=1;jettySize=auto;html=1;exitX=0.5;exitY=0;exitDx=0;exitDy=0;endArrow=none;endFill=0;startArrow=classic;startFill=1;" parent="yUSP1gVK_hTuVBHj87YH-1" source="iRaDpfIdEziGBdws9H0w-1266" edge="1">
          <mxGeometry relative="1" as="geometry">
            <mxPoint x="-209.36" y="1574.5" as="targetPoint" />
          </mxGeometry>
        </mxCell>
        <mxCell id="iRaDpfIdEziGBdws9H0w-1264" style="edgeStyle=orthogonalEdgeStyle;rounded=0;orthogonalLoop=1;jettySize=auto;html=1;exitX=0.5;exitY=1;exitDx=0;exitDy=0;entryX=0.5;entryY=0;entryDx=0;entryDy=0;" parent="yUSP1gVK_hTuVBHj87YH-1" source="iRaDpfIdEziGBdws9H0w-1266" target="iRaDpfIdEziGBdws9H0w-1268" edge="1">
          <mxGeometry relative="1" as="geometry" />
        </mxCell>
        <mxCell id="iRaDpfIdEziGBdws9H0w-1265" value="on EAR timeout" style="edgeLabel;html=1;align=center;verticalAlign=middle;resizable=0;points=[];fontSize=8;" parent="iRaDpfIdEziGBdws9H0w-1264" connectable="0" vertex="1">
          <mxGeometry x="-0.3611" y="-1" relative="1" as="geometry">
            <mxPoint as="offset" />
          </mxGeometry>
        </mxCell>
        <mxCell id="iRaDpfIdEziGBdws9H0w-1266" value="Begin timer for&lt;br&gt;EAR timeout" style="rounded=1;whiteSpace=wrap;html=1;fontSize=10;" parent="yUSP1gVK_hTuVBHj87YH-1" vertex="1">
          <mxGeometry x="-259.54999999999995" y="1600.5" width="100" height="30" as="geometry" />
        </mxCell>
        <mxCell id="iRaDpfIdEziGBdws9H0w-1267" style="edgeStyle=orthogonalEdgeStyle;rounded=0;orthogonalLoop=1;jettySize=auto;html=1;exitX=0.5;exitY=1;exitDx=0;exitDy=0;entryX=0;entryY=0.5;entryDx=0;entryDy=0;" parent="yUSP1gVK_hTuVBHj87YH-1" target="iRaDpfIdEziGBdws9H0w-1056" edge="1">
          <mxGeometry relative="1" as="geometry">
            <mxPoint x="-298.36" y="1574.5" as="sourcePoint" />
            <mxPoint x="-298.3600000000006" y="1663.5" as="targetPoint" />
            <Array as="points">
              <mxPoint x="-298" y="1890" />
              <mxPoint x="-1550" y="1890" />
              <mxPoint x="-1550" y="458" />
            </Array>
          </mxGeometry>
        </mxCell>
        <mxCell id="iRaDpfIdEziGBdws9H0w-1268" value="Delete UUID&lt;br&gt;from the &lt;b&gt;Store&lt;/b&gt;" style="rounded=1;whiteSpace=wrap;html=1;fontSize=10;" parent="yUSP1gVK_hTuVBHj87YH-1" vertex="1">
          <mxGeometry x="-259.54999999999995" y="1660.5" width="100" height="30" as="geometry" />
        </mxCell>
        <mxCell id="iRaDpfIdEziGBdws9H0w-1269" value="D.2" style="rounded=1;whiteSpace=wrap;html=1;arcSize=50;fontSize=8;" parent="yUSP1gVK_hTuVBHj87YH-1" vertex="1">
          <mxGeometry x="-27.110000000000014" y="1059.25" width="30.97" height="10.5" as="geometry" />
        </mxCell>
        <mxCell id="iRaDpfIdEziGBdws9H0w-1270" value="D.3" style="rounded=1;whiteSpace=wrap;html=1;arcSize=50;fontSize=8;" parent="yUSP1gVK_hTuVBHj87YH-1" vertex="1">
          <mxGeometry x="-336.11" y="1135.25" width="30.97" height="10.5" as="geometry" />
        </mxCell>
        <mxCell id="iRaDpfIdEziGBdws9H0w-1271" value="D.3.1.1" style="rounded=1;whiteSpace=wrap;html=1;arcSize=50;fontSize=8;" parent="yUSP1gVK_hTuVBHj87YH-1" vertex="1">
          <mxGeometry x="-51.110000000000014" y="1135.25" width="34.97" height="10.5" as="geometry" />
        </mxCell>
        <mxCell id="iRaDpfIdEziGBdws9H0w-1272" value="D.3.1.2" style="rounded=1;whiteSpace=wrap;html=1;arcSize=50;fontSize=8;" parent="yUSP1gVK_hTuVBHj87YH-1" vertex="1">
          <mxGeometry x="123.86000000000001" y="1245.25" width="34.97" height="10.5" as="geometry" />
        </mxCell>
        <mxCell id="iRaDpfIdEziGBdws9H0w-1273" value="D.3.2.1.1.1" style="rounded=1;whiteSpace=wrap;html=1;arcSize=50;fontSize=8;" parent="yUSP1gVK_hTuVBHj87YH-1" vertex="1">
          <mxGeometry x="-132.62" y="1214.5" width="46.48" height="10.5" as="geometry" />
        </mxCell>
        <mxCell id="iRaDpfIdEziGBdws9H0w-1274" value="D.3.2.1" style="rounded=1;whiteSpace=wrap;html=1;arcSize=50;fontSize=8;" parent="yUSP1gVK_hTuVBHj87YH-1" vertex="1">
          <mxGeometry x="-336.11" y="1245.25" width="34.97" height="10.5" as="geometry" />
        </mxCell>
        <mxCell id="iRaDpfIdEziGBdws9H0w-1275" value="D.3.2.1.1.2" style="rounded=1;whiteSpace=wrap;html=1;arcSize=50;fontSize=8;" parent="yUSP1gVK_hTuVBHj87YH-1" vertex="1">
          <mxGeometry x="17.860000000000014" y="1370.25" width="46.48" height="10.5" as="geometry" />
        </mxCell>
        <mxCell id="iRaDpfIdEziGBdws9H0w-1276" value="D.3.2.1.1.3" style="rounded=1;whiteSpace=wrap;html=1;arcSize=50;fontSize=8;" parent="yUSP1gVK_hTuVBHj87YH-1" vertex="1">
          <mxGeometry x="17.860000000000014" y="1430.25" width="46.48" height="10.5" as="geometry" />
        </mxCell>
        <mxCell id="iRaDpfIdEziGBdws9H0w-1277" value="D.3.2.1.2.1" style="rounded=1;whiteSpace=wrap;html=1;arcSize=50;fontSize=8;" parent="yUSP1gVK_hTuVBHj87YH-1" vertex="1">
          <mxGeometry x="-383.14" y="1370.25" width="50" height="10.5" as="geometry" />
        </mxCell>
        <mxCell id="iRaDpfIdEziGBdws9H0w-1278" value="D.3.2.1.2.2" style="rounded=1;whiteSpace=wrap;html=1;arcSize=50;fontSize=8;" parent="yUSP1gVK_hTuVBHj87YH-1" vertex="1">
          <mxGeometry x="-383.14" y="1429.5" width="50" height="10.5" as="geometry" />
        </mxCell>
        <mxCell id="iRaDpfIdEziGBdws9H0w-1279" value="D.3.2.1.2.3" style="rounded=1;whiteSpace=wrap;html=1;arcSize=50;fontSize=8;" parent="yUSP1gVK_hTuVBHj87YH-1" vertex="1">
          <mxGeometry x="-383.14" y="1495.25" width="50" height="10.5" as="geometry" />
        </mxCell>
        <mxCell id="iRaDpfIdEziGBdws9H0w-1280" value="D.3.2.1.2.4" style="rounded=1;whiteSpace=wrap;html=1;arcSize=50;fontSize=8;" parent="yUSP1gVK_hTuVBHj87YH-1" vertex="1">
          <mxGeometry x="-152.14" y="1610.25" width="50" height="10.5" as="geometry" />
        </mxCell>
        <mxCell id="iRaDpfIdEziGBdws9H0w-1281" value="D.3.2.1.2.5" style="rounded=1;whiteSpace=wrap;html=1;arcSize=50;fontSize=8;" parent="yUSP1gVK_hTuVBHj87YH-1" vertex="1">
          <mxGeometry x="-152.14" y="1670.25" width="50" height="10.5" as="geometry" />
        </mxCell>
        <mxCell id="iRaDpfIdEziGBdws9H0w-1282" value="CLOSED" style="rounded=1;whiteSpace=wrap;html=1;arcSize=50;fontSize=8;fillColor=#999999;fontColor=#FFFFFF;" parent="yUSP1gVK_hTuVBHj87YH-1" vertex="1">
          <mxGeometry x="-116.34000000000003" y="1170" width="64.01" height="10.5" as="geometry" />
        </mxCell>
        <mxCell id="iRaDpfIdEziGBdws9H0w-1283" value="PRE_RESERVED" style="rounded=1;whiteSpace=wrap;html=1;arcSize=50;fontSize=8;fillColor=#999999;fontColor=#FFFFFF;" parent="yUSP1gVK_hTuVBHj87YH-1" vertex="1">
          <mxGeometry x="-122.52999999999997" y="1290.5" width="76.39" height="10.5" as="geometry" />
        </mxCell>
        <mxCell id="iRaDpfIdEziGBdws9H0w-1284" value="PRE_RESERVED" style="rounded=1;whiteSpace=wrap;html=1;arcSize=50;fontSize=8;fillColor=#999999;fontColor=#FFFFFF;" parent="yUSP1gVK_hTuVBHj87YH-1" vertex="1">
          <mxGeometry x="-293.34000000000003" y="1538.5" width="76.39" height="10.5" as="geometry" />
        </mxCell>
        <mxCell id="iRaDpfIdEziGBdws9H0w-1285" style="edgeStyle=orthogonalEdgeStyle;rounded=0;orthogonalLoop=1;jettySize=auto;html=1;entryX=0.5;entryY=0;entryDx=0;entryDy=0;exitX=0.5;exitY=1;exitDx=0;exitDy=0;" parent="yUSP1gVK_hTuVBHj87YH-1" source="iRaDpfIdEziGBdws9H0w-1286" edge="1">
          <mxGeometry relative="1" as="geometry">
            <mxPoint x="330" y="1035.25" as="sourcePoint" />
            <mxPoint x="295.80999999999995" y="1045.25" as="targetPoint" />
          </mxGeometry>
        </mxCell>
        <mxCell id="iRaDpfIdEziGBdws9H0w-1286" value="&lt;font color=&quot;#ffffff&quot;&gt;E&lt;/font&gt;" style="ellipse;html=1;shape=startState;fillColor=#66CC00;strokeColor=#000000;" parent="yUSP1gVK_hTuVBHj87YH-1" vertex="1">
          <mxGeometry x="283.80999999999995" y="944.25" width="24" height="24" as="geometry" />
        </mxCell>
        <mxCell id="iRaDpfIdEziGBdws9H0w-1287" style="edgeStyle=orthogonalEdgeStyle;rounded=0;orthogonalLoop=1;jettySize=auto;html=1;exitX=0.5;exitY=1;exitDx=0;exitDy=0;entryX=0.5;entryY=0;entryDx=0;entryDy=0;" parent="yUSP1gVK_hTuVBHj87YH-1" source="iRaDpfIdEziGBdws9H0w-1288" target="iRaDpfIdEziGBdws9H0w-1293" edge="1">
          <mxGeometry relative="1" as="geometry" />
        </mxCell>
        <mxCell id="iRaDpfIdEziGBdws9H0w-1288" value="Set pre-reservation as &lt;br&gt;reserved on UUID in &lt;b&gt;Store&lt;/b&gt;" style="rounded=1;whiteSpace=wrap;html=1;fontSize=10;" parent="yUSP1gVK_hTuVBHj87YH-1" vertex="1">
          <mxGeometry x="221.62" y="1049.25" width="148.38" height="30" as="geometry" />
        </mxCell>
        <mxCell id="iRaDpfIdEziGBdws9H0w-1289" style="edgeStyle=orthogonalEdgeStyle;rounded=0;orthogonalLoop=1;jettySize=auto;html=1;exitX=0.5;exitY=1;exitDx=0;exitDy=0;entryX=0.5;entryY=0;entryDx=0;entryDy=0;" parent="yUSP1gVK_hTuVBHj87YH-1" source="iRaDpfIdEziGBdws9H0w-1293" target="iRaDpfIdEziGBdws9H0w-1295" edge="1">
          <mxGeometry relative="1" as="geometry" />
        </mxCell>
        <mxCell id="iRaDpfIdEziGBdws9H0w-1290" value="Y" style="edgeLabel;html=1;align=center;verticalAlign=middle;resizable=0;points=[];fontSize=8;" parent="iRaDpfIdEziGBdws9H0w-1289" connectable="0" vertex="1">
          <mxGeometry x="-0.3354" y="-1" relative="1" as="geometry">
            <mxPoint as="offset" />
          </mxGeometry>
        </mxCell>
        <mxCell id="iRaDpfIdEziGBdws9H0w-1291" style="edgeStyle=orthogonalEdgeStyle;rounded=0;orthogonalLoop=1;jettySize=auto;html=1;exitX=1;exitY=0.5;exitDx=0;exitDy=0;entryX=0.5;entryY=0;entryDx=0;entryDy=0;" parent="yUSP1gVK_hTuVBHj87YH-1" source="iRaDpfIdEziGBdws9H0w-1293" target="iRaDpfIdEziGBdws9H0w-1297" edge="1">
          <mxGeometry relative="1" as="geometry" />
        </mxCell>
        <mxCell id="iRaDpfIdEziGBdws9H0w-1292" value="N" style="edgeLabel;html=1;align=center;verticalAlign=middle;resizable=0;points=[];fontSize=8;" parent="iRaDpfIdEziGBdws9H0w-1291" connectable="0" vertex="1">
          <mxGeometry x="-0.6054" y="1" relative="1" as="geometry">
            <mxPoint as="offset" />
          </mxGeometry>
        </mxCell>
        <mxCell id="iRaDpfIdEziGBdws9H0w-1293" value="Is UUID in the&lt;br&gt;&lt;b&gt;TranslationTable&lt;/b&gt;?" style="rhombus;whiteSpace=wrap;html=1;" parent="yUSP1gVK_hTuVBHj87YH-1" vertex="1">
          <mxGeometry x="218.72000000000003" y="1105.25" width="154.19" height="80" as="geometry" />
        </mxCell>
        <mxCell id="iRaDpfIdEziGBdws9H0w-1294" style="edgeStyle=orthogonalEdgeStyle;rounded=0;orthogonalLoop=1;jettySize=auto;html=1;exitX=0.5;exitY=1;exitDx=0;exitDy=0;entryX=0.5;entryY=0;entryDx=0;entryDy=0;" parent="yUSP1gVK_hTuVBHj87YH-1" source="iRaDpfIdEziGBdws9H0w-1295" target="iRaDpfIdEziGBdws9H0w-1298" edge="1">
          <mxGeometry relative="1" as="geometry" />
        </mxCell>
        <mxCell id="iRaDpfIdEziGBdws9H0w-1295" value="ACC to&lt;br&gt;original UUID" style="shape=step;perimeter=stepPerimeter;whiteSpace=wrap;html=1;fixedSize=1;size=5;strokeColor=#66CC00;fontColor=#66CC00;" parent="yUSP1gVK_hTuVBHj87YH-1" vertex="1">
          <mxGeometry x="251.62" y="1219.75" width="88.38" height="35.5" as="geometry" />
        </mxCell>
        <mxCell id="iRaDpfIdEziGBdws9H0w-1296" style="edgeStyle=orthogonalEdgeStyle;rounded=0;orthogonalLoop=1;jettySize=auto;html=1;exitX=0.5;exitY=1;exitDx=0;exitDy=0;entryX=0.5;entryY=0;entryDx=0;entryDy=0;" parent="yUSP1gVK_hTuVBHj87YH-1" source="iRaDpfIdEziGBdws9H0w-1297" target="iRaDpfIdEziGBdws9H0w-1301" edge="1">
          <mxGeometry relative="1" as="geometry" />
        </mxCell>
        <mxCell id="iRaDpfIdEziGBdws9H0w-1297" value="ACC to&lt;br&gt;UUID" style="shape=step;perimeter=stepPerimeter;whiteSpace=wrap;html=1;fixedSize=1;size=5;strokeColor=#66CC00;fontColor=#66CC00;" parent="yUSP1gVK_hTuVBHj87YH-1" vertex="1">
          <mxGeometry x="422" y="1219.75" width="88.38" height="35.5" as="geometry" />
        </mxCell>
        <mxCell id="iRaDpfIdEziGBdws9H0w-1298" value="Terminate thread" style="rounded=1;whiteSpace=wrap;html=1;fontSize=10;" parent="yUSP1gVK_hTuVBHj87YH-1" vertex="1">
          <mxGeometry x="245.80999999999995" y="1295.25" width="100" height="30" as="geometry" />
        </mxCell>
        <mxCell id="iRaDpfIdEziGBdws9H0w-1299" style="edgeStyle=orthogonalEdgeStyle;rounded=0;orthogonalLoop=1;jettySize=auto;html=1;exitX=0.5;exitY=1;exitDx=0;exitDy=0;entryX=0;entryY=0.5;entryDx=0;entryDy=0;" parent="yUSP1gVK_hTuVBHj87YH-1" target="iRaDpfIdEziGBdws9H0w-1056" edge="1">
          <mxGeometry relative="1" as="geometry">
            <mxPoint x="295.30999999999995" y="1325.25" as="sourcePoint" />
            <mxPoint x="295.8099999999995" y="1348.25" as="targetPoint" />
            <Array as="points">
              <mxPoint x="295" y="1890" />
              <mxPoint x="-1550" y="1890" />
              <mxPoint x="-1550" y="458" />
            </Array>
          </mxGeometry>
        </mxCell>
        <mxCell id="iRaDpfIdEziGBdws9H0w-1300" value="RESERVED" style="rounded=1;whiteSpace=wrap;html=1;arcSize=50;fontSize=8;fillColor=#999999;fontColor=#FFFFFF;" parent="yUSP1gVK_hTuVBHj87YH-1" vertex="1">
          <mxGeometry x="436.19000000000005" y="1267" width="60" height="10.5" as="geometry" />
        </mxCell>
        <mxCell id="iRaDpfIdEziGBdws9H0w-1301" value="Terminate thread" style="rounded=1;whiteSpace=wrap;html=1;fontSize=10;" parent="yUSP1gVK_hTuVBHj87YH-1" vertex="1">
          <mxGeometry x="416.19000000000005" y="1295.25" width="100" height="30" as="geometry" />
        </mxCell>
        <mxCell id="iRaDpfIdEziGBdws9H0w-1302" style="edgeStyle=orthogonalEdgeStyle;rounded=0;orthogonalLoop=1;jettySize=auto;html=1;exitX=0.5;exitY=1;exitDx=0;exitDy=0;entryX=0;entryY=0.5;entryDx=0;entryDy=0;" parent="yUSP1gVK_hTuVBHj87YH-1" target="iRaDpfIdEziGBdws9H0w-1056" edge="1">
          <mxGeometry relative="1" as="geometry">
            <mxPoint x="465.69000000000005" y="1325.25" as="sourcePoint" />
            <mxPoint x="466.1900000000005" y="1348.25" as="targetPoint" />
            <Array as="points">
              <mxPoint x="466" y="1890" />
              <mxPoint x="-1550" y="1890" />
              <mxPoint x="-1550" y="458" />
            </Array>
          </mxGeometry>
        </mxCell>
        <mxCell id="iRaDpfIdEziGBdws9H0w-1303" value="RESERVED" style="rounded=1;whiteSpace=wrap;html=1;arcSize=50;fontSize=8;fillColor=#999999;fontColor=#FFFFFF;" parent="yUSP1gVK_hTuVBHj87YH-1" vertex="1">
          <mxGeometry x="265.80999999999995" y="1267" width="60" height="10.5" as="geometry" />
        </mxCell>
        <mxCell id="iRaDpfIdEziGBdws9H0w-1304" value="E.1" style="rounded=1;whiteSpace=wrap;html=1;arcSize=50;fontSize=8;" parent="yUSP1gVK_hTuVBHj87YH-1" vertex="1">
          <mxGeometry x="180" y="1059" width="29.54" height="10.5" as="geometry" />
        </mxCell>
        <mxCell id="iRaDpfIdEziGBdws9H0w-1305" value="E.2" style="rounded=1;whiteSpace=wrap;html=1;arcSize=50;fontSize=8;" parent="yUSP1gVK_hTuVBHj87YH-1" vertex="1">
          <mxGeometry x="180" y="1140" width="29.54" height="10.5" as="geometry" />
        </mxCell>
        <mxCell id="iRaDpfIdEziGBdws9H0w-1306" value="E.2.2.1" style="rounded=1;whiteSpace=wrap;html=1;arcSize=50;fontSize=8;" parent="yUSP1gVK_hTuVBHj87YH-1" vertex="1">
          <mxGeometry x="210" y="1232.25" width="35.81" height="10.5" as="geometry" />
        </mxCell>
        <mxCell id="iRaDpfIdEziGBdws9H0w-1307" value="E.2.1.1" style="rounded=1;whiteSpace=wrap;html=1;arcSize=50;fontSize=8;" parent="yUSP1gVK_hTuVBHj87YH-1" vertex="1">
          <mxGeometry x="519.19" y="1232.25" width="35.81" height="10.5" as="geometry" />
        </mxCell>
        <mxCell id="iRaDpfIdEziGBdws9H0w-1308" value="E.2.1.2" style="rounded=1;whiteSpace=wrap;html=1;arcSize=50;fontSize=8;" parent="yUSP1gVK_hTuVBHj87YH-1" vertex="1">
          <mxGeometry x="526.19" y="1305" width="35.81" height="10.5" as="geometry" />
        </mxCell>
        <mxCell id="iRaDpfIdEziGBdws9H0w-1309" value="E.2.2.2" style="rounded=1;whiteSpace=wrap;html=1;arcSize=50;fontSize=8;" parent="yUSP1gVK_hTuVBHj87YH-1" vertex="1">
          <mxGeometry x="200" y="1305" width="35.81" height="10.5" as="geometry" />
        </mxCell>
        <mxCell id="iRaDpfIdEziGBdws9H0w-1310" style="edgeStyle=orthogonalEdgeStyle;rounded=0;orthogonalLoop=1;jettySize=auto;html=1;entryX=0.5;entryY=0;entryDx=0;entryDy=0;exitX=0.5;exitY=1;exitDx=0;exitDy=0;" parent="yUSP1gVK_hTuVBHj87YH-1" source="iRaDpfIdEziGBdws9H0w-1311" edge="1">
          <mxGeometry relative="1" as="geometry">
            <mxPoint x="730.0699999999999" y="1036" as="sourcePoint" />
            <mxPoint x="705.8799999999999" y="1046" as="targetPoint" />
          </mxGeometry>
        </mxCell>
        <mxCell id="iRaDpfIdEziGBdws9H0w-1311" value="&lt;font color=&quot;#ffffff&quot;&gt;F&lt;/font&gt;" style="ellipse;html=1;shape=startState;fillColor=#990000;strokeColor=#000000;" parent="yUSP1gVK_hTuVBHj87YH-1" vertex="1">
          <mxGeometry x="693.8799999999999" y="946" width="24" height="24" as="geometry" />
        </mxCell>
        <mxCell id="iRaDpfIdEziGBdws9H0w-1312" style="edgeStyle=orthogonalEdgeStyle;rounded=0;orthogonalLoop=1;jettySize=auto;html=1;exitX=0.5;exitY=1;exitDx=0;exitDy=0;entryX=0.5;entryY=0;entryDx=0;entryDy=0;" parent="yUSP1gVK_hTuVBHj87YH-1" source="iRaDpfIdEziGBdws9H0w-1313" target="iRaDpfIdEziGBdws9H0w-1318" edge="1">
          <mxGeometry relative="1" as="geometry" />
        </mxCell>
        <mxCell id="iRaDpfIdEziGBdws9H0w-1313" value="Delete pre-reservations&lt;br&gt;with UUID in the &lt;b&gt;Store&lt;/b&gt;" style="rounded=1;whiteSpace=wrap;html=1;fontSize=10;" parent="yUSP1gVK_hTuVBHj87YH-1" vertex="1">
          <mxGeometry x="641.69" y="1050" width="128.38" height="30" as="geometry" />
        </mxCell>
        <mxCell id="iRaDpfIdEziGBdws9H0w-1314" style="edgeStyle=orthogonalEdgeStyle;rounded=0;orthogonalLoop=1;jettySize=auto;html=1;exitX=0.5;exitY=1;exitDx=0;exitDy=0;entryX=0.5;entryY=0;entryDx=0;entryDy=0;" parent="yUSP1gVK_hTuVBHj87YH-1" source="iRaDpfIdEziGBdws9H0w-1318" target="iRaDpfIdEziGBdws9H0w-1322" edge="1">
          <mxGeometry relative="1" as="geometry">
            <mxPoint x="705.8800000000001" y="1220.5" as="targetPoint" />
          </mxGeometry>
        </mxCell>
        <mxCell id="iRaDpfIdEziGBdws9H0w-1315" value="Y" style="edgeLabel;html=1;align=center;verticalAlign=middle;resizable=0;points=[];fontSize=8;" parent="iRaDpfIdEziGBdws9H0w-1314" connectable="0" vertex="1">
          <mxGeometry x="-0.2643" y="1" relative="1" as="geometry">
            <mxPoint x="-1" as="offset" />
          </mxGeometry>
        </mxCell>
        <mxCell id="iRaDpfIdEziGBdws9H0w-1316" style="edgeStyle=orthogonalEdgeStyle;rounded=0;orthogonalLoop=1;jettySize=auto;html=1;exitX=0;exitY=0.5;exitDx=0;exitDy=0;entryX=0;entryY=0.5;entryDx=0;entryDy=0;" parent="yUSP1gVK_hTuVBHj87YH-1" source="iRaDpfIdEziGBdws9H0w-1318" target="iRaDpfIdEziGBdws9H0w-1329" edge="1">
          <mxGeometry relative="1" as="geometry">
            <Array as="points">
              <mxPoint x="590.0699999999999" y="1146" />
              <mxPoint x="590.0699999999999" y="1398" />
            </Array>
          </mxGeometry>
        </mxCell>
        <mxCell id="iRaDpfIdEziGBdws9H0w-1317" value="N" style="edgeLabel;html=1;align=center;verticalAlign=middle;resizable=0;points=[];fontSize=8;" parent="iRaDpfIdEziGBdws9H0w-1316" connectable="0" vertex="1">
          <mxGeometry x="-0.9058" relative="1" as="geometry">
            <mxPoint as="offset" />
          </mxGeometry>
        </mxCell>
        <mxCell id="iRaDpfIdEziGBdws9H0w-1318" value="Is UUID in the&lt;br&gt;&lt;b&gt;TranslationTable&lt;/b&gt;?" style="rhombus;whiteSpace=wrap;html=1;" parent="yUSP1gVK_hTuVBHj87YH-1" vertex="1">
          <mxGeometry x="628.79" y="1106" width="154.19" height="80" as="geometry" />
        </mxCell>
        <mxCell id="iRaDpfIdEziGBdws9H0w-1319" value="F.1" style="rounded=1;whiteSpace=wrap;html=1;arcSize=50;fontSize=8;" parent="yUSP1gVK_hTuVBHj87YH-1" vertex="1">
          <mxGeometry x="600.0699999999999" y="1059.75" width="29.54" height="10.5" as="geometry" />
        </mxCell>
        <mxCell id="iRaDpfIdEziGBdws9H0w-1320" value="F.2" style="rounded=1;whiteSpace=wrap;html=1;arcSize=50;fontSize=8;" parent="yUSP1gVK_hTuVBHj87YH-1" vertex="1">
          <mxGeometry x="792.53" y="1140.75" width="29.54" height="10.5" as="geometry" />
        </mxCell>
        <mxCell id="iRaDpfIdEziGBdws9H0w-1321" style="edgeStyle=orthogonalEdgeStyle;rounded=0;orthogonalLoop=1;jettySize=auto;html=1;exitX=0.5;exitY=1;exitDx=0;exitDy=0;entryX=0.5;entryY=0;entryDx=0;entryDy=0;" parent="yUSP1gVK_hTuVBHj87YH-1" source="iRaDpfIdEziGBdws9H0w-1322" target="iRaDpfIdEziGBdws9H0w-1327" edge="1">
          <mxGeometry relative="1" as="geometry" />
        </mxCell>
        <mxCell id="iRaDpfIdEziGBdws9H0w-1322" value="Delete UUID*&lt;br&gt;in &lt;b&gt;Store&lt;/b&gt;" style="rounded=1;whiteSpace=wrap;html=1;fontSize=10;" parent="yUSP1gVK_hTuVBHj87YH-1" vertex="1">
          <mxGeometry x="661.69" y="1226" width="88.38" height="30" as="geometry" />
        </mxCell>
        <mxCell id="iRaDpfIdEziGBdws9H0w-1323" style="edgeStyle=orthogonalEdgeStyle;rounded=0;orthogonalLoop=1;jettySize=auto;html=1;exitX=1;exitY=0.5;exitDx=0;exitDy=0;entryX=0;entryY=0.5;entryDx=0;entryDy=0;" parent="yUSP1gVK_hTuVBHj87YH-1" source="iRaDpfIdEziGBdws9H0w-1327" target="iRaDpfIdEziGBdws9H0w-1056" edge="1">
          <mxGeometry relative="1" as="geometry">
            <mxPoint x="840.0700000000716" y="1322" as="targetPoint" />
            <Array as="points">
              <mxPoint x="812" y="1322" />
              <mxPoint x="812" y="1890" />
              <mxPoint x="-1550" y="1890" />
              <mxPoint x="-1550" y="458" />
            </Array>
          </mxGeometry>
        </mxCell>
        <mxCell id="iRaDpfIdEziGBdws9H0w-1324" value="N" style="edgeLabel;html=1;align=center;verticalAlign=middle;resizable=0;points=[];fontSize=8;" parent="iRaDpfIdEziGBdws9H0w-1323" connectable="0" vertex="1">
          <mxGeometry x="-0.9945" relative="1" as="geometry">
            <mxPoint as="offset" />
          </mxGeometry>
        </mxCell>
        <mxCell id="iRaDpfIdEziGBdws9H0w-1325" style="edgeStyle=orthogonalEdgeStyle;rounded=0;orthogonalLoop=1;jettySize=auto;html=1;exitX=0.5;exitY=1;exitDx=0;exitDy=0;entryX=0.5;entryY=0;entryDx=0;entryDy=0;" parent="yUSP1gVK_hTuVBHj87YH-1" source="iRaDpfIdEziGBdws9H0w-1327" target="iRaDpfIdEziGBdws9H0w-1329" edge="1">
          <mxGeometry relative="1" as="geometry" />
        </mxCell>
        <mxCell id="iRaDpfIdEziGBdws9H0w-1326" value="Y" style="edgeLabel;html=1;align=center;verticalAlign=middle;resizable=0;points=[];fontSize=8;" parent="iRaDpfIdEziGBdws9H0w-1325" connectable="0" vertex="1">
          <mxGeometry x="-0.3452" relative="1" as="geometry">
            <mxPoint as="offset" />
          </mxGeometry>
        </mxCell>
        <mxCell id="iRaDpfIdEziGBdws9H0w-1327" value="Is &lt;b&gt;TranslationTable&lt;/b&gt;&lt;br&gt;empty?" style="rhombus;whiteSpace=wrap;html=1;" parent="yUSP1gVK_hTuVBHj87YH-1" vertex="1">
          <mxGeometry x="628.79" y="1282" width="154.19" height="80" as="geometry" />
        </mxCell>
        <mxCell id="iRaDpfIdEziGBdws9H0w-1328" style="edgeStyle=orthogonalEdgeStyle;rounded=0;orthogonalLoop=1;jettySize=auto;html=1;exitX=0.5;exitY=1;exitDx=0;exitDy=0;entryX=0.5;entryY=0;entryDx=0;entryDy=0;" parent="yUSP1gVK_hTuVBHj87YH-1" source="iRaDpfIdEziGBdws9H0w-1329" target="iRaDpfIdEziGBdws9H0w-1331" edge="1">
          <mxGeometry relative="1" as="geometry" />
        </mxCell>
        <mxCell id="iRaDpfIdEziGBdws9H0w-1329" value="REF" style="shape=step;perimeter=stepPerimeter;whiteSpace=wrap;html=1;fixedSize=1;size=5;strokeColor=#CC0000;fontColor=#CC0000;" parent="yUSP1gVK_hTuVBHj87YH-1" vertex="1">
          <mxGeometry x="680.8799999999999" y="1386" width="50" height="24.5" as="geometry" />
        </mxCell>
        <mxCell id="iRaDpfIdEziGBdws9H0w-1330" style="edgeStyle=orthogonalEdgeStyle;rounded=0;orthogonalLoop=1;jettySize=auto;html=1;exitX=0.5;exitY=1;exitDx=0;exitDy=0;entryX=0;entryY=0.5;entryDx=0;entryDy=0;" parent="yUSP1gVK_hTuVBHj87YH-1" source="iRaDpfIdEziGBdws9H0w-1331" target="iRaDpfIdEziGBdws9H0w-1056" edge="1">
          <mxGeometry relative="1" as="geometry">
            <mxPoint x="705.8800000000001" y="1516" as="targetPoint" />
            <Array as="points">
              <mxPoint x="706" y="1890" />
              <mxPoint x="-1550" y="1890" />
              <mxPoint x="-1550" y="458" />
            </Array>
          </mxGeometry>
        </mxCell>
        <mxCell id="iRaDpfIdEziGBdws9H0w-1331" value="Delete UUID&lt;br&gt;from the &lt;b&gt;Store&lt;/b&gt;" style="rounded=1;whiteSpace=wrap;html=1;fontSize=10;" parent="yUSP1gVK_hTuVBHj87YH-1" vertex="1">
          <mxGeometry x="655.8800000000001" y="1456" width="100" height="30" as="geometry" />
        </mxCell>
        <mxCell id="iRaDpfIdEziGBdws9H0w-1332" value="F.2.1.1" style="rounded=1;whiteSpace=wrap;html=1;arcSize=50;fontSize=8;" parent="yUSP1gVK_hTuVBHj87YH-1" vertex="1">
          <mxGeometry x="760.0699999999999" y="1235.75" width="40" height="10.5" as="geometry" />
        </mxCell>
        <mxCell id="iRaDpfIdEziGBdws9H0w-1333" value="F.2.1.2" style="rounded=1;whiteSpace=wrap;html=1;arcSize=50;fontSize=8;" parent="yUSP1gVK_hTuVBHj87YH-1" vertex="1">
          <mxGeometry x="628.3399999999999" y="1282" width="40" height="10.5" as="geometry" />
        </mxCell>
        <mxCell id="iRaDpfIdEziGBdws9H0w-1334" value="F.3" style="rounded=1;whiteSpace=wrap;html=1;arcSize=50;fontSize=8;" parent="yUSP1gVK_hTuVBHj87YH-1" vertex="1">
          <mxGeometry x="740.53" y="1393" width="29.54" height="10.5" as="geometry" />
        </mxCell>
        <mxCell id="iRaDpfIdEziGBdws9H0w-1335" value="F.4" style="rounded=1;whiteSpace=wrap;html=1;arcSize=50;fontSize=8;" parent="yUSP1gVK_hTuVBHj87YH-1" vertex="1">
          <mxGeometry x="765.3" y="1465.75" width="29.54" height="10.5" as="geometry" />
        </mxCell>
        <mxCell id="iRaDpfIdEziGBdws9H0w-1336" value="CLOSED" style="rounded=1;whiteSpace=wrap;html=1;arcSize=50;fontSize=8;fillColor=#999999;fontColor=#FFFFFF;" parent="yUSP1gVK_hTuVBHj87YH-1" vertex="1">
          <mxGeometry x="681.71" y="1424" width="48.36" height="10.5" as="geometry" />
        </mxCell>
        <mxCell id="iRaDpfIdEziGBdws9H0w-1337" style="edgeStyle=orthogonalEdgeStyle;rounded=0;orthogonalLoop=1;jettySize=auto;html=1;entryX=0.5;entryY=0;entryDx=0;entryDy=0;exitX=0.5;exitY=1;exitDx=0;exitDy=0;" parent="yUSP1gVK_hTuVBHj87YH-1" source="iRaDpfIdEziGBdws9H0w-1338" target="iRaDpfIdEziGBdws9H0w-1343" edge="1">
          <mxGeometry relative="1" as="geometry">
            <mxPoint x="1020" y="976" as="sourcePoint" />
            <mxPoint x="1005.81" y="986" as="targetPoint" />
          </mxGeometry>
        </mxCell>
        <mxCell id="iRaDpfIdEziGBdws9H0w-1338" value="&lt;font color=&quot;#ffffff&quot;&gt;G&lt;/font&gt;" style="ellipse;html=1;shape=startState;fillColor=#6600CC;strokeColor=#000000;" parent="yUSP1gVK_hTuVBHj87YH-1" vertex="1">
          <mxGeometry x="993.8199999999999" y="946" width="24" height="24" as="geometry" />
        </mxCell>
        <mxCell id="iRaDpfIdEziGBdws9H0w-1339" style="edgeStyle=orthogonalEdgeStyle;rounded=0;orthogonalLoop=1;jettySize=auto;html=1;exitX=1;exitY=0.5;exitDx=0;exitDy=0;entryX=0;entryY=0.5;entryDx=0;entryDy=0;" parent="yUSP1gVK_hTuVBHj87YH-1" source="iRaDpfIdEziGBdws9H0w-1343" target="iRaDpfIdEziGBdws9H0w-1345" edge="1">
          <mxGeometry relative="1" as="geometry" />
        </mxCell>
        <mxCell id="iRaDpfIdEziGBdws9H0w-1340" value="Y" style="edgeLabel;html=1;align=center;verticalAlign=middle;resizable=0;points=[];fontSize=8;" parent="iRaDpfIdEziGBdws9H0w-1339" connectable="0" vertex="1">
          <mxGeometry x="-0.4319" y="1" relative="1" as="geometry">
            <mxPoint x="-6" y="1" as="offset" />
          </mxGeometry>
        </mxCell>
        <mxCell id="iRaDpfIdEziGBdws9H0w-1341" style="edgeStyle=orthogonalEdgeStyle;rounded=0;orthogonalLoop=1;jettySize=auto;html=1;exitX=0.5;exitY=1;exitDx=0;exitDy=0;entryX=0.5;entryY=0;entryDx=0;entryDy=0;" parent="yUSP1gVK_hTuVBHj87YH-1" source="iRaDpfIdEziGBdws9H0w-1343" target="iRaDpfIdEziGBdws9H0w-1350" edge="1">
          <mxGeometry relative="1" as="geometry" />
        </mxCell>
        <mxCell id="iRaDpfIdEziGBdws9H0w-1342" value="N" style="edgeLabel;html=1;align=center;verticalAlign=middle;resizable=0;points=[];fontSize=8;" parent="iRaDpfIdEziGBdws9H0w-1341" connectable="0" vertex="1">
          <mxGeometry x="-0.3181" y="2" relative="1" as="geometry">
            <mxPoint x="-2" y="-4" as="offset" />
          </mxGeometry>
        </mxCell>
        <mxCell id="iRaDpfIdEziGBdws9H0w-1343" value="Am I the&lt;br&gt;listener?" style="rhombus;whiteSpace=wrap;html=1;" parent="yUSP1gVK_hTuVBHj87YH-1" vertex="1">
          <mxGeometry x="965.81" y="1026" width="80" height="80" as="geometry" />
        </mxCell>
        <mxCell id="iRaDpfIdEziGBdws9H0w-1344" style="edgeStyle=orthogonalEdgeStyle;rounded=0;orthogonalLoop=1;jettySize=auto;html=1;exitX=1;exitY=0.5;exitDx=0;exitDy=0;entryX=0;entryY=0.5;entryDx=0;entryDy=0;" parent="yUSP1gVK_hTuVBHj87YH-1" source="iRaDpfIdEziGBdws9H0w-1345" target="iRaDpfIdEziGBdws9H0w-1354" edge="1">
          <mxGeometry relative="1" as="geometry" />
        </mxCell>
        <mxCell id="iRaDpfIdEziGBdws9H0w-1345" value="REF" style="shape=step;perimeter=stepPerimeter;whiteSpace=wrap;html=1;fixedSize=1;size=5;strokeColor=#CC0000;fontColor=#CC0000;" parent="yUSP1gVK_hTuVBHj87YH-1" vertex="1">
          <mxGeometry x="1120" y="1053.75" width="50" height="24.5" as="geometry" />
        </mxCell>
        <mxCell id="iRaDpfIdEziGBdws9H0w-1346" style="edgeStyle=orthogonalEdgeStyle;rounded=0;orthogonalLoop=1;jettySize=auto;html=1;exitX=1;exitY=0.5;exitDx=0;exitDy=0;entryX=0;entryY=0.5;entryDx=0;entryDy=0;" parent="yUSP1gVK_hTuVBHj87YH-1" source="iRaDpfIdEziGBdws9H0w-1350" target="iRaDpfIdEziGBdws9H0w-1352" edge="1">
          <mxGeometry relative="1" as="geometry">
            <Array as="points">
              <mxPoint x="1060" y="1186" />
              <mxPoint x="1060" y="1186" />
            </Array>
          </mxGeometry>
        </mxCell>
        <mxCell id="iRaDpfIdEziGBdws9H0w-1347" value="N" style="edgeLabel;html=1;align=center;verticalAlign=middle;resizable=0;points=[];fontSize=8;" parent="iRaDpfIdEziGBdws9H0w-1346" connectable="0" vertex="1">
          <mxGeometry x="-0.0007" relative="1" as="geometry">
            <mxPoint x="-8" as="offset" />
          </mxGeometry>
        </mxCell>
        <mxCell id="iRaDpfIdEziGBdws9H0w-1348" style="edgeStyle=orthogonalEdgeStyle;rounded=0;orthogonalLoop=1;jettySize=auto;html=1;exitX=0.5;exitY=1;exitDx=0;exitDy=0;entryX=0.5;entryY=0;entryDx=0;entryDy=0;" parent="yUSP1gVK_hTuVBHj87YH-1" source="iRaDpfIdEziGBdws9H0w-1350" target="iRaDpfIdEziGBdws9H0w-1356" edge="1">
          <mxGeometry relative="1" as="geometry" />
        </mxCell>
        <mxCell id="iRaDpfIdEziGBdws9H0w-1349" value="Y" style="edgeLabel;html=1;align=center;verticalAlign=middle;resizable=0;points=[];fontSize=8;" parent="iRaDpfIdEziGBdws9H0w-1348" connectable="0" vertex="1">
          <mxGeometry x="-0.1722" y="-2" relative="1" as="geometry">
            <mxPoint x="2" y="-4" as="offset" />
          </mxGeometry>
        </mxCell>
        <mxCell id="iRaDpfIdEziGBdws9H0w-1350" value="Is UUID&lt;br&gt;in &lt;b&gt;Store&lt;/b&gt;?" style="rhombus;whiteSpace=wrap;html=1;" parent="yUSP1gVK_hTuVBHj87YH-1" vertex="1">
          <mxGeometry x="965.81" y="1146" width="80" height="80" as="geometry" />
        </mxCell>
        <mxCell id="iRaDpfIdEziGBdws9H0w-1351" style="edgeStyle=orthogonalEdgeStyle;rounded=0;orthogonalLoop=1;jettySize=auto;html=1;exitX=1;exitY=0.5;exitDx=0;exitDy=0;entryX=0;entryY=0.5;entryDx=0;entryDy=0;" parent="yUSP1gVK_hTuVBHj87YH-1" source="iRaDpfIdEziGBdws9H0w-1352" target="iRaDpfIdEziGBdws9H0w-1056" edge="1">
          <mxGeometry relative="1" as="geometry">
            <mxPoint x="1389.999999999909" y="1186" as="targetPoint" />
            <Array as="points">
              <mxPoint x="1440" y="1186" />
              <mxPoint x="1440" y="1890" />
              <mxPoint x="-1550" y="1890" />
              <mxPoint x="-1550" y="458" />
            </Array>
          </mxGeometry>
        </mxCell>
        <mxCell id="iRaDpfIdEziGBdws9H0w-1352" value="Discard and ignore&lt;br&gt;message" style="rounded=1;whiteSpace=wrap;html=1;fontSize=10;" parent="yUSP1gVK_hTuVBHj87YH-1" vertex="1">
          <mxGeometry x="1095" y="1171" width="100" height="30" as="geometry" />
        </mxCell>
        <mxCell id="iRaDpfIdEziGBdws9H0w-1353" style="edgeStyle=orthogonalEdgeStyle;rounded=0;orthogonalLoop=1;jettySize=auto;html=1;exitX=1;exitY=0.5;exitDx=0;exitDy=0;entryX=0;entryY=0.5;entryDx=0;entryDy=0;" parent="yUSP1gVK_hTuVBHj87YH-1" source="iRaDpfIdEziGBdws9H0w-1354" target="iRaDpfIdEziGBdws9H0w-1056" edge="1">
          <mxGeometry relative="1" as="geometry">
            <mxPoint x="1389.999999999909" y="1137.25" as="targetPoint" />
            <Array as="points">
              <mxPoint x="1480" y="1137" />
              <mxPoint x="1480" y="1890" />
              <mxPoint x="-1550" y="1890" />
              <mxPoint x="-1550" y="458" />
            </Array>
          </mxGeometry>
        </mxCell>
        <mxCell id="iRaDpfIdEziGBdws9H0w-1354" value="Delete UUID&lt;br&gt;from the &lt;b&gt;Store&lt;/b&gt;" style="rounded=1;whiteSpace=wrap;html=1;fontSize=10;" parent="yUSP1gVK_hTuVBHj87YH-1" vertex="1">
          <mxGeometry x="1240" y="1122" width="100" height="30" as="geometry" />
        </mxCell>
        <mxCell id="iRaDpfIdEziGBdws9H0w-1355" style="edgeStyle=orthogonalEdgeStyle;rounded=0;orthogonalLoop=1;jettySize=auto;html=1;exitX=0.5;exitY=1;exitDx=0;exitDy=0;" parent="yUSP1gVK_hTuVBHj87YH-1" source="iRaDpfIdEziGBdws9H0w-1356" edge="1">
          <mxGeometry relative="1" as="geometry">
            <mxPoint x="1006" y="1326" as="targetPoint" />
          </mxGeometry>
        </mxCell>
        <mxCell id="iRaDpfIdEziGBdws9H0w-1356" value="REP towards &lt;i&gt;L&lt;/i&gt;" style="shape=step;perimeter=stepPerimeter;whiteSpace=wrap;html=1;fixedSize=1;size=5;strokeColor=#6600CC;fontColor=#6600CC;" parent="yUSP1gVK_hTuVBHj87YH-1" vertex="1">
          <mxGeometry x="951.6399999999999" y="1266" width="108.36" height="24.5" as="geometry" />
        </mxCell>
        <mxCell id="iRaDpfIdEziGBdws9H0w-1357" value="" style="endArrow=none;html=1;rounded=0;strokeWidth=4;" parent="yUSP1gVK_hTuVBHj87YH-1" edge="1">
          <mxGeometry width="50" height="50" relative="1" as="geometry">
            <mxPoint x="952.2600000000002" y="1330" as="sourcePoint" />
            <mxPoint x="1059.35" y="1330" as="targetPoint" />
          </mxGeometry>
        </mxCell>
        <mxCell id="iRaDpfIdEziGBdws9H0w-1358" style="edgeStyle=orthogonalEdgeStyle;rounded=0;orthogonalLoop=1;jettySize=auto;html=1;exitX=0.5;exitY=0;exitDx=0;exitDy=0;endArrow=none;endFill=0;startArrow=classic;startFill=1;" parent="yUSP1gVK_hTuVBHj87YH-1" source="iRaDpfIdEziGBdws9H0w-1361" edge="1">
          <mxGeometry relative="1" as="geometry">
            <mxPoint x="1051" y="1330" as="targetPoint" />
          </mxGeometry>
        </mxCell>
        <mxCell id="iRaDpfIdEziGBdws9H0w-1359" style="edgeStyle=orthogonalEdgeStyle;rounded=0;orthogonalLoop=1;jettySize=auto;html=1;exitX=0.5;exitY=1;exitDx=0;exitDy=0;entryX=0;entryY=0.5;entryDx=0;entryDy=0;" parent="yUSP1gVK_hTuVBHj87YH-1" source="iRaDpfIdEziGBdws9H0w-1361" target="iRaDpfIdEziGBdws9H0w-1367" edge="1">
          <mxGeometry relative="1" as="geometry">
            <mxPoint x="1098" y="1431" as="targetPoint" />
          </mxGeometry>
        </mxCell>
        <mxCell id="iRaDpfIdEziGBdws9H0w-1360" value="on REP timeout" style="edgeLabel;html=1;align=center;verticalAlign=middle;resizable=0;points=[];fontSize=8;" parent="iRaDpfIdEziGBdws9H0w-1359" connectable="0" vertex="1">
          <mxGeometry x="-0.3611" y="-1" relative="1" as="geometry">
            <mxPoint x="-32" y="-1" as="offset" />
          </mxGeometry>
        </mxCell>
        <mxCell id="iRaDpfIdEziGBdws9H0w-1361" value="Begin timer for&lt;br&gt;REP timeout" style="rounded=1;whiteSpace=wrap;html=1;fontSize=10;" parent="yUSP1gVK_hTuVBHj87YH-1" vertex="1">
          <mxGeometry x="1011.6199999999999" y="1356" width="78.38" height="30" as="geometry" />
        </mxCell>
        <mxCell id="iRaDpfIdEziGBdws9H0w-1362" style="edgeStyle=orthogonalEdgeStyle;rounded=0;orthogonalLoop=1;jettySize=auto;html=1;exitX=0.5;exitY=1;exitDx=0;exitDy=0;entryX=0;entryY=0.5;entryDx=0;entryDy=0;" parent="yUSP1gVK_hTuVBHj87YH-1" target="iRaDpfIdEziGBdws9H0w-1056" edge="1">
          <mxGeometry relative="1" as="geometry">
            <mxPoint x="962" y="1330" as="sourcePoint" />
            <mxPoint x="961.9999999999991" y="1419" as="targetPoint" />
            <Array as="points">
              <mxPoint x="962" y="1890" />
              <mxPoint x="-1550" y="1890" />
              <mxPoint x="-1550" y="458" />
            </Array>
          </mxGeometry>
        </mxCell>
        <mxCell id="iRaDpfIdEziGBdws9H0w-1363" style="edgeStyle=orthogonalEdgeStyle;rounded=0;orthogonalLoop=1;jettySize=auto;html=1;exitX=0.5;exitY=1;exitDx=0;exitDy=0;entryX=0.5;entryY=0;entryDx=0;entryDy=0;" parent="yUSP1gVK_hTuVBHj87YH-1" source="iRaDpfIdEziGBdws9H0w-1367" target="iRaDpfIdEziGBdws9H0w-1369" edge="1">
          <mxGeometry relative="1" as="geometry">
            <mxPoint x="1289.9950000000003" y="1338.25" as="sourcePoint" />
          </mxGeometry>
        </mxCell>
        <mxCell id="iRaDpfIdEziGBdws9H0w-1364" value="Y" style="edgeLabel;html=1;align=center;verticalAlign=middle;resizable=0;points=[];fontSize=8;" parent="iRaDpfIdEziGBdws9H0w-1363" connectable="0" vertex="1">
          <mxGeometry x="-0.4849" relative="1" as="geometry">
            <mxPoint as="offset" />
          </mxGeometry>
        </mxCell>
        <mxCell id="iRaDpfIdEziGBdws9H0w-1365" style="edgeStyle=orthogonalEdgeStyle;rounded=0;orthogonalLoop=1;jettySize=auto;html=1;exitX=1;exitY=0.5;exitDx=0;exitDy=0;entryX=1;entryY=0.5;entryDx=0;entryDy=0;" parent="yUSP1gVK_hTuVBHj87YH-1" source="iRaDpfIdEziGBdws9H0w-1367" target="iRaDpfIdEziGBdws9H0w-1371" edge="1">
          <mxGeometry relative="1" as="geometry">
            <Array as="points">
              <mxPoint x="1400" y="1278" />
              <mxPoint x="1400" y="1431" />
            </Array>
          </mxGeometry>
        </mxCell>
        <mxCell id="iRaDpfIdEziGBdws9H0w-1366" value="N" style="edgeLabel;html=1;align=center;verticalAlign=middle;resizable=0;points=[];fontSize=8;" parent="iRaDpfIdEziGBdws9H0w-1365" connectable="0" vertex="1">
          <mxGeometry x="-0.8655" y="-2" relative="1" as="geometry">
            <mxPoint y="-2" as="offset" />
          </mxGeometry>
        </mxCell>
        <mxCell id="iRaDpfIdEziGBdws9H0w-1367" value="Is UUID in the&lt;br&gt;&lt;b&gt;TranslationTable&lt;/b&gt;?" style="rhombus;whiteSpace=wrap;html=1;verticalAlign=middle;spacing=2;spacingBottom=4;" parent="yUSP1gVK_hTuVBHj87YH-1" vertex="1">
          <mxGeometry x="1212.9" y="1238.25" width="154.19" height="80" as="geometry" />
        </mxCell>
        <mxCell id="iRaDpfIdEziGBdws9H0w-1368" style="edgeStyle=orthogonalEdgeStyle;rounded=0;orthogonalLoop=1;jettySize=auto;html=1;exitX=0.5;exitY=1;exitDx=0;exitDy=0;entryX=0.5;entryY=0;entryDx=0;entryDy=0;" parent="yUSP1gVK_hTuVBHj87YH-1" source="iRaDpfIdEziGBdws9H0w-1369" target="iRaDpfIdEziGBdws9H0w-1371" edge="1">
          <mxGeometry relative="1" as="geometry" />
        </mxCell>
        <mxCell id="iRaDpfIdEziGBdws9H0w-1369" value="Delete UUID*&lt;br&gt;in &lt;b&gt;Store&lt;/b&gt;" style="rounded=1;whiteSpace=wrap;html=1;fontSize=10;" parent="yUSP1gVK_hTuVBHj87YH-1" vertex="1">
          <mxGeometry x="1239.99" y="1356" width="100" height="30" as="geometry" />
        </mxCell>
        <mxCell id="iRaDpfIdEziGBdws9H0w-1370" style="edgeStyle=orthogonalEdgeStyle;rounded=0;orthogonalLoop=1;jettySize=auto;html=1;exitX=0.5;exitY=1;exitDx=0;exitDy=0;entryX=0.5;entryY=0;entryDx=0;entryDy=0;" parent="yUSP1gVK_hTuVBHj87YH-1" source="iRaDpfIdEziGBdws9H0w-1371" target="iRaDpfIdEziGBdws9H0w-1373" edge="1">
          <mxGeometry relative="1" as="geometry" />
        </mxCell>
        <mxCell id="iRaDpfIdEziGBdws9H0w-1371" value="REF with&lt;br&gt;original UUID" style="shape=step;perimeter=stepPerimeter;whiteSpace=wrap;html=1;fixedSize=1;size=5;strokeColor=#CC0000;fontColor=#CC0000;" parent="yUSP1gVK_hTuVBHj87YH-1" vertex="1">
          <mxGeometry x="1240" y="1411.5" width="100" height="38.5" as="geometry" />
        </mxCell>
        <mxCell id="iRaDpfIdEziGBdws9H0w-1372" style="edgeStyle=orthogonalEdgeStyle;rounded=0;orthogonalLoop=1;jettySize=auto;html=1;exitX=0.5;exitY=1;exitDx=0;exitDy=0;entryX=0;entryY=0.5;entryDx=0;entryDy=0;" parent="yUSP1gVK_hTuVBHj87YH-1" source="iRaDpfIdEziGBdws9H0w-1373" target="iRaDpfIdEziGBdws9H0w-1056" edge="1">
          <mxGeometry relative="1" as="geometry">
            <mxPoint x="1290" y="1556" as="targetPoint" />
            <Array as="points">
              <mxPoint x="1290" y="1890" />
              <mxPoint x="-1550" y="1890" />
              <mxPoint x="-1550" y="458" />
            </Array>
          </mxGeometry>
        </mxCell>
        <mxCell id="iRaDpfIdEziGBdws9H0w-1373" value="Delete UUID&lt;br&gt;from the &lt;b&gt;Store&lt;/b&gt;" style="rounded=1;whiteSpace=wrap;html=1;fontSize=10;" parent="yUSP1gVK_hTuVBHj87YH-1" vertex="1">
          <mxGeometry x="1240" y="1496" width="100" height="30" as="geometry" />
        </mxCell>
        <mxCell id="iRaDpfIdEziGBdws9H0w-1374" value="G.1" style="rounded=1;whiteSpace=wrap;html=1;arcSize=50;fontSize=8;" parent="yUSP1gVK_hTuVBHj87YH-1" vertex="1">
          <mxGeometry x="928.27" y="1060.75" width="29.54" height="10.5" as="geometry" />
        </mxCell>
        <mxCell id="iRaDpfIdEziGBdws9H0w-1375" value="G.1.1.1" style="rounded=1;whiteSpace=wrap;html=1;arcSize=50;fontSize=8;" parent="yUSP1gVK_hTuVBHj87YH-1" vertex="1">
          <mxGeometry x="1118" y="1035" width="42" height="10.5" as="geometry" />
        </mxCell>
        <mxCell id="iRaDpfIdEziGBdws9H0w-1376" value="G.1.1.2" style="rounded=1;whiteSpace=wrap;html=1;arcSize=50;fontSize=8;" parent="yUSP1gVK_hTuVBHj87YH-1" vertex="1">
          <mxGeometry x="1239.99" y="1106" width="42" height="10.5" as="geometry" />
        </mxCell>
        <mxCell id="iRaDpfIdEziGBdws9H0w-1377" value="G.1.2.1" style="rounded=1;whiteSpace=wrap;html=1;arcSize=50;fontSize=8;" parent="yUSP1gVK_hTuVBHj87YH-1" vertex="1">
          <mxGeometry x="915.81" y="1180.75" width="42" height="10.5" as="geometry" />
        </mxCell>
        <mxCell id="iRaDpfIdEziGBdws9H0w-1378" value="G.1.2.1.2.1" style="rounded=1;whiteSpace=wrap;html=1;arcSize=50;fontSize=8;" parent="yUSP1gVK_hTuVBHj87YH-1" vertex="1">
          <mxGeometry x="900" y="1273" width="46" height="10.5" as="geometry" />
        </mxCell>
        <mxCell id="iRaDpfIdEziGBdws9H0w-1379" value="G.1.2.1.2.2" style="rounded=1;whiteSpace=wrap;html=1;arcSize=50;fontSize=8;" parent="yUSP1gVK_hTuVBHj87YH-1" vertex="1">
          <mxGeometry x="1095" y="1365.75" width="46" height="10.5" as="geometry" />
        </mxCell>
        <mxCell id="iRaDpfIdEziGBdws9H0w-1380" value="G.1.2.1.2.3" style="rounded=1;whiteSpace=wrap;html=1;arcSize=50;fontSize=8;" parent="yUSP1gVK_hTuVBHj87YH-1" vertex="1">
          <mxGeometry x="1212.9" y="1238.25" width="46" height="10.5" as="geometry" />
        </mxCell>
        <mxCell id="iRaDpfIdEziGBdws9H0w-1381" value="G.1.2.1.2.2.1.1" style="rounded=1;whiteSpace=wrap;html=1;arcSize=50;fontSize=8;" parent="yUSP1gVK_hTuVBHj87YH-1" vertex="1">
          <mxGeometry x="1170" y="1365.75" width="66" height="10.5" as="geometry" />
        </mxCell>
        <mxCell id="iRaDpfIdEziGBdws9H0w-1382" value="G.1.2.1.2.4" style="rounded=1;whiteSpace=wrap;html=1;arcSize=50;fontSize=8;" parent="yUSP1gVK_hTuVBHj87YH-1" vertex="1">
          <mxGeometry x="1190" y="1425.75" width="46" height="10.5" as="geometry" />
        </mxCell>
        <mxCell id="iRaDpfIdEziGBdws9H0w-1383" value="G.1.2.1.2.5" style="rounded=1;whiteSpace=wrap;html=1;arcSize=50;fontSize=8;" parent="yUSP1gVK_hTuVBHj87YH-1" vertex="1">
          <mxGeometry x="1190" y="1505.75" width="46" height="10.5" as="geometry" />
        </mxCell>
        <mxCell id="iRaDpfIdEziGBdws9H0w-1384" value="G.1.2.1.1.1" style="rounded=1;whiteSpace=wrap;html=1;arcSize=50;fontSize=8;" parent="yUSP1gVK_hTuVBHj87YH-1" vertex="1">
          <mxGeometry x="1095" y="1154" width="45" height="10.5" as="geometry" />
        </mxCell>
        <mxCell id="iRaDpfIdEziGBdws9H0w-1385" value="CLOSED" style="rounded=1;whiteSpace=wrap;html=1;arcSize=50;fontSize=8;fillColor=#999999;fontColor=#FFFFFF;" parent="yUSP1gVK_hTuVBHj87YH-1" vertex="1">
          <mxGeometry x="1181" y="1085" width="48.36" height="10.5" as="geometry" />
        </mxCell>
        <mxCell id="iRaDpfIdEziGBdws9H0w-1386" value="CLOSED" style="rounded=1;whiteSpace=wrap;html=1;arcSize=50;fontSize=8;fillColor=#999999;fontColor=#FFFFFF;" parent="yUSP1gVK_hTuVBHj87YH-1" vertex="1">
          <mxGeometry x="1265.82" y="1465" width="48.36" height="10.5" as="geometry" />
        </mxCell>
        <mxCell id="iRaDpfIdEziGBdws9H0w-1387" value="REPLENISHING" style="rounded=1;whiteSpace=wrap;html=1;arcSize=50;fontSize=8;fillColor=#999999;fontColor=#FFFFFF;" parent="yUSP1gVK_hTuVBHj87YH-1" vertex="1">
          <mxGeometry x="971.6199999999999" y="986" width="68.38" height="10.5" as="geometry" />
        </mxCell>
        <mxCell id="iRaDpfIdEziGBdws9H0w-1388" value="" style="group;fontSize=15;movable=0;resizable=0;rotatable=0;deletable=0;editable=0;connectable=0;" parent="yUSP1gVK_hTuVBHj87YH-1" vertex="1" connectable="0">
          <mxGeometry x="-1650" y="2200" width="3295" height="128" as="geometry" />
        </mxCell>
        <mxCell id="yUSP1gVK_hTuVBHj87YH-3" value="" style="rounded=0;whiteSpace=wrap;html=1;movable=0;resizable=0;rotatable=0;deletable=0;editable=0;connectable=0;" parent="iRaDpfIdEziGBdws9H0w-1388" vertex="1">
          <mxGeometry x="1095.980309905348" width="1099.3422126964688" height="128" as="geometry" />
        </mxCell>
        <mxCell id="yUSP1gVK_hTuVBHj87YH-4" value="" style="rounded=0;whiteSpace=wrap;html=1;movable=0;resizable=0;rotatable=0;deletable=0;editable=0;connectable=0;" parent="iRaDpfIdEziGBdws9H0w-1388" vertex="1">
          <mxGeometry x="547.6551987767584" y="64" width="548.6628440366973" height="64" as="geometry" />
        </mxCell>
        <mxCell id="yUSP1gVK_hTuVBHj87YH-5" value="" style="rounded=0;whiteSpace=wrap;html=1;movable=0;resizable=0;rotatable=0;deletable=0;editable=0;connectable=0;" parent="iRaDpfIdEziGBdws9H0w-1388" vertex="1">
          <mxGeometry x="2742.3065749235475" y="64" width="552.6934250764526" height="64" as="geometry" />
        </mxCell>
        <mxCell id="yUSP1gVK_hTuVBHj87YH-6" value="" style="rounded=0;whiteSpace=wrap;html=1;movable=0;resizable=0;rotatable=0;deletable=0;editable=0;connectable=0;" parent="iRaDpfIdEziGBdws9H0w-1388" vertex="1">
          <mxGeometry y="64" width="547.6539646735619" height="64" as="geometry" />
        </mxCell>
        <mxCell id="yUSP1gVK_hTuVBHj87YH-7" value="" style="rounded=0;whiteSpace=wrap;html=1;movable=0;resizable=0;rotatable=0;deletable=0;editable=0;connectable=0;" parent="iRaDpfIdEziGBdws9H0w-1388" vertex="1">
          <mxGeometry width="1096.3180428134556" height="64" as="geometry" />
        </mxCell>
        <mxCell id="yUSP1gVK_hTuVBHj87YH-8" value="" style="rounded=0;whiteSpace=wrap;html=1;movable=0;resizable=0;rotatable=0;deletable=0;editable=0;connectable=0;" parent="iRaDpfIdEziGBdws9H0w-1388" vertex="1">
          <mxGeometry x="2194.650142043592" y="64" width="547.6539646735619" height="64" as="geometry" />
        </mxCell>
        <mxCell id="yUSP1gVK_hTuVBHj87YH-9" value="" style="rounded=0;whiteSpace=wrap;html=1;movable=0;resizable=0;rotatable=0;deletable=0;editable=0;connectable=0;" parent="iRaDpfIdEziGBdws9H0w-1388" vertex="1">
          <mxGeometry x="2194.651376146789" width="1100.348623853211" height="64" as="geometry" />
        </mxCell>
        <mxCell id="yUSP1gVK_hTuVBHj87YH-10" value="&lt;font style=&quot;font-size: 30px;&quot;&gt;&lt;b&gt;Product: &lt;/b&gt;Rank Protocol (internal library, rank-prelude)&lt;/font&gt;" style="text;html=1;strokeColor=none;fillColor=none;align=left;verticalAlign=middle;whiteSpace=wrap;rounded=0;fontSize=17;movable=0;resizable=0;rotatable=0;deletable=0;editable=0;connectable=0;" parent="iRaDpfIdEziGBdws9H0w-1388" vertex="1">
          <mxGeometry x="6.045871559633028" y="3.7647058823529416" width="1082.2110091743118" height="56.47058823529412" as="geometry" />
        </mxCell>
        <mxCell id="yUSP1gVK_hTuVBHj87YH-11" value="&lt;b style=&quot;font-size: 30px;&quot;&gt;Date: &lt;/b&gt;January 22nd, 2024" style="text;html=1;strokeColor=none;fillColor=none;align=left;verticalAlign=middle;whiteSpace=wrap;rounded=0;fontSize=30;movable=0;resizable=0;rotatable=0;deletable=0;editable=0;connectable=0;" parent="iRaDpfIdEziGBdws9H0w-1388" vertex="1">
          <mxGeometry x="6.045871559633028" y="67.76470588235294" width="532.0366972477065" height="56.47058823529412" as="geometry" />
        </mxCell>
        <mxCell id="yUSP1gVK_hTuVBHj87YH-12" value="&lt;b style=&quot;font-size: 30px;&quot;&gt;Scale: &lt;/b&gt;N/A" style="text;html=1;strokeColor=none;fillColor=none;align=left;verticalAlign=middle;whiteSpace=wrap;rounded=0;fontSize=30;movable=0;resizable=0;rotatable=0;deletable=0;editable=0;connectable=0;" parent="iRaDpfIdEziGBdws9H0w-1388" vertex="1">
          <mxGeometry x="554.2048929663608" y="67.76470588235294" width="532.0366972477065" height="56.47058823529412" as="geometry" />
        </mxCell>
        <mxCell id="yUSP1gVK_hTuVBHj87YH-13" value="&lt;b style=&quot;font-size: 35px;&quot;&gt;&lt;font style=&quot;font-size: 35px;&quot;&gt;Rank Protocol Message Exchange and Parsing Algorithm&lt;/font&gt;&lt;/b&gt;" style="text;html=1;strokeColor=none;fillColor=none;align=center;verticalAlign=middle;whiteSpace=wrap;rounded=0;fontSize=35;movable=1;resizable=1;rotatable=1;deletable=1;editable=1;connectable=1;" parent="iRaDpfIdEziGBdws9H0w-1388" vertex="1">
          <mxGeometry x="1108.4097859327217" y="11.294117647058824" width="1074.1498470948013" height="105.41176470588236" as="geometry" />
        </mxCell>
        <mxCell id="yUSP1gVK_hTuVBHj87YH-14" value="&lt;font style=&quot;font-size: 30px;&quot;&gt;&lt;b&gt;Authors: &lt;/b&gt;Rui Eduardo Lopes&lt;/font&gt;" style="text;html=1;strokeColor=none;fillColor=none;align=left;verticalAlign=middle;whiteSpace=wrap;rounded=0;fontSize=17;movable=0;resizable=0;rotatable=0;deletable=0;editable=0;connectable=0;" parent="iRaDpfIdEziGBdws9H0w-1388" vertex="1">
          <mxGeometry x="2202.7125382263" y="3.7647058823529416" width="1082.2110091743118" height="56.47058823529412" as="geometry" />
        </mxCell>
        <mxCell id="yUSP1gVK_hTuVBHj87YH-15" value="&lt;font style=&quot;font-size: 30px;&quot;&gt;&lt;b&gt;Rev: &lt;/b&gt;revision D, version 0.1.0&lt;/font&gt;" style="text;html=1;strokeColor=none;fillColor=none;align=left;verticalAlign=middle;whiteSpace=wrap;rounded=0;fontSize=17;movable=0;resizable=0;rotatable=0;deletable=0;editable=0;connectable=0;" parent="iRaDpfIdEziGBdws9H0w-1388" vertex="1">
          <mxGeometry x="2202.7125382263" y="67.76470588235294" width="532.0366972477065" height="56.47058823529412" as="geometry" />
        </mxCell>
        <mxCell id="yUSP1gVK_hTuVBHj87YH-16" value="&lt;b style=&quot;font-size: 30px;&quot;&gt;Page: &lt;/b&gt;1 / 1" style="text;html=1;strokeColor=none;fillColor=none;align=left;verticalAlign=middle;whiteSpace=wrap;rounded=0;fontSize=30;movable=0;resizable=0;rotatable=0;deletable=0;editable=0;connectable=0;" parent="iRaDpfIdEziGBdws9H0w-1388" vertex="1">
          <mxGeometry x="2750.8715596330276" y="67.76470588235294" width="532.0366972477065" height="56.47058823529412" as="geometry" />
        </mxCell>
      </root>
    </mxGraphModel>
  </diagram>
</mxfile>
